SplineFontDB: 3.2
FontName: RobotoLegacy-ThinItalic
FullName: Roboto Legacy Thin Italic
FamilyName: Roboto Legacy Thin
Weight: Thin
Copyright: Font data copyright Google 2011
Version: 1.00000; 2011
ItalicAngle: 0
UnderlinePosition: -200
UnderlineWidth: 100
Ascent: 1536
Descent: 512
InvalidEm: 0
sfntRevision: 0x00010000
LayerCount: 2
Layer: 0 1 "Back" 1
Layer: 1 1 "Fore" 0
XUID: [1021 474 -1613799265 27066]
StyleMap: 0x0001
FSType: 4
OS2Version: 3
OS2_WeightWidthSlopeOnly: 0
OS2_UseTypoMetrics: 0
CreationTime: 1221222574
ModificationTime: 1744075681
PfmFamily: 81
TTFWeight: 100
TTFWidth: 5
LineGap: 0
VLineGap: 0
Panose: 0 0 0 0 0 0 0 0 0 0
OS2TypoAscent: 1536
OS2TypoAOffset: 0
OS2TypoDescent: -512
OS2TypoDOffset: 0
OS2TypoLinegap: 102
OS2WinAscent: 1946
OS2WinAOffset: 0
OS2WinDescent: 512
OS2WinDOffset: 0
HheadAscent: 1900
HheadAOffset: 0
HheadDescent: -500
HheadDOffset: 0
OS2SubXSize: 1434
OS2SubYSize: 1331
OS2SubXOff: 0
OS2SubYOff: 287
OS2SupXSize: 1434
OS2SupYSize: 1331
OS2SupXOff: 0
OS2SupYOff: 977
OS2StrikeYSize: 102
OS2StrikeYPos: 512
OS2CapHeight: 1456
OS2XHeight: 1082
OS2Vendor: 'pyrs'
OS2CodePages: 2000019f.4f010000
OS2UnicodeRanges: e00002ef.5000205b.00000020.00000000
Lookup: 1 0 0 "'smcp' Lowercase to Small Capitals lookup 0" { "'smcp' Lowercase to Small Capitals lookup 0 subtable"  } ['smcp' ('DFLT' <'dflt' > ) ]
Lookup: 4 0 1 "'liga' Standard Ligatures lookup 1" { "'liga' Standard Ligatures lookup 1 subtable"  } ['liga' ('DFLT' <'dflt' > ) ]
Lookup: 258 0 0 "'kern' Horizontal Kerning lookup 0" { "'kern' Horizontal Kerning lookup 0 per glyph data 0"  "'kern' Horizontal Kerning lookup 0 per glyph data 1"  "'kern' Horizontal Kerning lookup 0 per glyph data 2"  "'kern' Horizontal Kerning lookup 0 kerning class 3"  } ['kern' ('DFLT' <'dflt' > ) ]
MarkAttachClasses: 1
DEI: 91125
KernClass2: 32+ 29 "'kern' Horizontal Kerning lookup 0 kerning class 3"

StartChar: exclam
Encoding: 33 33 4
Width: 397
GlyphClass: 1
Flags: W
LayerCount: 2
Fore
SplineSet
213 478 m 1,0,-1
 159 478 l 1,1,-1
 305 1456 l 1,2,-1
 359 1456 l 1,3,-1
 213 478 l 1,0,-1
162 0 m 1,4,-1
 67 0 l 1,5,-1
 87 134 l 1,6,-1
 182 134 l 1,7,-1
 162 0 l 1,4,-1
EndSplineSet
Validated: 1
EndChar

StartChar: quotedbl
Encoding: 34 34 5
Width: 610
GlyphClass: 1
Flags: W
LayerCount: 2
Fore
SplineSet
361 1289 m 1,0,-1
 274 1018 l 1,1,-1
 224 1018 l 1,2,-1
 306 1286 l 1,3,-1
 330 1456 l 1,4,-1
 385 1456 l 1,5,-1
 361 1289 l 1,0,-1
542 1289 m 1,6,-1
 455 1018 l 1,7,-1
 405 1018 l 1,8,-1
 488 1286 l 1,9,-1
 512 1456 l 1,10,-1
 566 1456 l 1,11,-1
 542 1289 l 1,6,-1
EndSplineSet
Validated: 1
EndChar

StartChar: numbersign
Encoding: 35 35 6
Width: 1265
GlyphClass: 1
Flags: W
LayerCount: 2
Fore
SplineSet
737 410 m 1,0,-1
 374 410 l 1,1,-1
 238 0 l 1,2,-1
 182 0 l 1,3,-1
 317 410 l 1,4,-1
 47 410 l 1,5,-1
 54 462 l 1,6,-1
 334 462 l 1,7,-1
 508 986 l 1,8,-1
 209 986 l 1,9,-1
 217 1040 l 1,10,-1
 526 1040 l 1,11,-1
 664 1456 l 1,12,-1
 720 1456 l 1,13,-1
 582 1040 l 1,14,-1
 947 1040 l 1,15,-1
 1085 1456 l 1,16,-1
 1141 1456 l 1,17,-1
 1002 1040 l 1,18,-1
 1257 1040 l 1,19,-1
 1249 986 l 1,20,-1
 984 986 l 1,21,-1
 810 462 l 1,22,-1
 1095 462 l 1,23,-1
 1088 410 l 1,24,-1
 793 410 l 1,25,-1
 657 0 l 1,26,-1
 601 0 l 1,27,-1
 737 410 l 1,0,-1
391 462 m 1,28,-1
 755 462 l 1,29,-1
 929 986 l 1,30,-1
 564 986 l 1,31,-1
 391 462 l 1,28,-1
EndSplineSet
Validated: 1
EndChar

StartChar: dollar
Encoding: 36 36 7
Width: 1121
GlyphClass: 1
Flags: W
LayerCount: 2
Fore
SplineSet
920 344 m 0,0,1
 939 479 939 479 872 551.5 c 128,-1,2
 805 624 805 624 599 702 c 1,3,4
 395 773 395 773 310 858 c 128,-1,5
 225 943 225 943 248 1110 c 0,6,7
 271 1276 271 1276 388.5 1372.5 c 128,-1,8
 506 1469 506 1469 685 1476 c 1,9,-1
 712 1663 l 1,10,-1
 767 1663 l 1,11,-1
 740 1476 l 1,12,13
 913 1466 913 1466 1002 1353.5 c 128,-1,14
 1091 1241 1091 1241 1065 1047 c 1,15,-1
 1011 1047 l 1,16,17
 1034 1220 1034 1220 954.5 1322 c 128,-1,18
 875 1424 875 1424 703 1424 c 0,19,20
 537 1424 537 1424 428.5 1331.5 c 128,-1,21
 320 1239 320 1239 303 1112 c 0,22,23
 284 977 284 977 346 902.5 c 128,-1,24
 408 828 408 828 624 754 c 1,25,26
 824 681 824 681 910.5 596 c 128,-1,27
 997 511 997 511 974 346 c 0,28,29
 950 179 950 179 834 84.5 c 128,-1,30
 718 -10 718 -10 542 -20 c 1,31,-1
 516 -208 l 1,32,-1
 461 -208 l 1,33,-1
 487 -20 l 1,34,35
 304 -14 304 -14 189 88.5 c 128,-1,36
 74 191 74 191 108 404 c 1,37,-1
 110 409 l 1,38,-1
 157 409 l 1,39,40
 128 202 128 202 235.5 117 c 128,-1,41
 343 32 343 32 515 32 c 0,42,43
 672 32 672 32 787 125 c 128,-1,44
 902 218 902 218 920 344 c 0,0,1
EndSplineSet
Validated: 33
EndChar

StartChar: percent
Encoding: 37 37 8
Width: 1527
GlyphClass: 1
Flags: W
LayerCount: 2
Fore
SplineSet
210 1176 m 2,0,1
 229 1306 229 1306 317.5 1391.5 c 128,-1,2
 406 1477 406 1477 528 1477 c 0,3,4
 642 1477 642 1477 706.5 1388.5 c 128,-1,5
 771 1300 771 1300 753 1176 c 2,6,-1
 742 1099 l 2,7,8
 722 969 722 969 634.5 884.5 c 128,-1,9
 547 800 547 800 428 800 c 0,10,11
 311 800 311 800 245.5 887.5 c 128,-1,12
 180 975 180 975 199 1099 c 2,13,-1
 210 1176 l 2,0,1
254 1099 m 2,14,15
 238 996 238 996 284 925.5 c 128,-1,16
 330 855 330 855 436 855 c 0,17,18
 534 855 534 855 603 928 c 128,-1,19
 672 1001 672 1001 687 1099 c 2,20,-1
 698 1176 l 2,21,22
 714 1279 714 1279 668.5 1350.5 c 128,-1,23
 623 1422 623 1422 519 1422 c 0,24,25
 421 1422 421 1422 350.5 1348 c 128,-1,26
 280 1274 280 1274 265 1176 c 2,27,-1
 254 1099 l 2,14,15
844 357 m 2,28,29
 862 487 862 487 950.5 572 c 128,-1,30
 1039 657 1039 657 1160 657 c 0,31,32
 1275 657 1275 657 1340 569 c 128,-1,33
 1405 481 1405 481 1387 357 c 2,34,-1
 1375 279 l 2,35,36
 1355 148 1355 148 1267.5 63.5 c 128,-1,37
 1180 -21 1180 -21 1060 -21 c 0,38,39
 944 -21 944 -21 878.5 66.5 c 128,-1,40
 813 154 813 154 832 279 c 2,41,-1
 844 357 l 2,28,29
887 279 m 2,42,43
 871 175 871 175 916.5 104.5 c 128,-1,44
 962 34 962 34 1068 34 c 0,45,46
 1166 34 1166 34 1235 107 c 128,-1,47
 1304 180 1304 180 1320 279 c 2,48,-1
 1332 357 l 2,49,50
 1348 467 1348 467 1302.5 534.5 c 128,-1,51
 1257 602 1257 602 1151 602 c 0,52,53
 1052 602 1052 602 983 531.5 c 128,-1,54
 914 461 914 461 899 357 c 2,55,-1
 887 279 l 2,42,43
402 131 m 1,56,-1
 361 162 l 1,57,-1
 1243 1300 l 1,58,-1
 1283 1269 l 1,59,-1
 402 131 l 1,56,-1
EndSplineSet
Validated: 33
EndChar

StartChar: ampersand
Encoding: 38 38 9
Width: 1247
GlyphClass: 1
Flags: W
LayerCount: 2
Fore
SplineSet
463 803 m 1,0,1
 396 905 396 905 369.5 990.5 c 128,-1,2
 343 1076 343 1076 357 1167 c 0,3,4
 380 1322 380 1322 472.5 1399.5 c 128,-1,5
 565 1477 565 1477 709 1477 c 0,6,7
 836 1477 836 1477 899 1404.5 c 128,-1,8
 962 1332 962 1332 945 1215 c 0,9,10
 932 1128 932 1128 886 1072 c 128,-1,11
 840 1016 840 1016 760 958 c 2,12,-1
 534 797 l 1,13,-1
 926 260 l 1,14,15
 993 337 993 337 1038 431 c 128,-1,16
 1083 525 1083 525 1099 632 c 1,17,-1
 1154 632 l 1,18,19
 1133 501 1133 501 1084.5 401 c 128,-1,20
 1036 301 1036 301 958 215 c 1,21,-1
 1116 0 l 1,22,-1
 1049 0 l 1,23,-1
 919 177 l 1,24,-1
 905 164 l 1,25,26
 801 75 801 75 695 27 c 128,-1,27
 589 -21 589 -21 466 -21 c 0,28,29
 272 -21 272 -21 167 80.5 c 128,-1,30
 62 182 62 182 88 352 c 0,31,32
 105 470 105 470 185 563.5 c 128,-1,33
 265 657 265 657 405 762 c 1,34,-1
 463 803 l 1,0,1
474 33 m 0,35,36
 579 33 579 33 688 81.5 c 128,-1,37
 797 130 797 130 888 219 c 1,38,-1
 517 725 l 2,39,40
 507 738 507 738 500.5 746.5 c 128,-1,41
 494 755 494 755 488 764 c 1,42,-1
 430 723 l 1,43,44
 276 605 276 605 214.5 517.5 c 128,-1,45
 153 430 153 430 142 352 c 0,46,47
 121 213 121 213 204.5 123 c 128,-1,48
 288 33 288 33 474 33 c 0,35,36
412 1169 m 0,49,50
 399 1088 399 1088 422 1005.5 c 128,-1,51
 445 923 445 923 507 834 c 1,52,-1
 741 1000 l 2,53,54
 809 1050 809 1050 844.5 1103.5 c 128,-1,55
 880 1157 880 1157 889 1215 c 0,56,57
 903 1313 903 1313 855.5 1368 c 128,-1,58
 808 1423 808 1423 700 1423 c 0,59,60
 585 1423 585 1423 506.5 1349.5 c 128,-1,61
 428 1276 428 1276 412 1169 c 0,49,50
EndSplineSet
Validated: 33
EndChar

StartChar: quotesingle
Encoding: 39 39 10
Width: 406
GlyphClass: 1
Flags: W
LayerCount: 2
Fore
SplineSet
361 1287 m 1,0,-1
 274 1018 l 1,1,-1
 224 1018 l 1,2,-1
 306 1285 l 1,3,-1
 330 1456 l 1,4,-1
 385 1456 l 1,5,-1
 361 1287 l 1,0,-1
EndSplineSet
Validated: 1
EndChar

StartChar: parenleft
Encoding: 40 40 11
Width: 607
GlyphClass: 1
Flags: W
LayerCount: 2
Fore
SplineSet
155 586 m 2,0,1
 204 937 204 937 363.5 1224 c 128,-1,2
 523 1511 523 1511 710 1616 c 1,3,-1
 716 1616 l 1,4,-1
 727 1580 l 1,5,6
 560 1479 560 1479 406.5 1192.5 c 128,-1,7
 253 906 253 906 210 590 c 1,8,-1
 206 564 l 2,9,10
 159 235 159 235 232 -44.5 c 128,-1,11
 305 -324 305 -324 446 -427 c 1,12,-1
 425 -463 l 1,13,-1
 419 -462 l 1,14,15
 262 -358 262 -358 182 -72.5 c 128,-1,16
 102 213 102 213 152 566 c 2,17,-1
 155 586 l 2,0,1
EndSplineSet
Validated: 33
EndChar

StartChar: parenright
Encoding: 41 41 12
Width: 623
GlyphClass: 1
Flags: W
LayerCount: 2
Fore
SplineSet
465 566 m 2,0,1
 413 199 413 199 256 -78.5 c 128,-1,2
 99 -356 99 -356 -90 -463 c 1,3,-1
 -96 -463 l 1,4,-1
 -107 -427 l 1,5,6
 59 -326 59 -326 212.5 -39.5 c 128,-1,7
 366 247 366 247 411 564 c 2,8,-1
 415 590 l 1,9,10
 460 919 460 919 387 1198.5 c 128,-1,11
 314 1478 314 1478 174 1580 c 1,12,-1
 195 1616 l 1,13,-1
 201 1615 l 1,14,15
 355 1512 355 1512 435 1218 c 128,-1,16
 515 924 515 924 468 586 c 2,17,-1
 465 566 l 2,0,1
EndSplineSet
Validated: 33
EndChar

StartChar: asterisk
Encoding: 42 42 13
Width: 856
GlyphClass: 1
Flags: W
LayerCount: 2
Fore
SplineSet
420 715 m 1,0,-1
 130 799 l 1,1,-1
 156 853 l 1,2,-1
 444 760 l 1,3,-1
 486 1084 l 1,4,-1
 541 1082 l 1,5,-1
 494 757 l 1,6,-1
 801 862 l 1,7,-1
 813 809 l 1,8,-1
 499 712 l 1,9,-1
 649 455 l 1,10,-1
 597 422 l 1,11,-1
 455 684 l 1,12,-1
 237 419 l 1,13,-1
 197 451 l 1,14,-1
 420 715 l 1,0,-1
EndSplineSet
Validated: 1
EndChar

StartChar: plus
Encoding: 43 43 14
Width: 1151
GlyphClass: 1
Flags: W
LayerCount: 2
Fore
SplineSet
615 702 m 1,0,-1
 1096 702 l 1,1,-1
 1088 649 l 1,2,-1
 607 649 l 1,3,-1
 532 146 l 1,4,-1
 477 146 l 1,5,-1
 552 649 l 1,6,-1
 90 649 l 1,7,-1
 98 702 l 1,8,-1
 560 702 l 1,9,-1
 636 1206 l 1,10,-1
 691 1206 l 1,11,-1
 615 702 l 1,0,-1
EndSplineSet
Validated: 1
EndChar

StartChar: comma
Encoding: 44 44 15
Width: 383
GlyphClass: 1
Flags: W
LayerCount: 2
Fore
SplineSet
154 -8 m 1,0,-1
 46 -258 l 1,1,-1
 -5 -258 l 1,2,-1
 99 -12 l 1,3,-1
 125 159 l 1,4,-1
 179 159 l 1,5,-1
 154 -8 l 1,0,-1
EndSplineSet
Validated: 1
EndChar

StartChar: hyphen
Encoding: 45 45 16
Width: 807
GlyphClass: 1
Flags: W
LayerCount: 2
Fore
SplineSet
699 599 m 1,0,-1
 109 599 l 1,1,-1
 117 653 l 1,2,-1
 707 653 l 1,3,-1
 699 599 l 1,0,-1
EndSplineSet
Validated: 1
EndChar

StartChar: period
Encoding: 46 46 17
Width: 439
GlyphClass: 1
Flags: W
LayerCount: 2
Fore
SplineSet
179 0 m 1,0,-1
 93 0 l 1,1,-1
 113 130 l 1,2,-1
 199 130 l 1,3,-1
 179 0 l 1,0,-1
EndSplineSet
Validated: 1
EndChar

StartChar: slash
Encoding: 47 47 18
Width: 782
GlyphClass: 1
Flags: W
LayerCount: 2
Fore
SplineSet
2 -125 m 1,0,-1
 -57 -125 l 1,1,-1
 788 1456 l 1,2,-1
 847 1456 l 1,3,-1
 2 -125 l 1,0,-1
EndSplineSet
Validated: 1
EndChar

StartChar: zero
Encoding: 48 48 19
Width: 1121
GlyphClass: 1
Flags: W
LayerCount: 2
Fore
SplineSet
1001 514 m 2,0,1
 962 253 962 253 826.5 116 c 128,-1,2
 691 -21 691 -21 479 -21 c 0,3,4
 278 -21 278 -21 177 123 c 128,-1,5
 76 267 76 267 114 514 c 2,6,-1
 178 942 l 2,7,8
 217 1201 217 1201 353.5 1339 c 128,-1,9
 490 1477 490 1477 702 1477 c 0,10,11
 903 1477 903 1477 1002.5 1333 c 128,-1,12
 1102 1189 1102 1189 1065 942 c 2,13,-1
 1001 514 l 2,0,1
1011 942 m 2,14,15
 1045 1170 1045 1170 964 1296.5 c 128,-1,16
 883 1423 883 1423 693 1423 c 0,17,18
 512 1423 512 1423 388 1291 c 128,-1,19
 264 1159 264 1159 232 942 c 2,20,-1
 168 516 l 2,21,22
 134 291 134 291 215.5 162 c 128,-1,23
 297 33 297 33 487 33 c 0,24,25
 667 33 667 33 790.5 167 c 128,-1,26
 914 301 914 301 947 516 c 2,27,-1
 1011 942 l 2,14,15
EndSplineSet
Validated: 33
EndChar

StartChar: one
Encoding: 49 49 20
Width: 1121
GlyphClass: 1
Flags: W
LayerCount: 2
Fore
SplineSet
536 0 m 1,0,-1
 482 0 l 1,1,-1
 696 1425 l 1,2,-1
 316 1347 l 1,3,-1
 323 1393 l 1,4,-1
 758 1477 l 1,5,-1
 536 0 l 1,0,-1
EndSplineSet
Validated: 1
EndChar

StartChar: two
Encoding: 50 50 21
Width: 1121
GlyphClass: 1
Flags: W
LayerCount: 2
Fore
SplineSet
952 0 m 1,0,-1
 81 0 l 1,1,-1
 89 54 l 1,2,-1
 666 626 l 2,3,4
 821 780 821 780 889 883.5 c 128,-1,5
 957 987 957 987 971 1086 c 0,6,7
 994 1253 994 1253 925 1338 c 128,-1,8
 856 1423 856 1423 683 1423 c 0,9,10
 511 1423 511 1423 394.5 1317 c 128,-1,11
 278 1211 278 1211 255 1046 c 1,12,-1
 210 1046 l 1,13,-1
 207 1052 l 1,14,15
 229 1236 229 1236 361.5 1356.5 c 128,-1,16
 494 1477 494 1477 691 1477 c 0,17,18
 864 1477 864 1477 958 1374 c 128,-1,19
 1052 1271 1052 1271 1026 1086 c 0,20,21
 1008 960 1008 960 915.5 839.5 c 128,-1,22
 823 719 823 719 650 546 c 2,23,-1
 166 60 l 1,24,-1
 168 54 l 1,25,-1
 960 54 l 1,26,-1
 952 0 l 1,0,-1
EndSplineSet
Validated: 33
EndChar

StartChar: three
Encoding: 51 51 22
Width: 1121
GlyphClass: 1
Flags: W
LayerCount: 2
Fore
SplineSet
453 771 m 1,0,-1
 564 771 l 2,1,2
 739 771 739 771 861.5 863 c 128,-1,3
 984 955 984 955 1004 1086 c 0,4,5
 1026 1237 1026 1237 950.5 1330 c 128,-1,6
 875 1423 875 1423 697 1423 c 0,7,8
 541 1423 541 1423 416.5 1327 c 128,-1,9
 292 1231 292 1231 269 1075 c 1,10,-1
 224 1075 l 1,11,-1
 222 1081 l 1,12,13
 245 1265 245 1265 383.5 1371 c 128,-1,14
 522 1477 522 1477 706 1477 c 0,15,16
 887 1477 887 1477 985.5 1369.5 c 128,-1,17
 1084 1262 1084 1262 1057 1082 c 0,18,19
 1039 962 1039 962 954 872 c 128,-1,20
 869 782 869 782 739 743 c 1,21,22
 873 707 873 707 939 615 c 128,-1,23
 1005 523 1005 523 985 386 c 0,24,25
 955 188 955 188 820 83.5 c 128,-1,26
 685 -21 685 -21 490 -21 c 0,27,28
 311 -21 311 -21 183 89 c 128,-1,29
 55 199 55 199 89 399 c 1,30,-1
 92 405 l 1,31,-1
 138 405 l 1,32,33
 112 237 112 237 214.5 135 c 128,-1,34
 317 33 317 33 498 33 c 0,35,36
 671 33 671 33 788.5 126.5 c 128,-1,37
 906 220 906 220 930 382 c 0,38,39
 956 559 956 559 855.5 637 c 128,-1,40
 755 715 755 715 555 715 c 2,41,-1
 444 715 l 1,42,-1
 451 759 l 1,43,-1
 452 764 l 1,44,-1
 453 771 l 1,0,-1
EndSplineSet
Validated: 33
EndChar

StartChar: four
Encoding: 52 52 23
Width: 1121
GlyphClass: 1
Flags: W
LayerCount: 2
Fore
SplineSet
819 451 m 1,0,-1
 1072 451 l 1,1,-1
 1064 397 l 1,2,-1
 811 397 l 1,3,-1
 752 0 l 1,4,-1
 698 0 l 1,5,-1
 757 397 l 1,6,-1
 52 397 l 1,7,-1
 56 427 l 1,8,-1
 905 1456 l 1,9,-1
 970 1456 l 1,10,-1
 819 451 l 1,0,-1
148 456 m 1,11,-1
 151 451 l 1,12,-1
 765 451 l 1,13,-1
 904 1379 l 1,14,-1
 899 1381 l 1,15,-1
 802 1253 l 1,16,-1
 148 456 l 1,11,-1
EndSplineSet
Validated: 1
EndChar

StartChar: five
Encoding: 53 53 24
Width: 1121
GlyphClass: 1
Flags: W
LayerCount: 2
Fore
SplineSet
216 662 m 1,0,-1
 413 1456 l 1,1,-1
 1103 1456 l 1,2,-1
 1095 1403 l 1,3,-1
 454 1403 l 1,4,-1
 301 785 l 1,5,6
 372 848 372 848 452 880 c 128,-1,7
 532 912 532 912 677 916 c 0,8,9
 852 921 852 921 946.5 797 c 128,-1,10
 1041 673 1041 673 1010 464 c 0,11,12
 975 233 975 233 852 106 c 128,-1,13
 729 -21 729 -21 507 -21 c 0,14,15
 336 -21 336 -21 231 80.5 c 128,-1,16
 126 182 126 182 160 378 c 1,17,-1
 162 383 l 1,18,-1
 210 383 l 1,19,20
 183 204 183 204 265.5 118.5 c 128,-1,21
 348 33 348 33 515 33 c 0,22,23
 702 33 702 33 812 141.5 c 128,-1,24
 922 250 922 250 954 462 c 0,25,26
 983 653 983 653 909 755.5 c 128,-1,27
 835 858 835 858 670 858 c 0,28,29
 516 858 516 858 412.5 804 c 128,-1,30
 309 750 309 750 255 646 c 1,31,-1
 216 662 l 1,0,-1
EndSplineSet
Validated: 33
EndChar

StartChar: six
Encoding: 54 54 25
Width: 1121
GlyphClass: 1
Flags: W
LayerCount: 2
Fore
SplineSet
755 1477 m 0,0,1
 830 1477 830 1477 906 1460 c 128,-1,2
 982 1443 982 1443 1039 1407 c 1,3,-1
 1010 1356 l 1,4,5
 951 1393 951 1393 891.5 1408 c 128,-1,6
 832 1423 832 1423 746 1423 c 0,7,8
 586 1423 586 1423 452.5 1295.5 c 128,-1,9
 319 1168 319 1168 288 961 c 2,10,-1
 244 666 l 1,11,12
 308 776 308 776 425.5 846.5 c 128,-1,13
 543 917 543 917 682 917 c 0,14,15
 873 917 873 917 963.5 789 c 128,-1,16
 1054 661 1054 661 1021 440 c 0,17,18
 989 228 989 228 851 103.5 c 128,-1,19
 713 -21 713 -21 521 -21 c 0,20,21
 338 -21 338 -21 234.5 126 c 128,-1,22
 131 273 131 273 167 512 c 2,23,-1
 234 960 l 2,24,25
 269 1197 269 1197 416.5 1337 c 128,-1,26
 564 1477 564 1477 755 1477 c 0,0,1
221 516 m 1,27,-1
 221 513 l 1,28,29
 187 289 187 289 273 160.5 c 128,-1,30
 359 32 359 32 529 32 c 0,31,32
 691 32 691 32 816 150.5 c 128,-1,33
 941 269 941 269 967 440 c 0,34,35
 998 653 998 653 925 758 c 128,-1,36
 852 863 852 863 666 863 c 0,37,38
 518 863 518 863 380.5 759.5 c 128,-1,39
 243 656 243 656 222 516 c 1,40,-1
 221 516 l 1,27,-1
EndSplineSet
Validated: 33
EndChar

StartChar: seven
Encoding: 55 55 26
Width: 1121
GlyphClass: 1
Flags: W
LayerCount: 2
Fore
SplineSet
1147 1402 m 1,0,1
 891 1156 891 1156 697.5 841 c 128,-1,2
 504 526 504 526 446 131 c 2,3,-1
 426 0 l 1,4,-1
 372 0 l 1,5,-1
 392 131 l 2,6,7
 448 507 448 507 627 819 c 128,-1,8
 806 1131 806 1131 1082 1402 c 1,9,-1
 217 1402 l 1,10,-1
 225 1456 l 1,11,-1
 1155 1456 l 1,12,-1
 1147 1402 l 1,0,1
EndSplineSet
Validated: 1
EndChar

StartChar: eight
Encoding: 56 56 27
Width: 1121
GlyphClass: 1
Flags: W
LayerCount: 2
Fore
SplineSet
1068 1096 m 0,0,1
 1049 968 1049 968 962.5 878.5 c 128,-1,2
 876 789 876 789 751 754 c 1,3,4
 879 714 879 714 951 616 c 128,-1,5
 1023 518 1023 518 1004 389 c 0,6,7
 974 190 974 190 830 84.5 c 128,-1,8
 686 -21 686 -21 490 -21 c 0,9,10
 292 -21 292 -21 169.5 88.5 c 128,-1,11
 47 198 47 198 76 389 c 0,12,13
 96 527 96 527 198.5 624 c 128,-1,14
 301 721 301 721 450 757 c 1,15,16
 333 795 333 795 268.5 885.5 c 128,-1,17
 204 976 204 976 223 1096 c 0,18,19
 251 1285 251 1285 386.5 1381 c 128,-1,20
 522 1477 522 1477 713 1477 c 0,21,22
 884 1477 884 1477 989.5 1376.5 c 128,-1,23
 1095 1276 1095 1276 1068 1096 c 0,0,1
949 384 m 0,24,25
 972 543 972 543 870.5 635.5 c 128,-1,26
 769 728 769 728 600 728 c 0,27,28
 429 728 429 728 290.5 632 c 128,-1,29
 152 536 152 536 130 384 c 0,30,31
 104 217 104 217 209.5 125 c 128,-1,32
 315 33 315 33 498 33 c 0,33,34
 659 33 659 33 792 129 c 128,-1,35
 925 225 925 225 949 384 c 0,24,25
1015 1101 m 0,36,37
 1037 1248 1037 1248 946 1335.5 c 128,-1,38
 855 1423 855 1423 704 1423 c 0,39,40
 546 1423 546 1423 423 1336 c 128,-1,41
 300 1249 300 1249 278 1101 c 0,42,43
 255 950 255 950 350 866 c 128,-1,44
 445 782 445 782 610 782 c 0,45,46
 754 782 754 782 874 870 c 128,-1,47
 994 958 994 958 1015 1101 c 0,36,37
EndSplineSet
Validated: 33
EndChar

StartChar: nine
Encoding: 57 57 28
Width: 1121
GlyphClass: 1
Flags: W
LayerCount: 2
Fore
SplineSet
457 33 m 0,0,1
 626 33 626 33 748 147.5 c 128,-1,2
 870 262 870 262 900 458 c 2,3,-1
 942 745 l 1,4,5
 872 641 872 641 761.5 584.5 c 128,-1,6
 651 528 651 528 522 528 c 0,7,8
 341 528 341 528 237.5 662.5 c 128,-1,9
 134 797 134 797 163 988 c 0,10,11
 195 1202 195 1202 337.5 1339.5 c 128,-1,12
 480 1477 480 1477 673 1477 c 0,13,14
 862 1477 862 1477 968 1343 c 128,-1,15
 1074 1209 1074 1209 1037 963 c 2,16,-1
 962 460 l 2,17,18
 926 227 926 227 788 103 c 128,-1,19
 650 -21 650 -21 449 -21 c 0,20,21
 380 -21 380 -21 308 -4.5 c 128,-1,22
 236 12 236 12 165 42 c 1,23,-1
 189 92 l 1,24,25
 250 60 250 60 311.5 46.5 c 128,-1,26
 373 33 373 33 457 33 c 0,0,1
530 581 m 0,27,28
 673 581 673 581 787 662.5 c 128,-1,29
 901 744 901 744 959 858 c 1,30,-1
 975 962 l 2,31,32
 1010 1192 1010 1192 923.5 1307.5 c 128,-1,33
 837 1423 837 1423 668 1423 c 0,34,35
 507 1423 507 1423 379 1292.5 c 128,-1,36
 251 1162 251 1162 225 988 c 0,37,38
 198 813 198 813 279.5 697 c 128,-1,39
 361 581 361 581 530 581 c 0,27,28
EndSplineSet
Validated: 33
EndChar

StartChar: less
Encoding: 60 60 31
Width: 1053
GlyphClass: 1
Flags: W
LayerCount: 2
Fore
SplineSet
265 577 m 1,0,-1
 140 540 l 1,1,-1
 140 534 l 1,2,-1
 253 498 l 1,3,-1
 868 195 l 1,4,-1
 859 136 l 1,5,-1
 79 515 l 1,6,-1
 80 523 l 1,7,-1
 85 552 l 1,8,-1
 87 565 l 1,9,-1
 980 943 l 1,10,-1
 972 885 l 1,11,-1
 265 577 l 1,0,-1
EndSplineSet
Validated: 1
EndChar

StartChar: equal
Encoding: 61 61 32
Width: 1142
GlyphClass: 1
Flags: W
LayerCount: 2
Fore
SplineSet
1027 843 m 1,0,-1
 193 843 l 1,1,-1
 202 897 l 1,2,-1
 1036 897 l 1,3,-1
 1027 843 l 1,0,-1
966 436 m 1,4,-1
 132 436 l 1,5,-1
 141 490 l 1,6,-1
 975 490 l 1,7,-1
 966 436 l 1,4,-1
EndSplineSet
Validated: 1
EndChar

StartChar: greater
Encoding: 62 62 33
Width: 1053
GlyphClass: 1
Flags: W
LayerCount: 2
Fore
SplineSet
167 886 m 1,0,-1
 176 944 l 1,1,-1
 955 566 l 1,2,-1
 953 557 l 1,3,-1
 954 557 l 1,4,-1
 949 528 l 1,5,-1
 947 516 l 1,6,-1
 55 137 l 1,7,-1
 63 196 l 1,8,-1
 769 503 l 1,9,-1
 894 539 l 1,10,-1
 894 545 l 1,11,-1
 781 582 l 1,12,-1
 167 886 l 1,0,-1
EndSplineSet
Validated: 1
EndChar

StartChar: question
Encoding: 63 63 34
Width: 893
GlyphClass: 1
Flags: W
LayerCount: 2
Fore
SplineSet
375 400 m 1,0,1
 393 516 393 516 420 565 c 128,-1,2
 447 614 447 614 544 692 c 0,3,4
 682 808 682 808 747 889.5 c 128,-1,5
 812 971 812 971 834 1112 c 0,6,7
 856 1264 856 1264 791.5 1344 c 128,-1,8
 727 1424 727 1424 582 1424 c 0,9,10
 446 1424 446 1424 351.5 1338.5 c 128,-1,11
 257 1253 257 1253 234 1116 c 1,12,-1
 188 1116 l 1,13,-1
 186 1122 l 1,14,15
 210 1292 210 1292 322.5 1384.5 c 128,-1,16
 435 1477 435 1477 590 1477 c 0,17,18
 748 1477 748 1477 830 1375 c 128,-1,19
 912 1273 912 1273 888 1110 c 0,20,21
 866 963 866 963 790.5 865.5 c 128,-1,22
 715 768 715 768 566 650 c 1,23,24
 489 597 489 597 466 548.5 c 128,-1,25
 443 500 443 500 429 400 c 1,26,-1
 375 400 l 1,0,1
393 0 m 1,27,-1
 311 0 l 1,28,-1
 327 106 l 1,29,-1
 409 106 l 1,30,-1
 393 0 l 1,27,-1
EndSplineSet
Validated: 33
EndChar

StartChar: at
Encoding: 64 64 35
Width: 1902
GlyphClass: 1
Flags: W
LayerCount: 2
Fore
SplineSet
1765 523 m 0,0,1
 1723 304 1723 304 1594.5 141.5 c 128,-1,2
 1466 -21 1466 -21 1274 -21 c 0,3,4
 1194 -21 1194 -21 1150.5 40.5 c 128,-1,5
 1107 102 1107 102 1113 210 c 1,6,7
 1040 95 1040 95 947.5 37 c 128,-1,8
 855 -21 855 -21 746 -21 c 0,9,10
 615 -21 615 -21 563.5 99 c 128,-1,11
 512 219 512 219 560 416 c 0,12,13
 620 666 620 666 764 817 c 128,-1,14
 908 968 908 968 1080 968 c 0,15,16
 1160 968 1160 968 1210 940 c 128,-1,17
 1260 912 1260 912 1314 858 c 1,18,-1
 1180 293 l 2,19,20
 1146 141 1146 141 1185.5 87.5 c 128,-1,21
 1225 34 1225 34 1285 34 c 0,22,23
 1437 34 1437 34 1550.5 170 c 128,-1,24
 1664 306 1664 306 1708 523 c 0,25,26
 1788 919 1788 919 1646.5 1136.5 c 128,-1,27
 1505 1354 1505 1354 1120 1354 c 0,28,29
 796 1354 796 1354 525.5 1112.5 c 128,-1,30
 255 871 255 871 176 478 c 0,31,32
 98 96 98 96 255.5 -151 c 128,-1,33
 413 -398 413 -398 770 -398 c 0,34,35
 854 -398 854 -398 949.5 -375.5 c 128,-1,36
 1045 -353 1045 -353 1112 -318 c 1,37,-1
 1129 -364 l 1,38,39
 1062 -404 1062 -404 956 -428.5 c 128,-1,40
 850 -453 850 -453 758 -453 c 0,41,42
 392 -453 392 -453 215.5 -201 c 128,-1,43
 39 51 39 51 121 478 c 256,44,45
 203 905 203 905 478.5 1158 c 128,-1,46
 754 1411 754 1411 1133 1411 c 0,47,48
 1519 1411 1519 1411 1681.5 1174 c 128,-1,49
 1844 937 1844 937 1765 523 c 0,0,1
614 416 m 0,50,51
 570 249 570 249 604.5 141 c 128,-1,52
 639 33 639 33 752 33 c 0,53,54
 856 33 856 33 954.5 99.5 c 128,-1,55
 1053 166 1053 166 1137 343 c 1,56,-1
 1253 831 l 1,57,58
 1224 870 1224 870 1178.5 891.5 c 128,-1,59
 1133 913 1133 913 1069 913 c 0,60,61
 933 913 933 913 804.5 785.5 c 128,-1,62
 676 658 676 658 614 416 c 0,50,51
EndSplineSet
Validated: 33
EndChar

StartChar: A
Encoding: 65 65 36
Width: 1223
GlyphClass: 1
Flags: W
LayerCount: 2
Fore
SplineSet
952 435 m 1,0,-1
 241 435 l 1,1,-1
 13 0 l 1,2,-1
 -46 0 l 1,3,-1
 716 1456 l 1,4,-1
 782 1456 l 1,5,-1
 1109 0 l 1,6,-1
 1050 0 l 1,7,-1
 952 435 l 1,0,-1
269 489 m 1,8,-1
 940 489 l 1,9,-1
 758 1304 l 1,10,-1
 743 1388 l 1,11,-1
 737 1389 l 1,12,-1
 697 1304 l 1,13,-1
 269 489 l 1,8,-1
EndSplineSet
Validated: 1
Substitution2: "'smcp' Lowercase to Small Capitals lookup 0 subtable" A.smcp
EndChar

StartChar: B
Encoding: 66 66 37
Width: 1230
GlyphClass: 1
Flags: W
LayerCount: 2
Fore
SplineSet
120 0 m 1,0,-1
 338 1456 l 1,1,-1
 721 1456 l 2,2,3
 939 1456 939 1456 1054 1362 c 128,-1,4
 1169 1268 1169 1268 1141 1083 c 0,5,6
 1122 957 1122 957 1050.5 872.5 c 128,-1,7
 979 788 979 788 865 760 c 1,8,-1
 863 754 l 1,9,10
 990 737 990 737 1062.5 635.5 c 128,-1,11
 1135 534 1135 534 1115 401 c 0,12,13
 1085 203 1085 203 948 101.5 c 128,-1,14
 811 0 811 0 605 0 c 2,15,-1
 120 0 l 1,0,-1
281 719 m 1,16,-1
 182 54 l 1,17,-1
 613 54 l 2,18,19
 790 54 790 54 913 146 c 128,-1,20
 1036 238 1036 238 1061 399 c 0,21,22
 1082 545 1082 545 994 629.5 c 128,-1,23
 906 714 906 714 731 719 c 1,24,-1
 713 719 l 1,25,-1
 281 719 l 1,16,-1
289 773 m 1,26,-1
 657 773 l 2,27,28
 841 776 841 776 952.5 854.5 c 128,-1,29
 1064 933 1064 933 1087 1087 c 0,30,31
 1111 1249 1111 1249 1017 1325.5 c 128,-1,32
 923 1402 923 1402 713 1402 c 2,33,-1
 384 1402 l 1,34,-1
 289 773 l 1,26,-1
EndSplineSet
Validated: 33
Substitution2: "'smcp' Lowercase to Small Capitals lookup 0 subtable" B.smcp
EndChar

StartChar: C
Encoding: 67 67 38
Width: 1327
GlyphClass: 1
Flags: W
LayerCount: 2
Fore
SplineSet
1158 446 m 1,0,-1
 1160 440 l 1,1,2
 1129 207 1129 207 974.5 93 c 128,-1,3
 820 -21 820 -21 588 -21 c 0,4,5
 358 -21 358 -21 236 157 c 128,-1,6
 114 335 114 335 157 619 c 2,7,-1
 190 837 l 2,8,9
 233 1134 233 1134 402 1305.5 c 128,-1,10
 571 1477 571 1477 813 1477 c 0,11,12
 1032 1477 1032 1477 1157.5 1357 c 128,-1,13
 1283 1237 1283 1237 1247 1018 c 1,14,-1
 1244 1012 l 1,15,-1
 1198 1012 l 1,16,17
 1228 1216 1228 1216 1122.5 1319.5 c 128,-1,18
 1017 1423 1017 1423 804 1423 c 0,19,20
 599 1423 599 1423 441 1261 c 128,-1,21
 283 1099 283 1099 244 839 c 2,22,-1
 211 619 l 2,23,24
 169 344 169 344 274.5 188.5 c 128,-1,25
 380 33 380 33 596 33 c 0,26,27
 799 33 799 33 940.5 137 c 128,-1,28
 1082 241 1082 241 1113 446 c 1,29,-1
 1158 446 l 1,0,-1
EndSplineSet
Validated: 33
Substitution2: "'smcp' Lowercase to Small Capitals lookup 0 subtable" C.smcp
EndChar

StartChar: D
Encoding: 68 68 39
Width: 1370
GlyphClass: 1
Flags: W
LayerCount: 2
Fore
SplineSet
120 0 m 1,0,-1
 338 1456 l 1,1,-1
 771 1456 l 2,2,3
 1013 1456 1013 1456 1165 1274.5 c 128,-1,4
 1317 1093 1317 1093 1277 817 c 2,5,-1
 1250 639 l 2,6,7
 1206 348 1206 348 1006.5 174 c 128,-1,8
 807 0 807 0 553 0 c 2,9,-1
 120 0 l 1,0,-1
384 1402 m 1,10,-1
 182 54 l 1,11,-1
 561 54 l 2,12,13
 779 54 779 54 968.5 221.5 c 128,-1,14
 1158 389 1158 389 1196 639 c 2,15,-1
 1223 820 l 2,16,17
 1261 1080 1261 1080 1127 1241 c 128,-1,18
 993 1402 993 1402 763 1402 c 2,19,-1
 384 1402 l 1,10,-1
EndSplineSet
Validated: 33
Substitution2: "'smcp' Lowercase to Small Capitals lookup 0 subtable" D.smcp
EndChar

StartChar: E
Encoding: 69 69 40
Width: 1129
GlyphClass: 1
Flags: W
LayerCount: 2
Fore
SplineSet
984 732 m 1,0,-1
 283 732 l 1,1,-1
 182 54 l 1,2,-1
 984 54 l 1,3,-1
 976 0 l 1,4,-1
 120 0 l 1,5,-1
 338 1456 l 1,6,-1
 1194 1456 l 1,7,-1
 1186 1402 l 1,8,-1
 384 1402 l 1,9,-1
 291 786 l 1,10,-1
 992 786 l 1,11,-1
 984 732 l 1,0,-1
EndSplineSet
Validated: 1
Substitution2: "'smcp' Lowercase to Small Capitals lookup 0 subtable" E.smcp
EndChar

StartChar: F
Encoding: 70 70 41
Width: 1127
GlyphClass: 1
Flags: W
LayerCount: 2
Fore
SplineSet
997 716 m 1,0,-1
 281 716 l 1,1,-1
 174 0 l 1,2,-1
 120 0 l 1,3,-1
 338 1456 l 1,4,-1
 1210 1456 l 1,5,-1
 1202 1402 l 1,6,-1
 384 1402 l 1,7,-1
 289 772 l 1,8,-1
 1006 772 l 1,9,-1
 997 716 l 1,0,-1
EndSplineSet
Validated: 1
Substitution2: "'smcp' Lowercase to Small Capitals lookup 0 subtable" F.smcp
EndChar

StartChar: G
Encoding: 71 71 42
Width: 1429
GlyphClass: 1
Flags: W
LayerCount: 2
Fore
SplineSet
1175 196 m 1,0,1
 1117 118 1117 118 976.5 48.5 c 128,-1,2
 836 -21 836 -21 646 -21 c 0,3,4
 406 -21 406 -21 272 158.5 c 128,-1,5
 138 338 138 338 181 620 c 2,6,-1
 217 858 l 2,7,8
 259 1143 259 1143 434 1310 c 128,-1,9
 609 1477 609 1477 854 1477 c 0,10,11
 1078 1477 1078 1477 1202.5 1355.5 c 128,-1,12
 1327 1234 1327 1234 1294 1049 c 1,13,-1
 1292 1043 l 1,14,-1
 1246 1043 l 1,15,16
 1272 1216 1272 1216 1169 1319.5 c 128,-1,17
 1066 1423 1066 1423 845 1423 c 0,18,19
 632 1423 632 1423 469.5 1264 c 128,-1,20
 307 1105 307 1105 271 860 c 2,21,-1
 235 620 l 2,22,23
 194 350 194 350 308 191.5 c 128,-1,24
 422 33 422 33 654 33 c 0,25,26
 821 33 821 33 948 90.5 c 128,-1,27
 1075 148 1075 148 1125 221 c 1,28,-1
 1187 635 l 1,29,-1
 742 635 l 1,30,-1
 751 690 l 1,31,-1
 1250 690 l 1,32,-1
 1175 196 l 1,0,1
EndSplineSet
Validated: 33
Substitution2: "'smcp' Lowercase to Small Capitals lookup 0 subtable" G.smcp
EndChar

StartChar: H
Encoding: 72 72 43
Width: 1438
GlyphClass: 1
Flags: W
LayerCount: 2
Fore
SplineSet
1158 0 m 1,0,-1
 1104 0 l 1,1,-1
 1208 695 l 1,2,-1
 278 695 l 1,3,-1
 174 0 l 1,4,-1
 120 0 l 1,5,-1
 338 1456 l 1,6,-1
 392 1456 l 1,7,-1
 286 749 l 1,8,-1
 1216 749 l 1,9,-1
 1322 1456 l 1,10,-1
 1376 1456 l 1,11,-1
 1158 0 l 1,0,-1
EndSplineSet
Validated: 1
Substitution2: "'smcp' Lowercase to Small Capitals lookup 0 subtable" H.smcp
EndChar

StartChar: I
Encoding: 73 73 44
Width: 534
GlyphClass: 1
Flags: W
LayerCount: 2
Fore
SplineSet
214 0 m 1,0,-1
 160 0 l 1,1,-1
 378 1456 l 1,2,-1
 432 1456 l 1,3,-1
 214 0 l 1,0,-1
EndSplineSet
Validated: 1
Substitution2: "'smcp' Lowercase to Small Capitals lookup 0 subtable" I.smcp
EndChar

StartChar: J
Encoding: 74 74 45
Width: 1122
GlyphClass: 1
Flags: W
LayerCount: 2
Fore
SplineSet
1011 1456 m 1,0,-1
 1065 1456 l 1,1,-1
 910 422 l 2,2,3
 878 211 878 211 748 95 c 128,-1,4
 618 -21 618 -21 436 -21 c 0,5,6
 243 -21 243 -21 140 86.5 c 128,-1,7
 37 194 37 194 72 396 c 1,8,-1
 74 401 l 1,9,-1
 121 401 l 1,10,11
 91 205 91 205 173 119 c 128,-1,12
 255 33 255 33 444 33 c 0,13,14
 592 33 592 33 710.5 139 c 128,-1,15
 829 245 829 245 856 422 c 2,16,-1
 1011 1456 l 1,0,-1
EndSplineSet
Validated: 33
Substitution2: "'smcp' Lowercase to Small Capitals lookup 0 subtable" J.smcp
EndChar

StartChar: K
Encoding: 75 75 46
Width: 1174
GlyphClass: 1
Flags: W
LayerCount: 2
Fore
SplineSet
473 721 m 1,0,-1
 263 721 l 1,1,-1
 155 0 l 1,2,-1
 101 0 l 1,3,-1
 319 1456 l 1,4,-1
 373 1456 l 1,5,-1
 271 774 l 1,6,-1
 483 774 l 1,7,-1
 1165 1456 l 1,8,-1
 1233 1456 l 1,9,-1
 1235 1450 l 1,10,-1
 527 740 l 1,11,-1
 1058 0 l 1,12,-1
 990 0 l 1,13,-1
 473 721 l 1,0,-1
EndSplineSet
Validated: 1
Substitution2: "'smcp' Lowercase to Small Capitals lookup 0 subtable" K.smcp
EndChar

StartChar: L
Encoding: 76 76 47
Width: 1130
GlyphClass: 1
Flags: W
LayerCount: 2
Fore
SplineSet
183 54 m 1,0,-1
 970 54 l 1,1,-1
 962 0 l 1,2,-1
 120 0 l 1,3,-1
 338 1456 l 1,4,-1
 393 1456 l 1,5,-1
 183 54 l 1,0,-1
EndSplineSet
Validated: 1
Substitution2: "'smcp' Lowercase to Small Capitals lookup 0 subtable" L.smcp
EndChar

StartChar: M
Encoding: 77 77 48
Width: 1756
GlyphClass: 1
Flags: W
LayerCount: 2
Fore
SplineSet
814 86 m 1,0,-1
 820 85 l 1,1,-1
 1633 1456 l 1,2,-1
 1694 1456 l 1,3,-1
 1476 0 l 1,4,-1
 1422 0 l 1,5,-1
 1620 1322 l 1,6,-1
 1614 1324 l 1,7,-1
 826 0 l 1,8,-1
 783 0 l 1,9,-1
 382 1353 l 1,10,-1
 376 1352 l 1,11,-1
 174 0 l 1,12,-1
 120 0 l 1,13,-1
 338 1456 l 1,14,-1
 413 1456 l 1,15,-1
 814 86 l 1,0,-1
EndSplineSet
Validated: 1
Substitution2: "'smcp' Lowercase to Small Capitals lookup 0 subtable" M.smcp
EndChar

StartChar: N
Encoding: 78 78 49
Width: 1449
GlyphClass: 1
Flags: W
LayerCount: 2
Fore
SplineSet
1169 0 m 1,0,-1
 1115 0 l 1,1,-1
 384 1356 l 1,2,-1
 378 1355 l 1,3,-1
 175 0 l 1,4,-1
 120 0 l 1,5,-1
 338 1456 l 1,6,-1
 393 1456 l 1,7,-1
 1124 102 l 1,8,-1
 1130 103 l 1,9,-1
 1333 1456 l 1,10,-1
 1387 1456 l 1,11,-1
 1169 0 l 1,0,-1
EndSplineSet
Validated: 1
Substitution2: "'smcp' Lowercase to Small Capitals lookup 0 subtable" N.smcp
EndChar

StartChar: O
Encoding: 79 79 50
Width: 1364
GlyphClass: 1
Flags: W
LayerCount: 2
Fore
SplineSet
1244 619 m 2,0,1
 1198 313 1198 313 1028.5 146 c 128,-1,2
 859 -21 859 -21 600 -21 c 0,3,4
 353 -21 353 -21 227.5 153.5 c 128,-1,5
 102 328 102 328 146 619 c 2,6,-1
 179 837 l 2,7,8
 224 1142 224 1142 393.5 1309.5 c 128,-1,9
 563 1477 563 1477 823 1477 c 0,10,11
 1070 1477 1070 1477 1195 1302.5 c 128,-1,12
 1320 1128 1320 1128 1277 837 c 2,13,-1
 1244 619 l 2,0,1
1223 839 m 2,14,15
 1264 1118 1264 1118 1159.5 1270.5 c 128,-1,16
 1055 1423 1055 1423 814 1423 c 0,17,18
 586 1423 586 1423 430 1263.5 c 128,-1,19
 274 1104 274 1104 234 839 c 2,20,-1
 201 619 l 2,21,22
 158 338 158 338 263 185.5 c 128,-1,23
 368 33 368 33 608 33 c 0,24,25
 837 33 837 33 993 192.5 c 128,-1,26
 1149 352 1149 352 1190 619 c 2,27,-1
 1223 839 l 2,14,15
EndSplineSet
Validated: 33
Substitution2: "'smcp' Lowercase to Small Capitals lookup 0 subtable" O.smcp
EndChar

StartChar: P
Encoding: 80 80 51
Width: 1230
GlyphClass: 1
Flags: W
LayerCount: 2
Fore
SplineSet
267 625 m 1,0,-1
 174 0 l 1,1,-1
 120 0 l 1,2,-1
 338 1456 l 1,3,-1
 793 1456 l 2,4,5
 1011 1456 1011 1456 1120 1341 c 128,-1,6
 1229 1226 1229 1226 1201 1041 c 0,7,8
 1172 844 1172 844 1035 734.5 c 128,-1,9
 898 625 898 625 669 625 c 2,10,-1
 267 625 l 1,0,-1
275 679 m 1,11,-1
 677 679 l 2,12,13
 875 679 875 679 999.5 783 c 128,-1,14
 1124 887 1124 887 1147 1039 c 0,15,16
 1171 1202 1171 1202 1083 1302 c 128,-1,17
 995 1402 995 1402 785 1402 c 2,18,-1
 384 1402 l 1,19,-1
 275 679 l 1,11,-1
EndSplineSet
Validated: 33
Substitution2: "'smcp' Lowercase to Small Capitals lookup 0 subtable" P.smcp
EndChar

StartChar: Q
Encoding: 81 81 52
Width: 1364
GlyphClass: 1
Flags: W
LayerCount: 2
Fore
SplineSet
1244 619 m 2,0,1
 1220 463 1220 463 1163.5 341.5 c 128,-1,2
 1107 220 1107 220 1021 138 c 1,3,-1
 1228 -98 l 1,4,-1
 1184 -133 l 1,5,-1
 976 100 l 1,6,7
 899 40 899 40 804 9.5 c 128,-1,8
 709 -21 709 -21 600 -21 c 0,9,10
 353 -21 353 -21 227.5 153.5 c 128,-1,11
 102 328 102 328 146 619 c 2,12,-1
 179 837 l 2,13,14
 224 1142 224 1142 393.5 1309.5 c 128,-1,15
 563 1477 563 1477 823 1477 c 0,16,17
 1070 1477 1070 1477 1195 1302.5 c 128,-1,18
 1320 1128 1320 1128 1277 837 c 2,19,-1
 1244 619 l 2,0,1
1223 839 m 2,20,21
 1264 1118 1264 1118 1159.5 1270.5 c 128,-1,22
 1055 1423 1055 1423 814 1423 c 0,23,24
 586 1423 586 1423 430 1263.5 c 128,-1,25
 274 1104 274 1104 234 839 c 2,26,-1
 201 619 l 2,27,28
 158 338 158 338 263 185.5 c 128,-1,29
 368 33 368 33 608 33 c 0,30,31
 837 33 837 33 993 192.5 c 128,-1,32
 1149 352 1149 352 1190 619 c 2,33,-1
 1223 839 l 2,20,21
EndSplineSet
Validated: 33
Substitution2: "'smcp' Lowercase to Small Capitals lookup 0 subtable" Q.smcp
EndChar

StartChar: R
Encoding: 82 82 53
Width: 1364
GlyphClass: 1
Flags: W
LayerCount: 2
Fore
SplineSet
271 683 m 1,0,-1
 169 -1 l 1,1,-1
 115 -1 l 1,2,-1
 333 1455 l 1,3,-1
 807 1455 l 2,4,5
 1029 1455 1029 1455 1141.5 1354.5 c 128,-1,6
 1254 1254 1254 1254 1227 1065 c 0,7,8
 1207 937 1207 937 1114 838 c 128,-1,9
 1021 739 1021 739 878 711 c 1,10,11
 1026 683 1026 683 1084 594 c 128,-1,12
 1142 505 1142 505 1123 371 c 2,13,-1
 1102 234 l 2,14,15
 1091 164 1091 164 1100 111.5 c 128,-1,16
 1109 59 1109 59 1142 24 c 1,17,-1
 1138 -1 l 1,18,-1
 1085 -1 l 1,19,20
 1055 40 1055 40 1045.5 100.5 c 128,-1,21
 1036 161 1036 161 1048 236 c 2,22,-1
 1068 369 l 2,23,24
 1091 523 1091 523 1002.5 603 c 128,-1,25
 914 683 914 683 724 683 c 2,26,-1
 271 683 l 1,0,-1
279 737 m 1,27,-1
 690 737 l 2,28,29
 904 737 904 737 1028 832.5 c 128,-1,30
 1152 928 1152 928 1173 1065 c 0,31,32
 1198 1235 1198 1235 1105.5 1318 c 128,-1,33
 1013 1401 1013 1401 799 1401 c 2,34,-1
 379 1401 l 1,35,-1
 279 737 l 1,27,-1
EndSplineSet
Validated: 33
Substitution2: "'smcp' Lowercase to Small Capitals lookup 0 subtable" R.smcp
EndChar

StartChar: S
Encoding: 83 83 54
Width: 1224
GlyphClass: 1
Flags: W
LayerCount: 2
Fore
SplineSet
1055 303 m 0,0,1
 1077 451 1077 451 993 533 c 128,-1,2
 909 615 909 615 666 704 c 0,3,4
 429 788 429 788 324.5 879.5 c 128,-1,5
 220 971 220 971 248 1151 c 0,6,7
 270 1302 270 1302 402 1389.5 c 128,-1,8
 534 1477 534 1477 718 1477 c 0,9,10
 927 1477 927 1477 1047 1363 c 128,-1,11
 1167 1249 1167 1249 1133 1053 c 1,12,-1
 1130 1047 l 1,13,-1
 1084 1047 l 1,14,15
 1109 1216 1109 1216 1006 1319.5 c 128,-1,16
 903 1423 903 1423 709 1423 c 0,17,18
 550 1423 550 1423 434 1341.5 c 128,-1,19
 318 1260 318 1260 302 1153 c 0,20,21
 280 1008 280 1008 359.5 923.5 c 128,-1,22
 439 839 439 839 683 754 c 0,23,24
 914 674 914 674 1024.5 574.5 c 128,-1,25
 1135 475 1135 475 1110 305 c 0,26,27
 1086 150 1086 150 944.5 64.5 c 128,-1,28
 803 -21 803 -21 601 -21 c 256,29,30
 399 -21 399 -21 259 82.5 c 128,-1,31
 119 186 119 186 156 403 c 1,32,-1
 158 409 l 1,33,-1
 204 409 l 1,34,35
 173 204 173 204 298 118.5 c 128,-1,36
 423 33 423 33 609 33 c 0,37,38
 777 33 777 33 907.5 114 c 128,-1,39
 1038 195 1038 195 1055 303 c 0,0,1
EndSplineSet
Validated: 33
Substitution2: "'smcp' Lowercase to Small Capitals lookup 0 subtable" S.smcp
EndChar

StartChar: T
Encoding: 84 84 55
Width: 1224
GlyphClass: 1
Flags: W
LayerCount: 2
Fore
SplineSet
1297 1402 m 1,0,-1
 787 1402 l 1,1,-1
 577 0 l 1,2,-1
 523 0 l 1,3,-1
 733 1402 l 1,4,-1
 187 1402 l 1,5,-1
 195 1456 l 1,6,-1
 1305 1456 l 1,7,-1
 1297 1402 l 1,0,-1
EndSplineSet
Validated: 1
Substitution2: "'smcp' Lowercase to Small Capitals lookup 0 subtable" T.smcp
EndChar

StartChar: U
Encoding: 85 85 56
Width: 1365
GlyphClass: 1
Flags: W
LayerCount: 2
Fore
SplineSet
1318 1456 m 1,0,-1
 1173 489 l 2,1,2
 1136 240 1136 240 979 109.5 c 128,-1,3
 822 -21 822 -21 600 -21 c 0,4,5
 388 -21 388 -21 265 115.5 c 128,-1,6
 142 252 142 252 178 489 c 2,7,-1
 323 1456 l 1,8,-1
 377 1456 l 1,9,-1
 232 489 l 2,10,11
 199 274 199 274 305.5 153.5 c 128,-1,12
 412 33 412 33 608 33 c 0,13,14
 793 33 793 33 940.5 158.5 c 128,-1,15
 1088 284 1088 284 1119 489 c 2,16,-1
 1264 1456 l 1,17,-1
 1318 1456 l 1,0,-1
EndSplineSet
Validated: 33
Substitution2: "'smcp' Lowercase to Small Capitals lookup 0 subtable" U.smcp
EndChar

StartChar: V
Encoding: 86 86 57
Width: 1223
GlyphClass: 1
Flags: W
LayerCount: 2
Fore
SplineSet
524 142 m 1,0,-1
 538 64 l 1,1,-1
 544 63 l 1,2,-1
 582 142 l 1,3,-1
 1268 1456 l 1,4,-1
 1327 1456 l 1,5,-1
 565 0 l 1,6,-1
 499 0 l 1,7,-1
 173 1456 l 1,8,-1
 232 1456 l 1,9,-1
 524 142 l 1,0,-1
EndSplineSet
Validated: 1
Substitution2: "'smcp' Lowercase to Small Capitals lookup 0 subtable" V.smcp
EndChar

StartChar: W
Encoding: 87 87 58
Width: 1855
GlyphClass: 1
Flags: W
LayerCount: 2
Fore
SplineSet
394 340 m 1,0,-1
 422 105 l 1,1,-1
 428 104 l 1,2,-1
 526 340 l 1,3,-1
 1037 1456 l 1,4,-1
 1097 1456 l 1,5,-1
 1272 340 l 1,6,-1
 1299 105 l 1,7,-1
 1305 104 l 1,8,-1
 1405 340 l 1,9,-1
 1872 1456 l 1,10,-1
 1931 1456 l 1,11,-1
 1321 0 l 1,12,-1
 1260 0 l 1,13,-1
 1081 1214 l 1,14,-1
 1055 1358 l 1,15,-1
 1049 1359 l 1,16,-1
 981 1214 l 1,17,-1
 435 0 l 1,18,-1
 374 0 l 1,19,-1
 199 1456 l 1,20,-1
 259 1456 l 1,21,-1
 394 340 l 1,0,-1
EndSplineSet
Validated: 1
Substitution2: "'smcp' Lowercase to Small Capitals lookup 0 subtable" W.smcp
EndChar

StartChar: X
Encoding: 88 88 59
Width: 1223
GlyphClass: 1
Flags: W
LayerCount: 2
Fore
SplineSet
648 785 m 1,0,-1
 1219 1456 l 1,1,-1
 1279 1456 l 1,2,-1
 1281 1451 l 1,3,-1
 676 743 l 1,4,-1
 1089 0 l 1,5,-1
 1022 0 l 1,6,-1
 635 701 l 1,7,-1
 39 0 l 1,8,-1
 -20 0 l 1,9,-1
 -22 5 l 1,10,-1
 608 743 l 1,11,-1
 211 1456 l 1,12,-1
 279 1456 l 1,13,-1
 648 785 l 1,0,-1
EndSplineSet
Validated: 1
Substitution2: "'smcp' Lowercase to Small Capitals lookup 0 subtable" X.smcp
EndChar

StartChar: Y
Encoding: 89 89 60
Width: 1223
GlyphClass: 1
Flags: W
LayerCount: 2
Fore
SplineSet
600 647 m 1,0,-1
 619 597 l 1,1,-1
 653 647 l 1,2,-1
 1257 1456 l 1,3,-1
 1323 1456 l 1,4,-1
 641 554 l 1,5,-1
 558 0 l 1,6,-1
 503 0 l 1,7,-1
 586 553 l 1,8,-1
 174 1456 l 1,9,-1
 240 1456 l 1,10,-1
 600 647 l 1,0,-1
EndSplineSet
Validated: 1
Substitution2: "'smcp' Lowercase to Small Capitals lookup 0 subtable" Y.smcp
EndChar

StartChar: Z
Encoding: 90 90 61
Width: 1101
GlyphClass: 1
Flags: W
LayerCount: 2
Fore
SplineSet
84 54 m 1,0,-1
 981 54 l 1,1,-1
 973 0 l 1,2,-1
 7 0 l 1,3,-1
 9 44 l 1,4,-1
 1013 1403 l 1,5,-1
 195 1403 l 1,6,-1
 203 1456 l 1,7,-1
 1097 1456 l 1,8,-1
 1092 1418 l 1,9,-1
 84 54 l 1,0,-1
EndSplineSet
Validated: 1
Substitution2: "'smcp' Lowercase to Small Capitals lookup 0 subtable" Z.smcp
EndChar

StartChar: bracketleft
Encoding: 91 91 62
Width: 439
GlyphClass: 1
Flags: W
LayerCount: 2
Fore
SplineSet
614 1610 m 1,0,-1
 385 1610 l 1,1,-1
 124 -258 l 1,2,-1
 353 -258 l 1,3,-1
 345 -312 l 1,4,-1
 62 -312 l 1,5,-1
 339 1664 l 1,6,-1
 622 1664 l 1,7,-1
 614 1610 l 1,0,-1
EndSplineSet
Validated: 1
EndChar

StartChar: backslash
Encoding: 92 92 63
Width: 774
GlyphClass: 1
Flags: W
LayerCount: 2
Fore
SplineSet
195 1456 m 1,0,-1
 253 1456 l 1,1,-1
 624 -125 l 1,2,-1
 566 -125 l 1,3,-1
 195 1456 l 1,0,-1
EndSplineSet
Validated: 1
EndChar

StartChar: bracketright
Encoding: 93 93 64
Width: 439
GlyphClass: 1
Flags: W
LayerCount: 2
Fore
SplineSet
150 1664 m 1,0,-1
 433 1664 l 1,1,-1
 156 -312 l 1,2,-1
 -127 -312 l 1,3,-1
 -119 -258 l 1,4,-1
 109 -258 l 1,5,-1
 370 1610 l 1,6,-1
 142 1610 l 1,7,-1
 150 1664 l 1,0,-1
EndSplineSet
Validated: 1
EndChar

StartChar: asciicircum
Encoding: 94 94 65
Width: 849
GlyphClass: 1
Flags: W
LayerCount: 2
Fore
SplineSet
179 729 m 1,0,-1
 120 729 l 1,1,-1
 528 1456 l 1,2,-1
 580 1456 l 1,3,-1
 770 729 l 1,4,-1
 709 729 l 1,5,-1
 569 1272 l 1,6,-1
 546 1385 l 1,7,-1
 540 1386 l 1,8,-1
 480 1272 l 1,9,-1
 179 729 l 1,0,-1
EndSplineSet
Validated: 1
EndChar

StartChar: underscore
Encoding: 95 95 66
Width: 845
GlyphClass: 1
Flags: W
LayerCount: 2
Fore
SplineSet
757 -54 m 1,0,-1
 -89 -54 l 1,1,-1
 -81 0 l 1,2,-1
 765 0 l 1,3,-1
 757 -54 l 1,0,-1
EndSplineSet
Validated: 1
EndChar

StartChar: grave
Encoding: 96 96 67
Width: 537
GlyphClass: 1
Flags: W
LayerCount: 2
Fore
SplineSet
519 1252 m 1,0,-1
 437 1252 l 1,1,-1
 236 1518 l 1,2,-1
 332 1518 l 1,3,-1
 519 1252 l 1,0,-1
EndSplineSet
Validated: 1
EndChar

StartChar: a
Encoding: 97 97 68
Width: 1081
GlyphClass: 1
Flags: W
LayerCount: 2
Fore
SplineSet
800 199 m 1,0,1
 730 101 730 101 610 40 c 128,-1,2
 490 -21 490 -21 332 -21 c 0,3,4
 187 -21 187 -21 110.5 62.5 c 128,-1,5
 34 146 34 146 55 284 c 0,6,7
 75 425 75 425 216.5 514.5 c 128,-1,8
 358 604 358 604 553 604 c 2,9,-1
 861 604 l 1,10,-1
 885 762 l 2,11,12
 906 902 906 902 831.5 975 c 128,-1,13
 757 1048 757 1048 598 1048 c 0,14,15
 457 1048 457 1048 354 976.5 c 128,-1,16
 251 905 251 905 234 794 c 1,17,-1
 189 796 l 1,18,-1
 188 801 l 1,19,20
 202 931 202 931 317.5 1016.5 c 128,-1,21
 433 1102 433 1102 606 1102 c 0,22,23
 774 1102 774 1102 868.5 1013 c 128,-1,24
 963 924 963 924 939 760 c 2,25,-1
 858 218 l 2,26,27
 849 159 849 159 847 106 c 128,-1,28
 845 53 845 53 853 0 c 1,29,-1
 793 0 l 1,30,31
 791 84 791 84 791.5 113 c 128,-1,32
 792 142 792 142 798 183 c 2,33,-1
 800 199 l 1,0,1
340 32 m 0,34,35
 495 32 495 32 619.5 103.5 c 128,-1,36
 744 175 744 175 816 305 c 1,37,-1
 853 549 l 1,38,-1
 547 549 l 2,39,40
 385 549 385 549 254.5 471 c 128,-1,41
 124 393 124 393 108 280 c 0,42,43
 91 167 91 167 154 99.5 c 128,-1,44
 217 32 217 32 340 32 c 0,34,35
EndSplineSet
Validated: 33
Substitution2: "'smcp' Lowercase to Small Capitals lookup 0 subtable" A.smcp
EndChar

StartChar: b
Encoding: 98 98 69
Width: 1121
GlyphClass: 1
Flags: W
LayerCount: 2
Fore
SplineSet
997 521 m 2,0,1
 958 262 958 262 830 120.5 c 128,-1,2
 702 -21 702 -21 510 -21 c 0,3,4
 388 -21 388 -21 300 31 c 128,-1,5
 212 83 212 83 170 170 c 1,6,-1
 137 0 l 1,7,-1
 92 0 l 1,8,-1
 136 297 l 1,9,-1
 136 304 l 1,10,-1
 202 745 l 1,11,-1
 204 752 l 1,12,-1
 326 1560 l 1,13,-1
 380 1560 l 1,14,-1
 280 893 l 1,15,16
 349 990 349 990 449.5 1046 c 128,-1,17
 550 1102 550 1102 676 1102 c 0,18,19
 859 1102 859 1102 948.5 949 c 128,-1,20
 1038 796 1038 796 1000 542 c 2,21,-1
 997 521 l 2,0,1
944 542 m 2,22,23
 978 775 978 775 910 911.5 c 128,-1,24
 842 1048 842 1048 669 1048 c 0,25,26
 522 1048 522 1048 421.5 970 c 128,-1,27
 321 892 321 892 263 780 c 1,28,-1
 186 262 l 1,29,30
 212 157 212 157 295.5 95 c 128,-1,31
 379 33 379 33 519 33 c 0,32,33
 683 33 683 33 795.5 166.5 c 128,-1,34
 908 300 908 300 941 521 c 2,35,-1
 944 542 l 2,22,23
EndSplineSet
Validated: 33
Substitution2: "'smcp' Lowercase to Small Capitals lookup 0 subtable" B.smcp
EndChar

StartChar: c
Encoding: 99 99 70
Width: 1039
GlyphClass: 1
Flags: W
LayerCount: 2
Fore
SplineSet
464 33 m 0,0,1
 597 33 597 33 715 108 c 128,-1,2
 833 183 833 183 856 333 c 1,3,-1
 901 333 l 1,4,-1
 903 327 l 1,5,6
 882 161 882 161 749.5 70 c 128,-1,7
 617 -21 617 -21 456 -21 c 0,8,9
 257 -21 257 -21 157.5 129.5 c 128,-1,10
 58 280 58 280 95 520 c 2,11,-1
 101 562 l 2,12,13
 138 813 138 813 276 957.5 c 128,-1,14
 414 1102 414 1102 622 1102 c 0,15,16
 785 1102 785 1102 889.5 1002.5 c 128,-1,17
 994 903 994 903 963 725 c 1,18,-1
 961 720 l 1,19,-1
 914 720 l 1,20,21
 938 885 938 885 849.5 966.5 c 128,-1,22
 761 1048 761 1048 614 1048 c 0,23,24
 431 1048 431 1048 309 910 c 128,-1,25
 187 772 187 772 155 562 c 2,26,-1
 149 520 l 2,27,28
 115 296 115 296 192.5 164.5 c 128,-1,29
 270 33 270 33 464 33 c 0,0,1
EndSplineSet
Validated: 33
Substitution2: "'smcp' Lowercase to Small Capitals lookup 0 subtable" C.smcp
EndChar

StartChar: d
Encoding: 100 100 71
Width: 1121
GlyphClass: 1
Flags: W
LayerCount: 2
Fore
SplineSet
123 542 m 2,0,1
 163 809 163 809 292 955.5 c 128,-1,2
 421 1102 421 1102 615 1102 c 0,3,4
 736 1102 736 1102 821.5 1044 c 128,-1,5
 907 986 907 986 949 887 c 1,6,-1
 1050 1560 l 1,7,-1
 1104 1560 l 1,8,-1
 982 750 l 2,9,10
 982 748 982 748 982.5 746.5 c 128,-1,11
 983 745 983 745 983 745 c 1,12,-1
 917 304 l 1,13,-1
 914 297 l 1,14,-1
 870 0 l 1,15,-1
 818 0 l 1,16,-1
 842 167 l 1,17,18
 774 81 774 81 672.5 30 c 128,-1,19
 571 -21 571 -21 445 -21 c 0,20,21
 262 -21 262 -21 172.5 126.5 c 128,-1,22
 83 274 83 274 120 521 c 2,23,-1
 123 542 l 2,0,1
176 521 m 2,24,25
 141 289 141 289 209.5 161 c 128,-1,26
 278 33 278 33 452 33 c 0,27,28
 588 33 588 33 693.5 98 c 128,-1,29
 799 163 799 163 857 269 c 1,30,-1
 933 776 l 1,31,32
 911 891 911 891 836 969.5 c 128,-1,33
 761 1048 761 1048 606 1048 c 0,34,35
 441 1048 441 1048 326.5 906 c 128,-1,36
 212 764 212 764 179 542 c 2,37,-1
 176 521 l 2,24,25
EndSplineSet
Validated: 33
Substitution2: "'smcp' Lowercase to Small Capitals lookup 0 subtable" D.smcp
EndChar

StartChar: e
Encoding: 101 101 72
Width: 1039
GlyphClass: 1
Flags: W
LayerCount: 2
Fore
SplineSet
468 -21 m 0,0,1
 285 -21 285 -21 171.5 128.5 c 128,-1,2
 58 278 58 278 92 500 c 2,3,-1
 102 564 l 2,4,5
 138 808 138 808 289.5 955 c 128,-1,6
 441 1102 441 1102 641 1102 c 0,7,8
 815 1102 815 1102 907 982 c 128,-1,9
 999 862 999 862 969 660 c 2,10,-1
 957 577 l 1,11,-1
 158 577 l 1,12,13
 158 574 158 574 157 569.5 c 128,-1,14
 156 565 156 565 156 564 c 2,15,-1
 146 500 l 2,16,17
 115 295 115 295 206.5 164 c 128,-1,18
 298 33 298 33 476 33 c 0,19,20
 569 33 569 33 666.5 69 c 128,-1,21
 764 105 764 105 828 165 c 1,22,-1
 850 123 l 1,23,24
 785 60 785 60 688.5 19.5 c 128,-1,25
 592 -21 592 -21 468 -21 c 0,0,1
633 1048 m 0,26,27
 472 1048 472 1048 344.5 930 c 128,-1,28
 217 812 217 812 175 637 c 1,29,-1
 177 631 l 1,30,-1
 911 631 l 1,31,-1
 916 664 l 2,32,33
 941 838 941 838 867 943 c 128,-1,34
 793 1048 793 1048 633 1048 c 0,26,27
EndSplineSet
Validated: 33
Substitution2: "'smcp' Lowercase to Small Capitals lookup 0 subtable" E.smcp
EndChar

StartChar: f
Encoding: 102 102 73
Width: 645
GlyphClass: 1
Flags: W
LayerCount: 2
Fore
SplineSet
174 0 m 1,0,-1
 328 1027 l 1,1,-1
 140 1027 l 1,2,-1
 148 1082 l 1,3,-1
 336 1082 l 1,4,-1
 363 1260 l 2,5,6
 387 1419 387 1419 473 1500 c 128,-1,7
 559 1581 559 1581 694 1581 c 0,8,9
 726 1581 726 1581 759 1577 c 128,-1,10
 792 1573 792 1573 820 1564 c 1,11,-1
 804 1512 l 1,12,13
 773 1520 773 1520 749 1523.5 c 128,-1,14
 725 1527 725 1527 687 1527 c 0,15,16
 583 1527 583 1527 509 1455.5 c 128,-1,17
 435 1384 435 1384 417 1260 c 2,18,-1
 390 1082 l 1,19,-1
 676 1082 l 1,20,-1
 668 1027 l 1,21,-1
 382 1027 l 1,22,-1
 228 0 l 1,23,-1
 174 0 l 1,0,-1
EndSplineSet
Validated: 1
Substitution2: "'smcp' Lowercase to Small Capitals lookup 0 subtable" F.smcp
EndChar

StartChar: g
Encoding: 103 103 74
Width: 1121
GlyphClass: 1
Flags: W
LayerCount: 2
Fore
SplineSet
123 542 m 2,0,1
 163 809 163 809 292 955.5 c 128,-1,2
 421 1102 421 1102 615 1102 c 0,3,4
 736 1102 736 1102 821.5 1044 c 128,-1,5
 907 986 907 986 949 886 c 1,6,-1
 986 1082 l 1,7,-1
 1032 1082 l 1,8,-1
 982 750 l 2,9,10
 982 749 982 749 982.5 747.5 c 128,-1,11
 983 746 983 746 983 745 c 2,12,-1
 917 304 l 1,13,-1
 914 296 l 1,14,-1
 869 -6 l 2,15,16
 836 -220 836 -220 713 -328.5 c 128,-1,17
 590 -437 590 -437 395 -437 c 0,18,19
 319 -437 319 -437 234.5 -420.5 c 128,-1,20
 150 -404 150 -404 91 -375 c 1,21,-1
 115 -321 l 1,22,23
 184 -353 184 -353 249 -368.5 c 128,-1,24
 314 -384 314 -384 401 -384 c 0,25,26
 569 -384 569 -384 678 -285 c 128,-1,27
 787 -186 787 -186 814 -6 c 2,28,-1
 839 165 l 1,29,30
 771 80 771 80 670 29.5 c 128,-1,31
 569 -21 569 -21 445 -21 c 0,32,33
 262 -21 262 -21 172.5 126.5 c 128,-1,34
 83 274 83 274 120 521 c 2,35,-1
 123 542 l 2,0,1
175 521 m 2,36,37
 140 289 140 289 209 161 c 128,-1,38
 278 33 278 33 452 33 c 0,39,40
 586 33 586 33 691 96.5 c 128,-1,41
 796 160 796 160 854 265 c 1,42,-1
 932 779 l 1,43,44
 910 893 910 893 835 970.5 c 128,-1,45
 760 1048 760 1048 606 1048 c 0,46,47
 441 1048 441 1048 326 906 c 128,-1,48
 211 764 211 764 178 542 c 2,49,-1
 175 521 l 2,36,37
EndSplineSet
Validated: 33
Substitution2: "'smcp' Lowercase to Small Capitals lookup 0 subtable" G.smcp
EndChar

StartChar: h
Encoding: 104 104 75
Width: 1121
GlyphClass: 1
Flags: W
LayerCount: 2
Fore
SplineSet
275 863 m 1,0,1
 343 979 343 979 448.5 1040.5 c 128,-1,2
 554 1102 554 1102 695 1102 c 0,3,4
 858 1102 858 1102 932.5 993.5 c 128,-1,5
 1007 885 1007 885 973 658 c 2,6,-1
 874 0 l 1,7,-1
 819 0 l 1,8,-1
 918 660 l 2,9,10
 951 882 951 882 886.5 965 c 128,-1,11
 822 1048 822 1048 688 1048 c 0,12,13
 522 1048 522 1048 410.5 944 c 128,-1,14
 299 840 299 840 248 681 c 1,15,-1
 146 0 l 1,16,-1
 92 0 l 1,17,-1
 175 554 l 1,18,-1
 173 554 l 1,19,20
 175 570 175 570 178 586.5 c 128,-1,21
 181 603 181 603 185 619 c 2,22,-1
 326 1560 l 1,23,-1
 380 1560 l 1,24,-1
 275 863 l 1,0,1
EndSplineSet
Validated: 33
Substitution2: "'smcp' Lowercase to Small Capitals lookup 0 subtable" H.smcp
EndChar

StartChar: i
Encoding: 105 105 76
Width: 422
GlyphClass: 1
Flags: W
LayerCount: 2
Fore
SplineSet
159 0 m 1,0,-1
 105 0 l 1,1,-1
 267 1082 l 1,2,-1
 321 1082 l 1,3,-1
 159 0 l 1,0,-1
372 1422 m 1,4,-1
 318 1422 l 1,5,-1
 339 1560 l 1,6,-1
 393 1560 l 1,7,-1
 372 1422 l 1,4,-1
EndSplineSet
Validated: 1
Substitution2: "'smcp' Lowercase to Small Capitals lookup 0 subtable" I.smcp
EndChar

StartChar: j
Encoding: 106 106 77
Width: 445
GlyphClass: 1
Flags: W
LayerCount: 2
Fore
SplineSet
322 1082 m 1,0,-1
 147 -89 l 2,1,2
 120 -262 120 -262 33 -349.5 c 128,-1,3
 -54 -437 -54 -437 -191 -437 c 0,4,5
 -219 -437 -219 -437 -245 -432 c 128,-1,6
 -271 -427 -271 -427 -300 -417 c 1,7,-1
 -279 -365 l 1,8,9
 -261 -371 -261 -371 -234 -377 c 128,-1,10
 -207 -383 -207 -383 -182 -383 c 0,11,12
 -75 -383 -75 -383 -1.5 -305 c 128,-1,13
 72 -227 72 -227 93 -89 c 2,14,-1
 268 1082 l 1,15,-1
 322 1082 l 1,0,-1
368 1426 m 1,16,-1
 314 1426 l 1,17,-1
 334 1560 l 1,18,-1
 388 1560 l 1,19,-1
 368 1426 l 1,16,-1
EndSplineSet
Validated: 1
Substitution2: "'smcp' Lowercase to Small Capitals lookup 0 subtable" J.smcp
EndChar

StartChar: k
Encoding: 107 107 78
Width: 969
GlyphClass: 1
Flags: W
LayerCount: 2
Fore
SplineSet
377 553 m 1,0,-1
 229 553 l 1,1,-1
 146 0 l 1,2,-1
 92 0 l 1,3,-1
 326 1560 l 1,4,-1
 380 1560 l 1,5,-1
 237 607 l 1,6,-1
 364 607 l 1,7,-1
 927 1082 l 1,8,-1
 989 1082 l 1,9,-1
 991 1076 l 1,10,-1
 422 589 l 1,11,-1
 873 0 l 1,12,-1
 803 0 l 1,13,-1
 377 553 l 1,0,-1
EndSplineSet
Validated: 1
Substitution2: "'smcp' Lowercase to Small Capitals lookup 0 subtable" K.smcp
EndChar

StartChar: l
Encoding: 108 108 79
Width: 422
GlyphClass: 1
Flags: W
LayerCount: 2
Fore
SplineSet
159 0 m 1,0,-1
 105 0 l 1,1,-1
 339 1560 l 1,2,-1
 393 1560 l 1,3,-1
 159 0 l 1,0,-1
EndSplineSet
Validated: 1
Substitution2: "'smcp' Lowercase to Small Capitals lookup 0 subtable" L.smcp
EndChar

StartChar: m
Encoding: 109 109 80
Width: 1836
GlyphClass: 1
Flags: W
LayerCount: 2
Fore
SplineSet
268 871 m 1,0,1
 334 983 334 983 433.5 1042.5 c 128,-1,2
 533 1102 533 1102 665 1102 c 256,3,4
 797 1102 797 1102 875 1032.5 c 128,-1,5
 953 963 953 963 967 819 c 1,6,7
 1031 956 1031 956 1138.5 1029.5 c 128,-1,8
 1246 1103 1246 1103 1393 1103 c 0,9,10
 1566 1103 1566 1103 1644 984.5 c 128,-1,11
 1722 866 1722 866 1686 618 c 2,12,-1
 1593 1 l 1,13,-1
 1538 1 l 1,14,-1
 1631 620 l 2,15,16
 1667 865 1667 865 1598.5 957 c 128,-1,17
 1530 1049 1530 1049 1387 1049 c 0,18,19
 1226 1049 1226 1049 1121.5 948 c 128,-1,20
 1017 847 1017 847 967 690 c 0,21,22
 965 672 965 672 963 653 c 128,-1,23
 961 634 961 634 958 615 c 2,24,-1
 866 0 l 1,25,-1
 811 0 l 1,26,-1
 894 554 l 1,27,-1
 891 554 l 1,28,29
 894 575 894 575 897.5 595 c 128,-1,30
 901 615 901 615 906 635 c 0,31,32
 937 872 937 872 869 960 c 128,-1,33
 801 1048 801 1048 659 1048 c 0,34,35
 499 1048 499 1048 396 949.5 c 128,-1,36
 293 851 293 851 243 697 c 1,37,-1
 138 0 l 1,38,-1
 83 0 l 1,39,-1
 166 554 l 1,40,-1
 164 554 l 1,41,42
 166 569 166 569 168.5 584.5 c 128,-1,43
 171 600 171 600 175 619 c 2,44,-1
 245 1082 l 1,45,-1
 292 1082 l 1,46,-1
 268 871 l 1,0,1
EndSplineSet
Validated: 33
Substitution2: "'smcp' Lowercase to Small Capitals lookup 0 subtable" M.smcp
EndChar

StartChar: n
Encoding: 110 110 81
Width: 1121
GlyphClass: 1
Flags: W
LayerCount: 2
Fore
SplineSet
276 871 m 1,0,1
 342 983 342 983 444.5 1042.5 c 128,-1,2
 547 1102 547 1102 685 1102 c 0,3,4
 855 1102 855 1102 930 989 c 128,-1,5
 1005 876 1005 876 970 637 c 2,6,-1
 874 0 l 1,7,-1
 820 0 l 1,8,-1
 916 639 l 2,9,10
 951 873 951 873 885.5 960.5 c 128,-1,11
 820 1048 820 1048 678 1048 c 0,12,13
 514 1048 514 1048 407 946 c 128,-1,14
 300 844 300 844 249 687 c 1,15,-1
 146 0 l 1,16,-1
 92 0 l 1,17,-1
 175 554 l 1,18,-1
 172 554 l 1,19,20
 175 574 175 574 178.5 594 c 128,-1,21
 182 614 182 614 187 633 c 2,22,-1
 254 1082 l 1,23,-1
 300 1082 l 1,24,-1
 276 871 l 1,0,1
EndSplineSet
Validated: 33
Substitution2: "'smcp' Lowercase to Small Capitals lookup 0 subtable" N.smcp
EndChar

StartChar: o
Encoding: 111 111 82
Width: 1121
GlyphClass: 1
Flags: W
LayerCount: 2
Fore
SplineSet
91 562 m 2,0,1
 128 809 128 809 280 955.5 c 128,-1,2
 432 1102 432 1102 645 1102 c 0,3,4
 848 1102 848 1102 960.5 949.5 c 128,-1,5
 1073 797 1073 797 1038 562 c 2,6,-1
 1032 520 l 2,7,8
 994 272 994 272 842.5 125.5 c 128,-1,9
 691 -21 691 -21 479 -21 c 0,10,11
 276 -21 276 -21 162.5 131.5 c 128,-1,12
 49 284 49 284 85 520 c 2,13,-1
 91 562 l 2,0,1
139 520 m 2,14,15
 107 309 107 309 199.5 171 c 128,-1,16
 292 33 292 33 487 33 c 0,17,18
 669 33 669 33 808 176 c 128,-1,19
 947 319 947 319 978 520 c 2,20,-1
 984 562 l 2,21,22
 1015 768 1015 768 922 908 c 128,-1,23
 829 1048 829 1048 637 1048 c 0,24,25
 454 1048 454 1048 314 903 c 128,-1,26
 174 758 174 758 145 562 c 2,27,-1
 139 520 l 2,14,15
EndSplineSet
Validated: 33
Substitution2: "'smcp' Lowercase to Small Capitals lookup 0 subtable" O.smcp
EndChar

StartChar: p
Encoding: 112 112 83
Width: 1121
GlyphClass: 1
Flags: W
LayerCount: 2
Fore
SplineSet
997 521 m 2,0,1
 958 262 958 262 830 120.5 c 128,-1,2
 702 -21 702 -21 510 -21 c 0,3,4
 388 -21 388 -21 301 30.5 c 128,-1,5
 214 82 214 82 171 168 c 1,6,-1
 84 -416 l 1,7,-1
 30 -416 l 1,8,-1
 136 297 l 1,9,-1
 136 305 l 1,10,-1
 202 745 l 1,11,-1
 204 751 l 1,12,-1
 254 1082 l 1,13,-1
 296 1082 l 1,14,-1
 278 890 l 1,15,16
 347 989 347 989 448 1045.5 c 128,-1,17
 549 1102 549 1102 676 1102 c 0,18,19
 859 1102 859 1102 948.5 949 c 128,-1,20
 1038 796 1038 796 1000 542 c 2,21,-1
 997 521 l 2,0,1
945 542 m 2,22,23
 979 775 979 775 910.5 911.5 c 128,-1,24
 842 1048 842 1048 669 1048 c 0,25,26
 521 1048 521 1048 420.5 970 c 128,-1,27
 320 892 320 892 263 779 c 1,28,-1
 186 264 l 1,29,30
 211 158 211 158 294.5 95.5 c 128,-1,31
 378 33 378 33 519 33 c 0,32,33
 683 33 683 33 796 166.5 c 128,-1,34
 909 300 909 300 942 521 c 2,35,-1
 945 542 l 2,22,23
EndSplineSet
Validated: 33
Substitution2: "'smcp' Lowercase to Small Capitals lookup 0 subtable" P.smcp
EndChar

StartChar: q
Encoding: 113 113 84
Width: 1121
GlyphClass: 1
Flags: W
LayerCount: 2
Fore
SplineSet
123 542 m 2,0,1
 163 809 163 809 292 955.5 c 128,-1,2
 421 1102 421 1102 615 1102 c 0,3,4
 736 1102 736 1102 821.5 1044.5 c 128,-1,5
 907 987 907 987 949 888 c 1,6,-1
 983 1082 l 1,7,-1
 1032 1082 l 1,8,-1
 982 751 l 2,9,10
 982 750 982 750 982.5 748 c 128,-1,11
 983 746 983 746 983 745 c 2,12,-1
 917 304 l 1,13,-1
 914 297 l 1,14,-1
 808 -416 l 1,15,-1
 754 -416 l 1,16,-1
 841 166 l 1,17,18
 773 80 773 80 671.5 29.5 c 128,-1,19
 570 -21 570 -21 445 -21 c 0,20,21
 262 -21 262 -21 172.5 126.5 c 128,-1,22
 83 274 83 274 120 521 c 2,23,-1
 123 542 l 2,0,1
176 521 m 2,24,25
 141 289 141 289 209.5 161 c 128,-1,26
 278 33 278 33 452 33 c 0,27,28
 587 33 587 33 692 97.5 c 128,-1,29
 797 162 797 162 856 268 c 1,30,-1
 932 778 l 1,31,32
 910 892 910 892 835 970 c 128,-1,33
 760 1048 760 1048 606 1048 c 0,34,35
 441 1048 441 1048 326.5 906 c 128,-1,36
 212 764 212 764 179 542 c 2,37,-1
 176 521 l 2,24,25
EndSplineSet
Validated: 33
Substitution2: "'smcp' Lowercase to Small Capitals lookup 0 subtable" Q.smcp
EndChar

StartChar: r
Encoding: 114 114 85
Width: 685
GlyphClass: 1
Flags: W
LayerCount: 2
Fore
SplineSet
725 1043 m 1,0,-1
 656 1049 l 1,1,2
 516 1049 516 1049 409 952.5 c 128,-1,3
 302 856 302 856 251 702 c 1,4,-1
 146 0 l 1,5,-1
 92 0 l 1,6,-1
 254 1082 l 1,7,-1
 298 1082 l 1,8,-1
 280 894 l 1,9,-1
 276 870 l 1,10,-1
 281 867 l 1,11,12
 339 979 339 979 436 1040.5 c 128,-1,13
 533 1102 533 1102 664 1102 c 0,14,15
 686 1102 686 1102 706 1098.5 c 128,-1,16
 726 1095 726 1095 739 1091 c 1,17,-1
 725 1043 l 1,0,-1
EndSplineSet
Validated: 1
Substitution2: "'smcp' Lowercase to Small Capitals lookup 0 subtable" R.smcp
EndChar

StartChar: s
Encoding: 115 115 86
Width: 1019
GlyphClass: 1
Flags: W
LayerCount: 2
Fore
SplineSet
797 265 m 0,0,1
 809 353 809 353 746 422 c 128,-1,2
 683 491 683 491 504 532 c 0,3,4
 317 573 317 573 239.5 637.5 c 128,-1,5
 162 702 162 702 180 829 c 0,6,7
 196 950 196 950 304.5 1026 c 128,-1,8
 413 1102 413 1102 580 1102 c 0,9,10
 752 1102 752 1102 846.5 1017 c 128,-1,11
 941 932 941 932 918 799 c 1,12,-1
 916 793 l 1,13,-1
 869 793 l 1,14,15
 884 903 884 903 806 975.5 c 128,-1,16
 728 1048 728 1048 573 1048 c 0,17,18
 427 1048 427 1048 336 981.5 c 128,-1,19
 245 915 245 915 234 831 c 0,20,21
 222 743 222 743 279.5 684.5 c 128,-1,22
 337 626 337 626 527 581 c 0,23,24
 703 539 703 539 786 466 c 128,-1,25
 869 393 869 393 851 264 c 0,26,27
 832 132 832 132 718.5 55.5 c 128,-1,28
 605 -21 605 -21 431 -21 c 0,29,30
 249 -21 249 -21 150 64.5 c 128,-1,31
 51 150 51 150 75 269 c 1,32,-1
 77 275 l 1,33,-1
 122 275 l 1,34,35
 112 147 112 147 206 90 c 128,-1,36
 300 33 300 33 439 33 c 0,37,38
 583 33 583 33 683.5 103.5 c 128,-1,39
 784 174 784 174 797 265 c 0,0,1
EndSplineSet
Validated: 33
Substitution2: "'smcp' Lowercase to Small Capitals lookup 0 subtable" S.smcp
EndChar

StartChar: t
Encoding: 116 116 87
Width: 633
GlyphClass: 1
Flags: W
LayerCount: 2
Fore
SplineSet
410 1374 m 1,0,-1
 366 1082 l 1,1,-1
 632 1082 l 1,2,-1
 624 1027 l 1,3,-1
 358 1027 l 1,4,-1
 246 279 l 2,5,6
 225 141 225 141 261.5 87 c 128,-1,7
 298 33 298 33 373 33 c 0,8,9
 399 33 399 33 422 35 c 128,-1,10
 445 37 445 37 480 42 c 1,11,-1
 483 -7 l 1,12,13
 456 -15 456 -15 429 -18 c 128,-1,14
 402 -21 402 -21 368 -21 c 0,15,16
 263 -21 263 -21 215 51 c 128,-1,17
 167 123 167 123 191 279 c 2,18,-1
 303 1027 l 1,19,-1
 103 1027 l 1,20,-1
 111 1082 l 1,21,-1
 311 1082 l 1,22,-1
 355 1374 l 1,23,-1
 410 1374 l 1,0,-1
EndSplineSet
Validated: 33
Substitution2: "'smcp' Lowercase to Small Capitals lookup 0 subtable" T.smcp
EndChar

StartChar: u
Encoding: 117 117 88
Width: 1121
GlyphClass: 1
Flags: W
LayerCount: 2
Fore
SplineSet
825 0 m 1,0,-1
 845 185 l 1,1,2
 779 85 779 85 677.5 32 c 128,-1,3
 576 -21 576 -21 441 -21 c 0,4,5
 280 -21 280 -21 200 99 c 128,-1,6
 120 219 120 219 158 465 c 2,7,-1
 250 1082 l 1,8,-1
 304 1082 l 1,9,-1
 211 463 l 2,10,11
 176 234 176 234 241 133.5 c 128,-1,12
 306 33 306 33 447 33 c 0,13,14
 608 33 608 33 713 116.5 c 128,-1,15
 818 200 818 200 865 335 c 1,16,-1
 977 1082 l 1,17,-1
 1032 1082 l 1,18,-1
 936 445 l 1,19,-1
 939 445 l 1,20,21
 942 461 942 461 936 427 c 128,-1,22
 930 393 930 393 927 381 c 2,23,-1
 870 0 l 1,24,-1
 825 0 l 1,0,-1
EndSplineSet
Validated: 33
Substitution2: "'smcp' Lowercase to Small Capitals lookup 0 subtable" U.smcp
EndChar

StartChar: v
Encoding: 118 118 89
Width: 978
GlyphClass: 1
Flags: W
LayerCount: 2
Fore
SplineSet
389 229 m 1,0,-1
 418 83 l 1,1,-1
 424 82 l 1,2,-1
 498 229 l 1,3,-1
 959 1082 l 1,4,-1
 1017 1082 l 1,5,-1
 434 1 l 1,6,-1
 435 0 l 1,7,-1
 383 0 l 1,8,-1
 125 1082 l 1,9,-1
 183 1082 l 1,10,-1
 389 229 l 1,0,-1
EndSplineSet
Validated: 1
Substitution2: "'smcp' Lowercase to Small Capitals lookup 0 subtable" V.smcp
EndChar

StartChar: w
Encoding: 119 119 90
Width: 1550
GlyphClass: 1
Flags: W
LayerCount: 2
Fore
SplineSet
333 313 m 1,0,-1
 356 91 l 1,1,-1
 362 90 l 1,2,-1
 466 313 l 1,3,-1
 824 1082 l 1,4,-1
 879 1082 l 1,5,-1
 1006 313 l 1,6,-1
 1042 91 l 1,7,-1
 1048 90 l 1,8,-1
 1140 313 l 1,9,-1
 1475 1082 l 1,10,-1
 1538 1082 l 1,11,-1
 1061 0 l 1,12,-1
 1007 0 l 1,13,-1
 858 813 l 1,14,-1
 838 980 l 1,15,-1
 832 981 l 1,16,-1
 760 813 l 1,17,-1
 371 0 l 1,18,-1
 317 0 l 1,19,-1
 165 1082 l 1,20,-1
 227 1082 l 1,21,-1
 333 313 l 1,0,-1
EndSplineSet
Validated: 1
Substitution2: "'smcp' Lowercase to Small Capitals lookup 0 subtable" W.smcp
EndChar

StartChar: x
Encoding: 120 120 91
Width: 978
GlyphClass: 1
Flags: W
LayerCount: 2
Fore
SplineSet
499 602 m 1,0,-1
 916 1082 l 1,1,-1
 977 1082 l 1,2,-1
 979 1077 l 1,3,-1
 525 555 l 1,4,-1
 842 0 l 1,5,-1
 775 0 l 1,6,-1
 484 508 l 1,7,-1
 42 0 l 1,8,-1
 -18 0 l 1,9,-1
 -20 5 l 1,10,-1
 458 555 l 1,11,-1
 157 1082 l 1,12,-1
 225 1082 l 1,13,-1
 499 602 l 1,0,-1
EndSplineSet
Validated: 1
Substitution2: "'smcp' Lowercase to Small Capitals lookup 0 subtable" X.smcp
EndChar

StartChar: y
Encoding: 121 121 92
Width: 978
GlyphClass: 1
Flags: W
LayerCount: 2
Fore
SplineSet
407 196 m 1,0,-1
 431 88 l 1,1,-1
 437 88 l 1,2,-1
 446 104 l 1,3,-1
 966 1082 l 1,4,-1
 1026 1082 l 1,5,-1
 356 -180 l 2,6,7
 294 -294 294 -294 225 -365.5 c 128,-1,8
 156 -437 156 -437 28 -437 c 0,9,10
 10 -437 10 -437 -12.5 -433.5 c 128,-1,11
 -35 -430 -35 -430 -46 -426 c 1,12,-1
 -29 -375 l 1,13,14
 -18 -378 -18 -378 3 -381 c 128,-1,15
 24 -384 24 -384 36 -384 c 0,16,17
 124 -384 124 -384 186.5 -328.5 c 128,-1,18
 249 -273 249 -273 304 -170 c 2,19,-1
 395 6 l 1,20,-1
 125 1082 l 1,21,-1
 184 1082 l 1,22,-1
 407 196 l 1,0,-1
EndSplineSet
Validated: 1
Substitution2: "'smcp' Lowercase to Small Capitals lookup 0 subtable" Y.smcp
EndChar

StartChar: z
Encoding: 122 122 93
Width: 978
GlyphClass: 1
Flags: W
LayerCount: 2
Fore
SplineSet
93 59 m 1,0,-1
 95 54 l 1,1,-1
 858 54 l 1,2,-1
 850 0 l 1,3,-1
 7 0 l 1,4,-1
 14 44 l 1,5,-1
 867 1022 l 1,6,-1
 865 1027 l 1,7,-1
 192 1027 l 1,8,-1
 200 1082 l 1,9,-1
 953 1082 l 1,10,-1
 946 1034 l 1,11,-1
 93 59 l 1,0,-1
EndSplineSet
Validated: 1
Substitution2: "'smcp' Lowercase to Small Capitals lookup 0 subtable" Z.smcp
EndChar

StartChar: braceleft
Encoding: 123 123 94
Width: 660
GlyphClass: 1
Flags: W
LayerCount: 2
Fore
SplineSet
505 -441 m 1,0,1
 339 -386 339 -386 282.5 -268 c 128,-1,2
 226 -150 226 -150 251 20 c 2,3,-1
 285 265 l 2,4,5
 304 401 304 401 253.5 472 c 128,-1,6
 203 543 203 543 74 543 c 1,7,-1
 77 566 l 1,8,-1
 80 586 l 1,9,-1
 83 609 l 1,10,11
 206 609 206 609 279.5 682 c 128,-1,12
 353 755 353 755 372 885 c 2,13,-1
 406 1132 l 2,14,15
 430 1309 430 1309 518.5 1424.5 c 128,-1,16
 607 1540 607 1540 786 1592 c 1,17,-1
 792 1590 l 1,18,-1
 799 1552 l 1,19,20
 649 1506 649 1506 565 1396.5 c 128,-1,21
 481 1287 481 1287 460 1132 c 2,22,-1
 426 885 l 2,23,24
 408 760 408 760 345.5 679 c 128,-1,25
 283 598 283 598 171 575 c 1,26,27
 271 548 271 548 313 464.5 c 128,-1,28
 355 381 355 381 339 265 c 2,29,-1
 305 20 l 2,30,31
 282 -139 282 -139 337.5 -242 c 128,-1,32
 393 -345 393 -345 532 -395 c 1,33,-1
 505 -441 l 1,0,1
EndSplineSet
Validated: 33
EndChar

StartChar: bar
Encoding: 124 124 95
Width: 406
GlyphClass: 1
Flags: W
LayerCount: 2
Fore
SplineSet
115 -270 m 1,0,-1
 61 -270 l 1,1,-1
 319 1456 l 1,2,-1
 373 1456 l 1,3,-1
 115 -270 l 1,0,-1
EndSplineSet
Validated: 1
EndChar

StartChar: braceright
Encoding: 125 125 96
Width: 660
GlyphClass: 1
Flags: W
LayerCount: 2
Fore
SplineSet
-130 -395 m 1,0,1
 20 -346 20 -346 105 -240 c 128,-1,2
 190 -134 190 -134 212 20 c 2,3,-1
 246 265 l 2,4,5
 263 389 263 389 325.5 470.5 c 128,-1,6
 388 552 388 552 501 577 c 1,7,8
 400 603 400 603 358 685.5 c 128,-1,9
 316 768 316 768 333 885 c 2,10,-1
 367 1132 l 2,11,12
 390 1293 390 1293 337 1399 c 128,-1,13
 284 1505 284 1505 147 1552 c 1,14,-1
 168 1597 l 1,15,16
 333 1542 333 1542 389 1422.5 c 128,-1,17
 445 1303 445 1303 421 1132 c 2,18,-1
 387 885 l 2,19,20
 367 749 367 749 418 679 c 128,-1,21
 469 609 469 609 598 609 c 1,22,-1
 595 586 l 1,23,-1
 592 566 l 1,24,-1
 589 543 l 1,25,26
 466 543 466 543 392 468.5 c 128,-1,27
 318 394 318 394 300 265 c 2,28,-1
 266 20 l 2,29,30
 241 -157 241 -157 152.5 -271.5 c 128,-1,31
 64 -386 64 -386 -118 -441 c 1,32,-1
 -130 -395 l 1,0,1
EndSplineSet
Validated: 33
EndChar

StartChar: asciitilde
Encoding: 126 126 97
Width: 1412
GlyphClass: 1
Flags: W
LayerCount: 2
Fore
SplineSet
1280 740 m 1,0,1
 1262 614 1262 614 1175 528.5 c 128,-1,2
 1088 443 1088 443 974 443 c 0,3,4
 890 443 890 443 821.5 482 c 128,-1,5
 753 521 753 521 675 602 c 0,6,7
 616 661 616 661 560.5 690.5 c 128,-1,8
 505 720 505 720 444 720 c 0,9,10
 359 720 359 720 290 651.5 c 128,-1,11
 221 583 221 583 205 462 c 1,12,-1
 147 474 l 1,13,14
 165 606 165 606 249.5 690 c 128,-1,15
 334 774 334 774 451 774 c 0,16,17
 533 774 533 774 603 733.5 c 128,-1,18
 673 693 673 693 752 614 c 0,19,20
 811 552 811 552 864.5 524 c 128,-1,21
 918 496 918 496 981 496 c 0,22,23
 1063 496 1063 496 1133.5 567.5 c 128,-1,24
 1204 639 1204 639 1220 753 c 1,25,-1
 1280 740 l 1,0,1
EndSplineSet
Validated: 1
EndChar

StartChar: exclamdown
Encoding: 161 161 99
Width: 406
GlyphClass: 1
Flags: W
LayerCount: 2
Fore
SplineSet
85 -374 m 1,0,-1
 31 -374 l 1,1,-1
 178 604 l 1,2,-1
 232 604 l 1,3,-1
 85 -374 l 1,0,-1
300 918 m 1,4,-1
 205 918 l 1,5,-1
 229 1082 l 1,6,-1
 324 1082 l 1,7,-1
 300 918 l 1,4,-1
EndSplineSet
Validated: 1
EndChar

StartChar: cent
Encoding: 162 162 100
Width: 1110
GlyphClass: 1
Flags: W
LayerCount: 2
Fore
SplineSet
501 33 m 0,0,1
 634 33 634 33 752 108 c 128,-1,2
 870 183 870 183 893 333 c 1,3,-1
 938 333 l 1,4,-1
 940 327 l 1,5,6
 920 169 920 169 797.5 79 c 128,-1,7
 675 -11 675 -11 520 -20 c 1,8,-1
 487 -245 l 1,9,-1
 432 -245 l 1,10,-1
 465 -20 l 1,11,12
 278 -8 278 -8 187 140.5 c 128,-1,13
 96 289 96 289 132 520 c 2,14,-1
 138 562 l 2,15,16
 174 805 174 805 304.5 948.5 c 128,-1,17
 435 1092 435 1092 634 1101 c 1,18,-1
 667 1318 l 1,19,-1
 722 1318 l 1,20,-1
 689 1101 l 1,21,22
 841 1091 841 1091 935 992.5 c 128,-1,23
 1029 894 1029 894 1000 725 c 1,24,-1
 998 720 l 1,25,-1
 951 720 l 1,26,27
 975 885 975 885 886.5 966.5 c 128,-1,28
 798 1048 798 1048 651 1048 c 0,29,30
 468 1048 468 1048 346 910 c 128,-1,31
 224 772 224 772 192 562 c 2,32,-1
 186 520 l 2,33,34
 152 296 152 296 229.5 164.5 c 128,-1,35
 307 33 307 33 501 33 c 0,0,1
EndSplineSet
Validated: 33
EndChar

StartChar: sterling
Encoding: 163 163 101
Width: 1150
GlyphClass: 1
Flags: W
LayerCount: 2
Fore
SplineSet
383 667 m 1,0,-1
 360 466 l 1,1,2
 340 337 340 337 288 228.5 c 128,-1,3
 236 120 236 120 160 54 c 1,4,-1
 968 54 l 1,5,-1
 961 0 l 1,6,-1
 49 0 l 1,7,-1
 57 54 l 1,8,-1
 67 54 l 1,9,10
 158 70 158 70 221.5 199.5 c 128,-1,11
 285 329 285 329 306 466 c 1,12,-1
 329 667 l 1,13,-1
 85 667 l 1,14,-1
 93 721 l 1,15,-1
 335 721 l 1,16,-1
 371 1040 l 1,17,18
 403 1252 403 1252 520 1364.5 c 128,-1,19
 637 1477 637 1477 808 1477 c 0,20,21
 976 1477 976 1477 1045.5 1373 c 128,-1,22
 1115 1269 1115 1269 1089 1090 c 1,23,-1
 1035 1090 l 1,24,25
 1062 1273 1062 1273 1000.5 1348 c 128,-1,26
 939 1423 939 1423 799 1423 c 0,27,28
 658 1423 658 1423 555 1322 c 128,-1,29
 452 1221 452 1221 425 1040 c 1,30,-1
 389 721 l 1,31,-1
 866 721 l 1,32,-1
 858 667 l 1,33,-1
 383 667 l 1,0,-1
EndSplineSet
Validated: 33
EndChar

StartChar: currency
Encoding: 164 164 102
Width: 1502
GlyphClass: 1
Flags: W
LayerCount: 2
Fore
SplineSet
1106 152 m 1,0,1
 1012 69 1012 69 897.5 24.5 c 128,-1,2
 783 -20 783 -20 662 -20 c 0,3,4
 547 -20 547 -20 447 26.5 c 128,-1,5
 347 73 347 73 277 157 c 1,6,-1
 70 -26 l 1,7,-1
 36 13 l 1,8,-1
 246 198 l 1,9,10
 188 281 188 281 165 386 c 128,-1,11
 142 491 142 491 160 608 c 0,12,13
 179 734 179 734 234.5 843 c 128,-1,14
 290 952 290 952 375 1035 c 1,15,-1
 218 1225 l 1,16,-1
 264 1264 l 1,17,-1
 420 1076 l 1,18,19
 511 1151 511 1151 622 1192.5 c 128,-1,20
 733 1234 733 1234 850 1234 c 0,21,22
 960 1234 960 1234 1057.5 1190 c 128,-1,23
 1155 1146 1155 1146 1225 1067 c 1,24,-1
 1449 1265 l 1,25,-1
 1484 1225 l 1,26,-1
 1258 1025 l 1,27,28
 1318 940 1318 940 1342.5 833.5 c 128,-1,29
 1367 727 1367 727 1350 608 c 0,30,31
 1331 487 1331 487 1279.5 381.5 c 128,-1,32
 1228 276 1228 276 1150 195 c 1,33,-1
 1302 13 l 1,34,-1
 1255 -27 l 1,35,-1
 1106 152 l 1,0,1
215 608 m 0,36,37
 178 360 178 360 311 196.5 c 128,-1,38
 444 33 444 33 670 33 c 0,39,40
 883 33 883 33 1072 202.5 c 128,-1,41
 1261 372 1261 372 1296 608 c 0,42,43
 1332 854 1332 854 1199 1017.5 c 128,-1,44
 1066 1181 1066 1181 842 1181 c 0,45,46
 628 1181 628 1181 439 1011.5 c 128,-1,47
 250 842 250 842 215 608 c 0,36,37
EndSplineSet
Validated: 33
EndChar

StartChar: yen
Encoding: 165 165 103
Width: 1207
GlyphClass: 1
Flags: W
LayerCount: 2
Fore
SplineSet
1217 1456 m 1,0,-1
 1283 1456 l 1,1,-1
 677 676 l 1,2,-1
 1101 676 l 1,3,-1
 1093 621 l 1,4,-1
 641 621 l 1,5,-1
 605 381 l 1,6,-1
 1057 381 l 1,7,-1
 1049 326 l 1,8,-1
 597 326 l 1,9,-1
 548 0 l 1,10,-1
 494 0 l 1,11,-1
 543 326 l 1,12,-1
 93 326 l 1,13,-1
 101 381 l 1,14,-1
 551 381 l 1,15,-1
 587 621 l 1,16,-1
 137 621 l 1,17,-1
 145 676 l 1,18,-1
 566 676 l 1,19,-1
 196 1456 l 1,20,-1
 261 1456 l 1,21,-1
 606 738 l 1,22,-1
 622 687 l 1,23,-1
 627 687 l 1,24,-1
 659 738 l 1,25,-1
 1217 1456 l 1,0,-1
EndSplineSet
Validated: 1
EndChar

StartChar: brokenbar
Encoding: 166 166 104
Width: 398
GlyphClass: 1
Flags: W
LayerCount: 2
Fore
SplineSet
52 -270 m 1,0,-1
 164 482 l 1,1,-1
 218 482 l 1,2,-1
 106 -270 l 1,3,-1
 52 -270 l 1,0,-1
251 698 m 1,4,-1
 197 698 l 1,5,-1
 310 1456 l 1,6,-1
 364 1456 l 1,7,-1
 251 698 l 1,4,-1
EndSplineSet
Validated: 1
EndChar

StartChar: section
Encoding: 167 167 105
Width: 1223
GlyphClass: 1
Flags: W
LayerCount: 2
Fore
SplineSet
1079 431 m 0,0,1
 1062 322 1062 322 970.5 252 c 128,-1,2
 879 182 879 182 735 164 c 1,3,4
 859 114 859 114 912 42.5 c 128,-1,5
 965 -29 965 -29 948 -149 c 0,6,7
 922 -317 922 -317 788 -406 c 128,-1,8
 654 -495 654 -495 446 -495 c 0,9,10
 248 -495 248 -495 121 -391.5 c 128,-1,11
 -6 -288 -6 -288 30 -69 c 1,12,-1
 32 -64 l 1,13,-1
 80 -62 l 1,14,15
 48 -270 48 -270 160 -355.5 c 128,-1,16
 272 -441 272 -441 454 -441 c 0,17,18
 632 -441 632 -441 752.5 -359.5 c 128,-1,19
 873 -278 873 -278 892 -151 c 0,20,21
 911 -27 911 -27 842 39 c 128,-1,22
 773 105 773 105 552 166 c 1,23,24
 316 224 316 224 208 308 c 128,-1,25
 100 392 100 392 124 551 c 0,26,27
 141 663 141 663 226.5 733 c 128,-1,28
 312 803 312 803 450 823 c 1,29,30
 336 871 336 871 287 943 c 128,-1,31
 238 1015 238 1015 256 1130 c 0,32,33
 280 1293 280 1293 415.5 1385 c 128,-1,34
 551 1477 551 1477 760 1477 c 0,35,36
 966 1477 966 1477 1072 1364 c 128,-1,37
 1178 1251 1178 1251 1144 1051 c 1,38,-1
 1142 1046 l 1,39,-1
 1095 1046 l 1,40,41
 1120 1214 1120 1214 1030 1318.5 c 128,-1,42
 940 1423 940 1423 751 1423 c 256,43,44
 562 1423 562 1423 445 1340.5 c 128,-1,45
 328 1258 328 1258 310 1133 c 0,46,47
 290 1003 290 1003 358.5 937.5 c 128,-1,48
 427 872 427 872 657 804 c 1,49,50
 899 740 899 740 1000 663.5 c 128,-1,51
 1101 587 1101 587 1079 431 c 0,0,1
625 766 m 0,52,53
 596 772 596 772 570 779.5 c 128,-1,54
 544 787 544 787 521 796 c 1,55,56
 374 788 374 788 283 720.5 c 128,-1,57
 192 653 192 653 178 553 c 0,58,59
 158 418 158 418 234.5 355.5 c 128,-1,60
 311 293 311 293 576 215 c 2,61,-1
 642 196 l 1,62,63
 797 197 797 197 903 264 c 128,-1,64
 1009 331 1009 331 1024 428 c 0,65,66
 1043 556 1043 556 959.5 624.5 c 128,-1,67
 876 693 876 693 625 766 c 0,52,53
EndSplineSet
Validated: 33
EndChar

StartChar: dieresis
Encoding: 168 168 106
Width: 906
GlyphClass: 1
Flags: W
LayerCount: 2
Fore
SplineSet
873 1338 m 1,0,-1
 737 1338 l 1,1,-1
 754 1456 l 1,2,-1
 890 1456 l 1,3,-1
 873 1338 l 1,0,-1
404 1338 m 1,4,-1
 267 1338 l 1,5,-1
 284 1456 l 1,6,-1
 421 1456 l 1,7,-1
 404 1338 l 1,4,-1
EndSplineSet
Validated: 1
EndChar

StartChar: copyright
Encoding: 169 169 107
Width: 1666
GlyphClass: 1
Flags: W
LayerCount: 2
Fore
SplineSet
1125 596 m 1,0,-1
 1127 590 l 1,1,2
 1107 434 1107 434 1018 358 c 128,-1,3
 929 282 929 282 788 282 c 0,4,5
 650 282 650 282 575 390 c 128,-1,6
 500 498 500 498 526 669 c 2,7,-1
 544 788 l 2,8,9
 570 966 570 966 673.5 1070.5 c 128,-1,10
 777 1175 777 1175 922 1175 c 0,11,12
 1056 1175 1056 1175 1126 1094.5 c 128,-1,13
 1196 1014 1196 1014 1170 867 c 1,14,-1
 1167 862 l 1,15,-1
 1122 862 l 1,16,17
 1142 996 1142 996 1088.5 1059 c 128,-1,18
 1035 1122 1035 1122 914 1122 c 0,19,20
 795 1122 795 1122 707.5 1026 c 128,-1,21
 620 930 620 930 599 789 c 2,22,-1
 581 669 l 2,23,24
 558 519 558 519 615 428 c 128,-1,25
 672 337 672 337 797 337 c 0,26,27
 913 337 913 337 987.5 401 c 128,-1,28
 1062 465 1062 465 1081 596 c 1,29,-1
 1125 596 l 1,0,-1
208 729 m 0,30,31
 162 428 162 428 323 231 c 128,-1,32
 484 34 484 34 758 34 c 0,33,34
 1017 34 1017 34 1245 238 c 128,-1,35
 1473 442 1473 442 1516 729 c 0,36,37
 1561 1029 1561 1029 1400 1225 c 128,-1,38
 1239 1421 1239 1421 966 1421 c 0,39,40
 705 1421 705 1421 478 1218 c 128,-1,41
 251 1015 251 1015 208 729 c 0,30,31
152 729 m 0,42,43
 201 1056 201 1056 438 1266 c 128,-1,44
 675 1476 675 1476 974 1476 c 0,45,46
 1258 1476 1258 1476 1438.5 1258 c 128,-1,47
 1619 1040 1619 1040 1572 729 c 0,48,49
 1523 401 1523 401 1286 190 c 128,-1,50
 1049 -21 1049 -21 750 -21 c 0,51,52
 466 -21 466 -21 285.5 197.5 c 128,-1,53
 105 416 105 416 152 729 c 0,42,43
EndSplineSet
Validated: 33
EndChar

StartChar: ordfeminine
Encoding: 170 170 108
Width: 898
GlyphClass: 1
Flags: W
LayerCount: 2
Fore
SplineSet
706 706 m 1,0,1
 700 733 700 733 699 763 c 128,-1,2
 698 793 698 793 702 826 c 1,3,4
 654 768 654 768 581.5 730 c 128,-1,5
 509 692 509 692 421 692 c 0,6,7
 307 692 307 692 248.5 754 c 128,-1,8
 190 816 190 816 206 920 c 0,9,10
 221 1025 221 1025 302.5 1079 c 128,-1,11
 384 1133 384 1133 527 1133 c 2,12,-1
 746 1133 l 1,13,-1
 757 1202 l 2,14,15
 773 1310 773 1310 731 1366.5 c 128,-1,16
 689 1423 689 1423 591 1423 c 0,17,18
 481 1423 481 1423 410.5 1375.5 c 128,-1,19
 340 1328 340 1328 327 1238 c 1,20,-1
 282 1243 l 1,21,-1
 281 1249 l 1,22,23
 291 1351 291 1351 379.5 1414 c 128,-1,24
 468 1477 468 1477 600 1477 c 0,25,26
 711 1477 711 1477 771.5 1405 c 128,-1,27
 832 1333 832 1333 812 1201 c 2,28,-1
 765 887 l 2,29,30
 757 837 757 837 757 794 c 128,-1,31
 757 751 757 751 764 706 c 1,32,-1
 706 706 l 1,0,1
430 747 m 0,33,34
 514 747 514 747 598 795 c 128,-1,35
 682 843 682 843 711 900 c 1,36,-1
 738 1077 l 1,37,-1
 520 1077 l 2,38,39
 412 1077 412 1077 341 1032.5 c 128,-1,40
 270 988 270 988 261 924 c 0,41,42
 247 838 247 838 288 792.5 c 128,-1,43
 329 747 329 747 430 747 c 0,33,34
EndSplineSet
Validated: 33
EndChar

StartChar: logicalnot
Encoding: 172 172 110
Width: 1101
GlyphClass: 1
Flags: W
LayerCount: 2
Fore
SplineSet
941 706 m 1,0,-1
 940 700 l 1,1,-1
 894 396 l 1,2,-1
 840 396 l 1,3,-1
 886 700 l 1,4,-1
 147 700 l 1,5,-1
 155 753 l 1,6,-1
 948 753 l 1,7,-1
 941 706 l 1,0,-1
EndSplineSet
Validated: 1
EndChar

StartChar: registered
Encoding: 174 174 112
Width: 1674
GlyphClass: 1
Flags: W
LayerCount: 2
Fore
SplineSet
144 729 m 0,0,1
 193 1056 193 1056 429.5 1266 c 128,-1,2
 666 1476 666 1476 966 1476 c 0,3,4
 1250 1476 1250 1476 1430.5 1258 c 128,-1,5
 1611 1040 1611 1040 1564 729 c 0,6,7
 1515 401 1515 401 1278 190 c 128,-1,8
 1041 -21 1041 -21 742 -21 c 0,9,10
 458 -21 458 -21 277.5 197.5 c 128,-1,11
 97 416 97 416 144 729 c 0,0,1
199 729 m 0,12,13
 153 428 153 428 314.5 231 c 128,-1,14
 476 34 476 34 750 34 c 0,15,16
 1009 34 1009 34 1237 238 c 128,-1,17
 1465 442 1465 442 1508 729 c 0,18,19
 1553 1029 1553 1029 1392 1225 c 128,-1,20
 1231 1421 1231 1421 958 1421 c 0,21,22
 697 1421 697 1421 469.5 1218 c 128,-1,23
 242 1015 242 1015 199 729 c 0,12,13
671 688 m 1,24,-1
 615 316 l 1,25,-1
 560 316 l 1,26,-1
 688 1166 l 1,27,-1
 927 1166 l 2,28,29
 1065 1166 1065 1166 1131 1104.5 c 128,-1,30
 1197 1043 1197 1043 1180 926 c 0,31,32
 1168 849 1168 849 1121 798.5 c 128,-1,33
 1074 748 1074 748 994 719 c 1,34,35
 1059 696 1059 696 1083.5 642.5 c 128,-1,36
 1108 589 1108 589 1097 515 c 2,37,-1
 1089 459 l 2,38,39
 1082 419 1082 419 1081.5 386.5 c 128,-1,40
 1081 354 1081 354 1087 332 c 1,41,-1
 1084 316 l 1,42,-1
 1025 316 l 1,43,44
 1019 337 1019 337 1022.5 375 c 128,-1,45
 1026 413 1026 413 1033 460 c 2,46,-1
 1041 514 l 2,47,48
 1055 611 1055 611 1020 649.5 c 128,-1,49
 985 688 985 688 883 688 c 2,50,-1
 671 688 l 1,24,-1
679 744 m 1,51,-1
 885 744 l 2,52,53
 972 744 972 744 1042 792.5 c 128,-1,54
 1112 841 1112 841 1125 927 c 0,55,56
 1140 1026 1140 1026 1094.5 1068.5 c 128,-1,57
 1049 1111 1049 1111 919 1111 c 2,58,-1
 735 1111 l 1,59,-1
 679 744 l 1,51,-1
EndSplineSet
Validated: 33
EndChar

StartChar: macron
Encoding: 175 175 113
AltUni2: 0002c9.ffffffff.0 0002c9.ffffffff.0
Width: 811
GlyphClass: 1
Flags: W
LayerCount: 2
Fore
SplineSet
840 1403 m 1,0,-1
 213 1403 l 1,1,-1
 221 1456 l 1,2,-1
 848 1456 l 1,3,-1
 840 1403 l 1,0,-1
EndSplineSet
Validated: 1
EndChar

StartChar: degree
Encoding: 176 176 114
Width: 783
GlyphClass: 1
Flags: W
LayerCount: 2
Fore
SplineSet
262 1237 m 0,0,1
 276 1339 276 1339 355.5 1408 c 128,-1,2
 435 1477 435 1477 534 1477 c 0,3,4
 625 1477 625 1477 684.5 1405.5 c 128,-1,5
 744 1334 744 1334 730 1237 c 0,6,7
 714 1133 714 1133 636.5 1066.5 c 128,-1,8
 559 1000 559 1000 462 1000 c 0,9,10
 368 1000 368 1000 307.5 1069 c 128,-1,11
 247 1138 247 1138 262 1237 c 0,0,1
317 1237 m 0,12,13
 304 1155 304 1155 347.5 1105.5 c 128,-1,14
 391 1056 391 1056 470 1056 c 0,15,16
 543 1056 543 1056 602.5 1107.5 c 128,-1,17
 662 1159 662 1159 674 1237 c 0,18,19
 685 1320 685 1320 643.5 1371 c 128,-1,20
 602 1422 602 1422 525 1422 c 0,21,22
 450 1422 450 1422 389 1369 c 128,-1,23
 328 1316 328 1316 317 1237 c 0,12,13
EndSplineSet
Validated: 33
EndChar

StartChar: plusminus
Encoding: 177 177 115
Width: 1077
GlyphClass: 1
Flags: W
LayerCount: 2
Fore
SplineSet
606 805 m 1,0,-1
 1026 805 l 1,1,-1
 1018 751 l 1,2,-1
 599 751 l 1,3,-1
 534 289 l 1,4,-1
 480 289 l 1,5,-1
 544 751 l 1,6,-1
 102 751 l 1,7,-1
 110 805 l 1,8,-1
 552 805 l 1,9,-1
 617 1267 l 1,10,-1
 671 1267 l 1,11,-1
 606 805 l 1,0,-1
1014 88 m 1,12,-1
 179 88 l 1,13,-1
 187 142 l 1,14,-1
 1022 142 l 1,15,-1
 1014 88 l 1,12,-1
EndSplineSet
Validated: 1
EndChar

StartChar: twosuperior
Encoding: 178 178 116
Width: 807
GlyphClass: 1
Flags: W
LayerCount: 2
Fore
SplineSet
685 667 m 1,0,-1
 134 667 l 1,1,-1
 142 722 l 1,2,-1
 514 1022 l 2,3,4
 609 1102 609 1102 648 1153 c 128,-1,5
 687 1204 687 1204 695 1255 c 0,6,7
 707 1336 707 1336 666.5 1380 c 128,-1,8
 626 1424 626 1424 529 1424 c 0,9,10
 429 1424 429 1424 363 1372.5 c 128,-1,11
 297 1321 297 1321 285 1242 c 1,12,-1
 237 1242 l 1,13,-1
 235 1248 l 1,14,15
 245 1348 245 1348 328.5 1413.5 c 128,-1,16
 412 1479 412 1479 537 1479 c 0,17,18
 648 1479 648 1479 707.5 1421 c 128,-1,19
 767 1363 767 1363 751 1254 c 0,20,21
 740 1181 740 1181 683 1117.5 c 128,-1,22
 626 1054 626 1054 517 963 c 1,23,-1
 216 728 l 1,24,-1
 218 722 l 1,25,-1
 693 722 l 1,26,-1
 685 667 l 1,0,-1
EndSplineSet
Validated: 33
EndChar

StartChar: threesuperior
Encoding: 179 179 117
Width: 831
GlyphClass: 1
Flags: W
LayerCount: 2
Fore
SplineSet
778 1257 m 0,0,1
 768 1193 768 1193 725 1145.5 c 128,-1,2
 682 1098 682 1098 613 1075 c 1,3,4
 683 1053 683 1053 714.5 1004.5 c 128,-1,5
 746 956 746 956 735 883 c 0,6,7
 719 772 719 772 633.5 713.5 c 128,-1,8
 548 655 548 655 423 655 c 0,9,10
 312 655 312 655 236 714 c 128,-1,11
 160 773 160 773 181 882 c 1,12,-1
 183 888 l 1,13,-1
 232 888 l 1,14,15
 220 807 220 807 274.5 758.5 c 128,-1,16
 329 710 329 710 432 710 c 0,17,18
 533 710 533 710 599.5 756 c 128,-1,19
 666 802 666 802 679 881 c 0,20,21
 692 970 692 970 643.5 1008.5 c 128,-1,22
 595 1047 595 1047 483 1047 c 2,23,-1
 369 1047 l 1,24,-1
 370 1056 l 1,25,-1
 377 1103 l 1,26,-1
 491 1103 l 2,27,28
 594 1103 594 1103 653 1144.5 c 128,-1,29
 712 1186 712 1186 723 1260 c 0,30,31
 734 1336 734 1336 688.5 1379.5 c 128,-1,32
 643 1423 643 1423 538 1423 c 0,33,34
 450 1423 450 1423 380 1377 c 128,-1,35
 310 1331 310 1331 300 1258 c 1,36,-1
 255 1258 l 1,37,-1
 253 1264 l 1,38,39
 262 1362 262 1362 347 1420 c 128,-1,40
 432 1478 432 1478 547 1478 c 0,41,42
 665 1478 665 1478 729 1420 c 128,-1,43
 793 1362 793 1362 778 1257 c 0,0,1
EndSplineSet
Validated: 33
EndChar

StartChar: acute
Encoding: 180 180 118
Width: 511
GlyphClass: 1
Flags: W
LayerCount: 2
Fore
SplineSet
477 1518 m 1,0,-1
 554 1518 l 1,1,-1
 556 1512 l 1,2,-1
 288 1252 l 1,3,-1
 222 1252 l 1,4,-1
 219 1258 l 1,5,-1
 477 1518 l 1,0,-1
EndSplineSet
Validated: 1
EndChar

StartChar: mu
Encoding: 181 181 119
Width: 1121
GlyphClass: 1
Flags: W
LayerCount: 2
Fore
SplineSet
305 1082 m 1,0,-1
 209 440 l 2,1,2
 174 208 174 208 244.5 120.5 c 128,-1,3
 315 33 315 33 454 33 c 0,4,5
 635 33 635 33 736.5 132.5 c 128,-1,6
 838 232 838 232 880 408 c 1,7,-1
 981 1082 l 1,8,-1
 1035 1082 l 1,9,-1
 948 505 l 1,10,-1
 951 505 l 1,11,12
 947 480 947 480 944 463 c 128,-1,13
 941 446 941 446 937 430 c 2,14,-1
 873 0 l 1,15,-1
 832 0 l 1,16,-1
 852 200 l 1,17,18
 788 92 788 92 689.5 35.5 c 128,-1,19
 591 -21 591 -21 455 -21 c 0,20,21
 356 -21 356 -21 278.5 25 c 128,-1,22
 201 71 201 71 169 174 c 1,23,-1
 81 -416 l 1,24,-1
 29 -416 l 1,25,-1
 253 1082 l 1,26,-1
 305 1082 l 1,0,-1
EndSplineSet
Validated: 33
EndChar

StartChar: paragraph
Encoding: 182 182 120
Width: 946
GlyphClass: 1
Flags: W
LayerCount: 2
Fore
SplineSet
636 0 m 1,0,-1
 714 520 l 1,1,-1
 589 520 l 2,2,3
 365 520 365 520 250.5 651 c 128,-1,4
 136 782 136 782 167 988 c 0,5,6
 199 1202 199 1202 346 1329 c 128,-1,7
 493 1456 493 1456 729 1456 c 2,8,-1
 908 1456 l 1,9,-1
 690 0 l 1,10,-1
 636 0 l 1,0,-1
EndSplineSet
Validated: 33
EndChar

StartChar: periodcentered
Encoding: 183 183 121
Width: 472
GlyphClass: 1
Flags: W
LayerCount: 2
Fore
SplineSet
303 624 m 1,0,-1
 185 624 l 1,1,-1
 207 776 l 1,2,-1
 325 776 l 1,3,-1
 303 624 l 1,0,-1
EndSplineSet
Validated: 1
EndChar

StartChar: cedilla
Encoding: 184 184 122
Width: 490
GlyphClass: 1
Flags: W
LayerCount: 2
Fore
SplineSet
127 0 m 1,0,-1
 105 -76 l 1,1,2
 195 -83 195 -83 241.5 -121.5 c 128,-1,3
 288 -160 288 -160 276 -245 c 0,4,5
 262 -336 262 -336 177 -385.5 c 128,-1,6
 92 -435 92 -435 -57 -435 c 1,7,-1
 -57 -386 l 1,8,9
 44 -386 44 -386 127 -349.5 c 128,-1,10
 210 -313 210 -313 221 -245 c 0,11,12
 231 -178 231 -178 190 -154.5 c 128,-1,13
 149 -131 149 -131 31 -121 c 1,14,-1
 74 0 l 1,15,-1
 127 0 l 1,0,-1
EndSplineSet
Validated: 33
EndChar

StartChar: onesuperior
Encoding: 185 185 123
Width: 471
GlyphClass: 1
Flags: W
LayerCount: 2
Fore
SplineSet
319 665 m 1,0,-1
 265 665 l 1,1,-1
 377 1412 l 1,2,-1
 209 1398 l 1,3,-1
 217 1454 l 1,4,-1
 441 1477 l 1,5,-1
 319 665 l 1,0,-1
EndSplineSet
Validated: 1
EndChar

StartChar: ordmasculine
Encoding: 186 186 124
Width: 914
GlyphClass: 1
Flags: W
LayerCount: 2
Fore
SplineSet
239 1142 m 2,0,1
 262 1296 262 1296 357.5 1386.5 c 128,-1,2
 453 1477 453 1477 594 1477 c 0,3,4
 729 1477 729 1477 799.5 1382.5 c 128,-1,5
 870 1288 870 1288 848 1142 c 2,6,-1
 831 1025 l 2,7,8
 807 870 807 870 712.5 780.5 c 128,-1,9
 618 691 618 691 478 691 c 0,10,11
 343 691 343 691 271.5 784.5 c 128,-1,12
 200 878 200 878 222 1025 c 2,13,-1
 239 1142 l 2,0,1
276 1025 m 2,14,15
 256 896 256 896 307.5 820.5 c 128,-1,16
 359 745 359 745 486 745 c 0,17,18
 602 745 602 745 681 824.5 c 128,-1,19
 760 904 760 904 778 1025 c 2,20,-1
 795 1142 l 2,21,22
 814 1268 814 1268 761 1345.5 c 128,-1,23
 708 1423 708 1423 585 1423 c 0,24,25
 468 1423 468 1423 389 1342.5 c 128,-1,26
 310 1262 310 1262 293 1142 c 2,27,-1
 276 1025 l 2,14,15
EndSplineSet
Validated: 33
EndChar

StartChar: questiondown
Encoding: 191 191 129
Width: 912
GlyphClass: 1
Flags: W
LayerCount: 2
Fore
SplineSet
532 683 m 1,0,1
 512 565 512 565 486 516.5 c 128,-1,2
 460 468 460 468 364 391 c 0,3,4
 225 275 225 275 159.5 193 c 128,-1,5
 94 111 94 111 74 -29 c 0,6,7
 50 -181 50 -181 115 -261 c 128,-1,8
 180 -341 180 -341 326 -341 c 0,9,10
 461 -341 461 -341 555 -255.5 c 128,-1,11
 649 -170 649 -170 673 -33 c 1,12,-1
 719 -33 l 1,13,-1
 721 -39 l 1,14,15
 697 -209 697 -209 584.5 -301.5 c 128,-1,16
 472 -394 472 -394 318 -394 c 0,17,18
 159 -394 159 -394 77.5 -292 c 128,-1,19
 -4 -190 -4 -190 20 -27 c 0,20,21
 41 119 41 119 116.5 216.5 c 128,-1,22
 192 314 192 314 342 433 c 1,23,24
 418 485 418 485 440.5 533 c 128,-1,25
 463 581 463 581 478 683 c 1,26,-1
 532 683 l 1,0,1
514 1083 m 1,27,-1
 596 1083 l 1,28,-1
 581 977 l 1,29,-1
 499 977 l 1,30,-1
 514 1083 l 1,27,-1
EndSplineSet
Validated: 33
EndChar

StartChar: AE
Encoding: 198 198 136
Width: 1816
GlyphClass: 1
Flags: W
LayerCount: 2
Fore
SplineSet
1688 0 m 1,0,-1
 936 0 l 1,1,-1
 982 425 l 1,2,-1
 354 425 l 1,3,-1
 35 0 l 1,4,-1
 -30 0 l 1,5,-1
 1069 1456 l 1,6,-1
 1845 1456 l 1,7,-1
 1837 1402 l 1,8,-1
 1141 1402 l 1,9,-1
 1075 786 l 1,10,-1
 1663 786 l 1,11,-1
 1655 732 l 1,12,-1
 1069 732 l 1,13,-1
 996 54 l 1,14,-1
 1696 54 l 1,15,-1
 1688 0 l 1,0,-1
394 478 m 1,16,-1
 987 478 l 1,17,-1
 1087 1400 l 1,18,-1
 1081 1402 l 1,19,-1
 1010 1298 l 1,20,-1
 394 478 l 1,16,-1
EndSplineSet
Validated: 1
EndChar

StartChar: Eth
Encoding: 208 208 146
Width: 1370
GlyphClass: 1
Flags: W
LayerCount: 2
Fore
SplineSet
120 0 m 1,0,-1
 227 713 l 1,1,-1
 87 713 l 1,2,-1
 95 767 l 1,3,-1
 235 767 l 1,4,-1
 338 1456 l 1,5,-1
 771 1456 l 2,6,7
 1013 1456 1013 1456 1165 1274.5 c 128,-1,8
 1317 1093 1317 1093 1277 817 c 2,9,-1
 1250 639 l 2,10,11
 1206 348 1206 348 1006.5 174 c 128,-1,12
 807 0 807 0 553 0 c 2,13,-1
 120 0 l 1,0,-1
674 713 m 1,14,-1
 281 713 l 1,15,-1
 182 54 l 1,16,-1
 561 54 l 2,17,18
 779 54 779 54 968.5 221.5 c 128,-1,19
 1158 389 1158 389 1196 639 c 2,20,-1
 1223 820 l 2,21,22
 1261 1080 1261 1080 1127 1241 c 128,-1,23
 993 1402 993 1402 763 1402 c 2,24,-1
 384 1402 l 1,25,-1
 289 767 l 1,26,-1
 682 767 l 1,27,-1
 674 713 l 1,14,-1
EndSplineSet
Validated: 33
Substitution2: "'smcp' Lowercase to Small Capitals lookup 0 subtable" Eth.smcp
EndChar

StartChar: multiply
Encoding: 215 215 153
Width: 1052
GlyphClass: 1
Flags: W
LayerCount: 2
Fore
SplineSet
61 289 m 1,0,-1
 505 682 l 1,1,-1
 202 1046 l 1,2,-1
 247 1085 l 1,3,-1
 549 721 l 1,4,-1
 960 1085 l 1,5,-1
 993 1046 l 1,6,-1
 581 682 l 1,7,-1
 907 289 l 1,8,-1
 863 252 l 1,9,-1
 537 643 l 1,10,-1
 95 252 l 1,11,-1
 61 289 l 1,0,-1
EndSplineSet
Validated: 1
EndChar

StartChar: Oslash
Encoding: 216 216 154
Width: 1364
GlyphClass: 1
Flags: W
LayerCount: 2
Fore
SplineSet
1244 619 m 2,0,1
 1198 313 1198 313 1028.5 146 c 128,-1,2
 859 -21 859 -21 600 -21 c 0,3,4
 505 -21 505 -21 426 5.5 c 128,-1,5
 347 32 347 32 289 85 c 1,6,-1
 163 -75 l 1,7,-1
 97 -75 l 1,8,-1
 252 122 l 1,9,10
 177 207 177 207 149 333.5 c 128,-1,11
 121 460 121 460 146 619 c 2,12,-1
 179 837 l 2,13,14
 224 1142 224 1142 393.5 1309.5 c 128,-1,15
 563 1477 563 1477 823 1477 c 0,16,17
 940 1477 940 1477 1033 1434.5 c 128,-1,18
 1126 1392 1126 1392 1187 1314 c 1,19,-1
 1329 1495 l 1,20,-1
 1395 1495 l 1,21,-1
 1217 1268 l 1,22,23
 1264 1185 1264 1185 1280 1075.5 c 128,-1,24
 1296 966 1296 966 1277 837 c 2,25,-1
 1244 619 l 2,0,1
201 619 m 2,26,27
 177 467 177 467 197.5 352 c 128,-1,28
 218 237 218 237 281 168 c 1,29,-1
 287 167 l 1,30,-1
 1156 1275 l 1,31,32
 1103 1347 1103 1347 1017.5 1385 c 128,-1,33
 932 1423 932 1423 814 1423 c 0,34,35
 586 1423 586 1423 430 1263.5 c 128,-1,36
 274 1104 274 1104 234 839 c 2,37,-1
 201 619 l 2,26,27
1223 839 m 2,38,39
 1240 958 1240 958 1231 1055.5 c 128,-1,40
 1222 1153 1222 1153 1186 1220 c 1,41,-1
 1180 1222 l 1,42,-1
 319 124 l 1,43,44
 370 78 370 78 443 55.5 c 128,-1,45
 516 33 516 33 608 33 c 0,46,47
 837 33 837 33 993 192.5 c 128,-1,48
 1149 352 1149 352 1190 619 c 2,49,-1
 1223 839 l 2,38,39
EndSplineSet
Validated: 33
EndChar

StartChar: Thorn
Encoding: 222 222 160
Width: 1219
GlyphClass: 1
Flags: W
LayerCount: 2
Fore
SplineSet
392 1456 m 1,0,-1
 345 1143 l 1,1,-1
 716 1143 l 2,2,3
 919 1143 919 1143 1025.5 1028.5 c 128,-1,4
 1132 914 1132 914 1106 738 c 0,5,6
 1077 551 1077 551 943.5 442.5 c 128,-1,7
 810 334 810 334 595 334 c 2,8,-1
 224 334 l 1,9,-1
 174 0 l 1,10,-1
 120 0 l 1,11,-1
 338 1456 l 1,12,-1
 392 1456 l 1,0,-1
337 1089 m 1,13,-1
 232 388 l 1,14,-1
 603 388 l 2,15,16
 790 388 790 388 910.5 493.5 c 128,-1,17
 1031 599 1031 599 1051 736 c 0,18,19
 1074 885 1074 885 989.5 987 c 128,-1,20
 905 1089 905 1089 708 1089 c 2,21,-1
 337 1089 l 1,13,-1
EndSplineSet
Validated: 33
EndChar

StartChar: germandbls
Encoding: 223 223 161
Width: 1183
GlyphClass: 1
Flags: W
LayerCount: 2
Fore
SplineSet
138 0 m 1,0,-1
 84 0 l 1,1,-1
 246 1082 l 2,2,3
 275 1277 275 1277 378 1375.5 c 128,-1,4
 481 1474 481 1474 644 1474 c 0,5,6
 762 1474 762 1474 837.5 1400 c 128,-1,7
 913 1326 913 1326 896 1206 c 0,8,9
 879 1099 879 1099 804.5 997.5 c 128,-1,10
 730 896 730 896 716 800 c 0,11,12
 701 704 701 704 873.5 565 c 128,-1,13
 1046 426 1046 426 1024 277 c 0,14,15
 1001 130 1001 130 877 54.5 c 128,-1,16
 753 -21 753 -21 612 -21 c 0,17,18
 528 -21 528 -21 437.5 5.5 c 128,-1,19
 347 32 347 32 313 68 c 1,20,-1
 346 117 l 1,21,22
 382 83 382 83 458.5 57.5 c 128,-1,23
 535 32 535 32 612 32 c 0,24,25
 747 32 747 32 850.5 104 c 128,-1,26
 954 176 954 176 971 286 c 0,27,28
 988 406 988 406 815.5 542 c 128,-1,29
 643 678 643 678 662 802 c 0,30,31
 679 913 679 913 751 1017.5 c 128,-1,32
 823 1122 823 1122 836 1208 c 0,33,34
 850 1302 850 1302 792.5 1361 c 128,-1,35
 735 1420 735 1420 646 1420 c 0,36,37
 517 1420 517 1420 420.5 1332 c 128,-1,38
 324 1244 324 1244 300 1082 c 2,39,-1
 138 0 l 1,0,-1
EndSplineSet
Validated: 33
Substitution2: "'smcp' Lowercase to Small Capitals lookup 0 subtable" germandbls.smcp
EndChar

StartChar: ae
Encoding: 230 230 168
Width: 1802
GlyphClass: 1
Flags: W
LayerCount: 2
Fore
SplineSet
1215 -21 m 0,0,1
 1077 -21 1077 -21 983.5 47 c 128,-1,2
 890 115 890 115 854 236 c 1,3,-1
 851 218 l 1,4,-1
 852 218 l 1,5,6
 794 123 794 123 674 51 c 128,-1,7
 554 -21 554 -21 395 -21 c 0,8,9
 232 -21 232 -21 148 62 c 128,-1,10
 64 145 64 145 86 284 c 0,11,12
 107 428 107 428 229 507.5 c 128,-1,13
 351 587 351 587 561 587 c 2,14,-1
 851 587 l 1,15,-1
 871 720 l 2,16,17
 895 882 895 882 836 965 c 128,-1,18
 777 1048 777 1048 638 1048 c 0,19,20
 491 1048 491 1048 389 969.5 c 128,-1,21
 287 891 287 891 270 771 c 1,22,-1
 226 777 l 1,23,-1
 224 783 l 1,24,25
 241 926 241 926 356 1014 c 128,-1,26
 471 1102 471 1102 646 1102 c 0,27,28
 771 1102 771 1102 848.5 1029 c 128,-1,29
 926 956 926 956 932 819 c 1,30,31
 1003 952 1003 952 1118.5 1027 c 128,-1,32
 1234 1102 1234 1102 1368 1102 c 0,33,34
 1549 1102 1549 1102 1642.5 982.5 c 128,-1,35
 1736 863 1736 863 1706 660 c 2,36,-1
 1694 577 l 1,37,-1
 907 577 l 1,38,39
 907 574 907 574 906 569.5 c 128,-1,40
 905 565 905 565 905 564 c 2,41,-1
 895 500 l 2,42,43
 862 285 862 285 942 159 c 128,-1,44
 1022 33 1022 33 1223 33 c 0,45,46
 1321 33 1321 33 1413.5 68 c 128,-1,47
 1506 103 1506 103 1575 164 c 1,48,-1
 1598 122 l 1,49,50
 1524 56 1524 56 1434.5 17.5 c 128,-1,51
 1345 -21 1345 -21 1215 -21 c 0,0,1
402 31 m 0,52,53
 526 31 526 31 646 97 c 128,-1,54
 766 163 766 163 796 225 c 1,55,-1
 842 532 l 1,56,-1
 555 532 l 2,57,58
 377 532 377 532 266 459.5 c 128,-1,59
 155 387 155 387 140 280 c 0,60,61
 122 158 122 158 189 94.5 c 128,-1,62
 256 31 256 31 402 31 c 0,52,53
1360 1048 m 0,63,64
 1207 1048 1207 1048 1085.5 930.5 c 128,-1,65
 964 813 964 813 924 638 c 1,66,-1
 926 632 l 1,67,-1
 1648 632 l 1,68,-1
 1653 664 l 2,69,70
 1679 839 1679 839 1604 943.5 c 128,-1,71
 1529 1048 1529 1048 1360 1048 c 0,63,64
EndSplineSet
Validated: 33
EndChar

StartChar: eth
Encoding: 240 240 178
Width: 1183
GlyphClass: 1
Flags: W
LayerCount: 2
Fore
SplineSet
945 1324 m 1,0,1
 1039 1223 1039 1223 1070.5 1084 c 128,-1,2
 1102 945 1102 945 1074 755 c 2,3,-1
 1041 535 l 2,4,5
 1003 281 1003 281 850.5 130 c 128,-1,6
 698 -21 698 -21 496 -21 c 0,7,8
 304 -21 304 -21 192 114.5 c 128,-1,9
 80 250 80 250 110 446 c 0,10,11
 147 696 147 696 283.5 824.5 c 128,-1,12
 420 953 420 953 634 953 c 0,13,14
 766 953 766 953 870.5 900 c 128,-1,15
 975 847 975 847 1020 754 c 1,16,-1
 1021 757 l 1,17,18
 1049 949 1049 949 1015 1079.5 c 128,-1,19
 981 1210 981 1210 895 1297 c 1,20,-1
 500 1089 l 1,21,-1
 480 1137 l 1,22,-1
 854 1334 l 1,23,24
 806 1372 806 1372 748 1404 c 128,-1,25
 690 1436 690 1436 618 1467 c 1,26,-1
 646 1517 l 1,27,28
 726 1483 726 1483 791 1444.5 c 128,-1,29
 856 1406 856 1406 906 1362 c 1,30,-1
 1189 1511 l 1,31,-1
 1210 1463 l 1,32,-1
 945 1324 l 1,0,1
509 37 m 0,33,34
 681 37 681 37 817.5 178 c 128,-1,35
 954 319 954 319 987 535 c 2,36,-1
 1007 666 l 1,37,38
 979 761 979 761 881 828 c 128,-1,39
 783 895 783 895 625 895 c 0,40,41
 435 895 435 895 314.5 769 c 128,-1,42
 194 643 194 643 165 446 c 0,43,44
 139 276 139 276 230 156.5 c 128,-1,45
 321 37 321 37 509 37 c 0,33,34
EndSplineSet
Validated: 33
Substitution2: "'smcp' Lowercase to Small Capitals lookup 0 subtable" Eth.smcp
EndChar

StartChar: divide
Encoding: 247 247 185
Width: 1159
GlyphClass: 1
Flags: W
LayerCount: 2
Fore
SplineSet
1094 686 m 1,0,-1
 96 686 l 1,1,-1
 104 738 l 1,2,-1
 1102 738 l 1,3,-1
 1094 686 l 1,0,-1
704 1020 m 1,4,-1
 608 1020 l 1,5,-1
 626 1142 l 1,6,-1
 722 1142 l 1,7,-1
 704 1020 l 1,4,-1
587 241 m 1,8,-1
 491 241 l 1,9,-1
 509 363 l 1,10,-1
 605 363 l 1,11,-1
 587 241 l 1,8,-1
EndSplineSet
Validated: 1
EndChar

StartChar: oslash
Encoding: 248 248 186
Width: 1121
GlyphClass: 1
Flags: W
LayerCount: 2
Fore
SplineSet
91 562 m 2,0,1
 128 809 128 809 280 955.5 c 128,-1,2
 432 1102 432 1102 645 1102 c 0,3,4
 704 1102 704 1102 758.5 1087 c 128,-1,5
 813 1072 813 1072 859 1044 c 1,6,-1
 971 1219 l 1,7,-1
 1034 1219 l 1,8,-1
 902 1012 l 1,9,10
 986 940 986 940 1023 823 c 128,-1,11
 1060 706 1060 706 1038 562 c 2,12,-1
 1032 520 l 2,13,14
 994 272 994 272 842.5 125.5 c 128,-1,15
 691 -21 691 -21 479 -21 c 0,16,17
 422 -21 422 -21 371 -8.5 c 128,-1,18
 320 4 320 4 277 30 c 1,19,-1
 166 -145 l 1,20,-1
 103 -145 l 1,21,-1
 233 59 l 1,22,23
 142 129 142 129 102 249.5 c 128,-1,24
 62 370 62 370 85 520 c 2,25,-1
 91 562 l 2,0,1
139 520 m 2,26,27
 118 385 118 385 149.5 277 c 128,-1,28
 181 169 181 169 260 111 c 1,29,-1
 266 110 l 1,30,-1
 830 997 l 1,31,32
 790 1022 790 1022 741.5 1035 c 128,-1,33
 693 1048 693 1048 637 1048 c 0,34,35
 454 1048 454 1048 314 903 c 128,-1,36
 174 758 174 758 145 562 c 2,37,-1
 139 520 l 2,26,27
984 562 m 2,38,39
 1002 688 1002 688 973.5 793 c 128,-1,40
 945 898 945 898 874 958 c 1,41,-1
 868 959 l 1,42,-1
 306 75 l 1,43,44
 344 54 344 54 389 43.5 c 128,-1,45
 434 33 434 33 487 33 c 0,46,47
 669 33 669 33 808 176 c 128,-1,48
 947 319 947 319 978 520 c 2,49,-1
 984 562 l 2,38,39
EndSplineSet
Validated: 33
EndChar

StartChar: thorn
Encoding: 254 254 192
Width: 1121
GlyphClass: 1
Flags: W
LayerCount: 2
Fore
SplineSet
997 521 m 2,0,1
 958 262 958 262 830 120.5 c 128,-1,2
 702 -21 702 -21 510 -21 c 0,3,4
 389 -21 389 -21 302 30 c 128,-1,5
 215 81 215 81 172 167 c 1,6,-1
 147 0 l 1,7,-1
 146 0 l 1,8,-1
 84 -416 l 1,9,-1
 30 -416 l 1,10,-1
 136 297 l 1,11,-1
 136 305 l 1,12,-1
 202 745 l 1,13,-1
 204 751 l 1,14,-1
 254 1082 l 1,15,-1
 255 1082 l 1,16,-1
 327 1560 l 1,17,-1
 381 1560 l 1,18,-1
 281 894 l 1,19,20
 350 991 350 991 450 1046.5 c 128,-1,21
 550 1102 550 1102 676 1102 c 0,22,23
 859 1102 859 1102 948.5 949 c 128,-1,24
 1038 796 1038 796 1000 542 c 2,25,-1
 997 521 l 2,0,1
945 542 m 2,26,27
 979 775 979 775 910.5 911.5 c 128,-1,28
 842 1048 842 1048 669 1048 c 0,29,30
 523 1048 523 1048 422.5 970.5 c 128,-1,31
 322 893 322 893 264 782 c 1,32,-1
 186 263 l 1,33,34
 212 158 212 158 295.5 95.5 c 128,-1,35
 379 33 379 33 519 33 c 0,36,37
 683 33 683 33 796 166.5 c 128,-1,38
 909 300 909 300 942 521 c 2,39,-1
 945 542 l 2,26,27
EndSplineSet
Validated: 33
EndChar

StartChar: Dcroat
Encoding: 272 272 210
Width: 1370
GlyphClass: 1
Flags: W
LayerCount: 2
Fore
SplineSet
120 0 m 1,0,-1
 227 713 l 1,1,-1
 87 713 l 1,2,-1
 95 767 l 1,3,-1
 235 767 l 1,4,-1
 338 1456 l 1,5,-1
 771 1456 l 2,6,7
 1013 1456 1013 1456 1165 1274.5 c 128,-1,8
 1317 1093 1317 1093 1277 817 c 2,9,-1
 1250 639 l 2,10,11
 1206 348 1206 348 1006.5 174 c 128,-1,12
 807 0 807 0 553 0 c 2,13,-1
 120 0 l 1,0,-1
674 713 m 1,14,-1
 281 713 l 1,15,-1
 182 54 l 1,16,-1
 561 54 l 2,17,18
 779 54 779 54 968.5 221.5 c 128,-1,19
 1158 389 1158 389 1196 639 c 2,20,-1
 1223 820 l 2,21,22
 1261 1080 1261 1080 1127 1241 c 128,-1,23
 993 1402 993 1402 763 1402 c 2,24,-1
 384 1402 l 1,25,-1
 289 767 l 1,26,-1
 682 767 l 1,27,-1
 674 713 l 1,14,-1
EndSplineSet
Validated: 33
Substitution2: "'smcp' Lowercase to Small Capitals lookup 0 subtable" Dcroat.smcp
EndChar

StartChar: dcroat
Encoding: 273 273 211
Width: 1121
GlyphClass: 1
Flags: W
LayerCount: 2
Fore
SplineSet
1223 1281 m 1,0,-1
 1062 1281 l 1,1,-1
 982 750 l 2,2,3
 982 748 982 748 982.5 746.5 c 128,-1,4
 983 745 983 745 983 745 c 1,5,-1
 917 304 l 1,6,-1
 914 297 l 1,7,-1
 870 0 l 1,8,-1
 818 0 l 1,9,-1
 842 167 l 1,10,11
 774 81 774 81 672.5 30 c 128,-1,12
 571 -21 571 -21 445 -21 c 0,13,14
 262 -21 262 -21 172.5 126.5 c 128,-1,15
 83 274 83 274 120 521 c 2,16,-1
 123 542 l 2,17,18
 163 809 163 809 292 955.5 c 128,-1,19
 421 1102 421 1102 615 1102 c 0,20,21
 736 1102 736 1102 821.5 1044 c 128,-1,22
 907 986 907 986 949 887 c 1,23,-1
 1008 1281 l 1,24,-1
 636 1281 l 1,25,-1
 644 1335 l 1,26,-1
 1016 1335 l 1,27,-1
 1050 1560 l 1,28,-1
 1104 1560 l 1,29,-1
 1070 1335 l 1,30,-1
 1231 1335 l 1,31,-1
 1223 1281 l 1,0,-1
176 521 m 2,32,33
 141 289 141 289 209.5 161 c 128,-1,34
 278 33 278 33 452 33 c 0,35,36
 588 33 588 33 693.5 98 c 128,-1,37
 799 163 799 163 857 269 c 1,38,-1
 933 776 l 1,39,40
 911 891 911 891 836 969.5 c 128,-1,41
 761 1048 761 1048 606 1048 c 0,42,43
 441 1048 441 1048 326.5 906 c 128,-1,44
 212 764 212 764 179 542 c 2,45,-1
 176 521 l 2,32,33
EndSplineSet
Validated: 33
Substitution2: "'smcp' Lowercase to Small Capitals lookup 0 subtable" Dcroat.smcp
EndChar

StartChar: Hbar
Encoding: 294 294 232
Width: 1389
GlyphClass: 1
Flags: W
LayerCount: 2
Fore
SplineSet
1279 1081 m 1,0,-1
 1434 1081 l 1,1,-1
 1426 1028 l 1,2,-1
 1271 1028 l 1,3,-1
 1117 0 l 1,4,-1
 1063 0 l 1,5,-1
 1167 695 l 1,6,-1
 237 695 l 1,7,-1
 133 0 l 1,8,-1
 79 0 l 1,9,-1
 233 1028 l 1,10,-1
 94 1028 l 1,11,-1
 102 1081 l 1,12,-1
 241 1081 l 1,13,-1
 297 1456 l 1,14,-1
 351 1456 l 1,15,-1
 295 1081 l 1,16,-1
 1225 1081 l 1,17,-1
 1281 1456 l 1,18,-1
 1335 1456 l 1,19,-1
 1279 1081 l 1,0,-1
245 749 m 1,20,-1
 1175 749 l 1,21,-1
 1217 1028 l 1,22,-1
 287 1028 l 1,23,-1
 245 749 l 1,20,-1
EndSplineSet
Validated: 1
EndChar

StartChar: hbar
Encoding: 295 295 233
Width: 1121
GlyphClass: 1
Flags: W
LayerCount: 2
Fore
SplineSet
764 1281 m 1,0,-1
 338 1281 l 1,1,-1
 275 863 l 1,2,3
 343 979 343 979 448.5 1040.5 c 128,-1,4
 554 1102 554 1102 695 1102 c 0,5,6
 858 1102 858 1102 932.5 993.5 c 128,-1,7
 1007 885 1007 885 973 658 c 2,8,-1
 874 0 l 1,9,-1
 819 0 l 1,10,-1
 918 660 l 2,11,12
 951 882 951 882 886.5 965 c 128,-1,13
 822 1048 822 1048 688 1048 c 0,14,15
 522 1048 522 1048 410.5 944 c 128,-1,16
 299 840 299 840 248 681 c 1,17,-1
 146 0 l 1,18,-1
 92 0 l 1,19,-1
 175 554 l 1,20,-1
 173 554 l 1,21,22
 175 570 175 570 178 586.5 c 128,-1,23
 181 603 181 603 185 619 c 2,24,-1
 284 1281 l 1,25,-1
 177 1281 l 1,26,-1
 185 1335 l 1,27,-1
 292 1335 l 1,28,-1
 326 1560 l 1,29,-1
 380 1560 l 1,30,-1
 346 1335 l 1,31,-1
 772 1335 l 1,32,-1
 764 1281 l 1,0,-1
EndSplineSet
Validated: 33
EndChar

StartChar: dotlessi
Encoding: 305 305 243
Width: 406
GlyphClass: 1
Flags: W
LayerCount: 2
Fore
SplineSet
155 0 m 1,0,-1
 101 0 l 1,1,-1
 263 1082 l 1,2,-1
 317 1082 l 1,3,-1
 155 0 l 1,0,-1
EndSplineSet
Validated: 1
EndChar

StartChar: kgreenlandic
Encoding: 312 312 250
Width: 1084
GlyphClass: 1
Flags: W
LayerCount: 2
Fore
SplineSet
393 529 m 1,0,-1
 225 529 l 1,1,-1
 146 0 l 1,2,-1
 91 0 l 1,3,-1
 253 1082 l 1,4,-1
 308 1082 l 1,5,-1
 233 582 l 1,6,-1
 411 582 l 1,7,-1
 975 1082 l 1,8,-1
 1036 1082 l 1,9,-1
 1038 1076 l 1,10,-1
 457 553 l 1,11,-1
 940 5 l 1,12,-1
 938 0 l 1,13,-1
 874 0 l 1,14,-1
 393 529 l 1,0,-1
EndSplineSet
Validated: 1
EndChar

StartChar: Lslash
Encoding: 321 321 259
Width: 1061
GlyphClass: 1
Flags: W
LayerCount: 2
Fore
SplineSet
285 791 m 1,0,-1
 653 902 l 1,1,-1
 645 845 l 1,2,-1
 277 733 l 1,3,-1
 175 54 l 1,4,-1
 962 54 l 1,5,-1
 954 0 l 1,6,-1
 112 0 l 1,7,-1
 219 716 l 1,8,-1
 27 658 l 1,9,-1
 35 715 l 1,10,-1
 227 773 l 1,11,-1
 330 1456 l 1,12,-1
 385 1456 l 1,13,-1
 285 791 l 1,0,-1
EndSplineSet
Validated: 1
EndChar

StartChar: lslash
Encoding: 322 322 260
Width: 505
GlyphClass: 1
Flags: W
LayerCount: 2
Fore
SplineSet
333 850 m 1,0,-1
 547 930 l 1,1,-1
 538 871 l 1,2,-1
 324 791 l 1,3,-1
 206 0 l 1,4,-1
 152 0 l 1,5,-1
 267 769 l 1,6,-1
 40 684 l 1,7,-1
 48 743 l 1,8,-1
 276 828 l 1,9,-1
 386 1560 l 1,10,-1
 440 1560 l 1,11,-1
 333 850 l 1,0,-1
EndSplineSet
Validated: 1
EndChar

StartChar: Eng
Encoding: 330 330 268
Width: 1450
GlyphClass: 1
Flags: W
LayerCount: 2
Fore
SplineSet
1388 1456 m 1,0,-1
 1157 -89 l 2,1,2
 1130 -262 1130 -262 1042.5 -349.5 c 128,-1,3
 955 -437 955 -437 819 -437 c 0,4,5
 790 -437 790 -437 764.5 -432 c 128,-1,6
 739 -427 739 -427 710 -417 c 1,7,-1
 731 -365 l 1,8,9
 748 -372 748 -372 774.5 -377.5 c 128,-1,10
 801 -383 801 -383 828 -383 c 0,11,12
 934 -383 934 -383 1007.5 -305.5 c 128,-1,13
 1081 -228 1081 -228 1103 -89 c 2,14,-1
 1116 0 l 1,15,-1
 383 1356 l 1,16,-1
 377 1355 l 1,17,-1
 174 0 l 1,18,-1
 120 0 l 1,19,-1
 338 1456 l 1,20,-1
 392 1456 l 1,21,-1
 1125 101 l 1,22,-1
 1131 102 l 1,23,-1
 1334 1456 l 1,24,-1
 1388 1456 l 1,0,-1
EndSplineSet
Validated: 1
EndChar

StartChar: eng
Encoding: 331 331 269
Width: 1121
GlyphClass: 1
Flags: W
LayerCount: 2
Fore
SplineSet
276 870 m 1,0,1
 341 982 341 982 443.5 1042 c 128,-1,2
 546 1102 546 1102 685 1102 c 0,3,4
 855 1102 855 1102 930 989 c 128,-1,5
 1005 876 1005 876 970 637 c 2,6,-1
 861 -89 l 2,7,8
 834 -262 834 -262 746.5 -349.5 c 128,-1,9
 659 -437 659 -437 523 -437 c 0,10,11
 488 -437 488 -437 457.5 -432 c 128,-1,12
 427 -427 427 -427 393 -417 c 1,13,-1
 414 -365 l 1,14,15
 434 -372 434 -372 467 -378 c 128,-1,16
 500 -384 500 -384 531 -384 c 0,17,18
 637 -384 637 -384 711 -306 c 128,-1,19
 785 -228 785 -228 807 -89 c 2,20,-1
 916 639 l 2,21,22
 951 874 951 874 885.5 961 c 128,-1,23
 820 1048 820 1048 678 1048 c 0,24,25
 514 1048 514 1048 407 946 c 128,-1,26
 300 844 300 844 249 687 c 1,27,-1
 146 0 l 1,28,-1
 92 0 l 1,29,-1
 175 554 l 1,30,-1
 173 554 l 1,31,32
 175 569 175 569 177.5 584.5 c 128,-1,33
 180 600 180 600 184 619 c 2,34,-1
 254 1082 l 1,35,-1
 300 1082 l 1,36,-1
 276 870 l 1,0,1
EndSplineSet
Validated: 33
EndChar

StartChar: OE
Encoding: 338 338 276
Width: 1873
GlyphClass: 1
Flags: W
LayerCount: 2
Fore
SplineSet
1679 0 m 1,0,-1
 881 0 l 1,1,2
 777 -10 777 -10 701 -15.5 c 128,-1,3
 625 -21 625 -21 548 -21 c 0,4,5
 326 -21 326 -21 202 146.5 c 128,-1,6
 78 314 78 314 118 576 c 2,7,-1
 164 880 l 2,8,9
 205 1155 205 1155 371.5 1316 c 128,-1,10
 538 1477 538 1477 771 1477 c 0,11,12
 847 1477 847 1477 930 1471 c 128,-1,13
 1013 1465 1013 1465 1099 1456 c 1,14,-1
 1897 1456 l 1,15,-1
 1889 1402 l 1,16,-1
 1087 1402 l 1,17,-1
 994 786 l 1,18,-1
 1695 786 l 1,19,-1
 1687 732 l 1,20,-1
 986 732 l 1,21,-1
 885 54 l 1,22,-1
 1687 54 l 1,23,-1
 1679 0 l 1,0,-1
556 33 m 0,24,25
 626 33 626 33 697.5 35.5 c 128,-1,26
 769 38 769 38 830 45 c 1,27,-1
 1034 1411 l 1,28,29
 975 1417 975 1417 907 1420 c 128,-1,30
 839 1423 839 1423 762 1423 c 0,31,32
 559 1423 559 1423 406.5 1272.5 c 128,-1,33
 254 1122 254 1122 218 882 c 2,34,-1
 172 576 l 2,35,36
 135 327 135 327 239.5 180 c 128,-1,37
 344 33 344 33 556 33 c 0,24,25
EndSplineSet
Validated: 33
EndChar

StartChar: oe
Encoding: 339 339 277
Width: 1921
GlyphClass: 1
Flags: W
LayerCount: 2
Fore
SplineSet
1358 -21 m 0,0,1
 1215 -21 1215 -21 1110.5 73.5 c 128,-1,2
 1006 168 1006 168 982 323 c 1,3,4
 912 160 912 160 780 69.5 c 128,-1,5
 648 -21 648 -21 484 -21 c 0,6,7
 281 -21 281 -21 167.5 131.5 c 128,-1,8
 54 284 54 284 90 520 c 2,9,-1
 96 562 l 2,10,11
 133 809 133 809 285 955.5 c 128,-1,12
 437 1102 437 1102 650 1102 c 0,13,14
 807 1102 807 1102 913 1007 c 128,-1,15
 1019 912 1019 912 1044 753 c 1,16,17
 1113 916 1113 916 1243.5 1009 c 128,-1,18
 1374 1102 1374 1102 1531 1102 c 0,19,20
 1705 1102 1705 1102 1797 982 c 128,-1,21
 1889 862 1889 862 1859 660 c 2,22,-1
 1847 577 l 1,23,-1
 1048 577 l 1,24,25
 1048 574 1048 574 1047 569.5 c 128,-1,26
 1046 565 1046 565 1046 564 c 2,27,-1
 1036 500 l 2,28,29
 1005 295 1005 295 1096.5 164 c 128,-1,30
 1188 33 1188 33 1366 33 c 0,31,32
 1459 33 1459 33 1556.5 69 c 128,-1,33
 1654 105 1654 105 1718 165 c 1,34,-1
 1740 123 l 1,35,36
 1675 60 1675 60 1578.5 19.5 c 128,-1,37
 1482 -21 1482 -21 1358 -21 c 0,0,1
144 520 m 2,38,39
 112 309 112 309 204.5 171 c 128,-1,40
 297 33 297 33 492 33 c 0,41,42
 674 33 674 33 813 176 c 128,-1,43
 952 319 952 319 983 520 c 2,44,-1
 989 562 l 2,45,46
 1020 768 1020 768 927 908 c 128,-1,47
 834 1048 834 1048 642 1048 c 0,48,49
 459 1048 459 1048 319 903 c 128,-1,50
 179 758 179 758 150 562 c 2,51,-1
 144 520 l 2,38,39
1523 1048 m 0,52,53
 1362 1048 1362 1048 1234.5 930 c 128,-1,54
 1107 812 1107 812 1065 637 c 1,55,-1
 1067 631 l 1,56,-1
 1801 631 l 1,57,-1
 1806 664 l 2,58,59
 1831 838 1831 838 1757 943 c 128,-1,60
 1683 1048 1683 1048 1523 1048 c 0,52,53
EndSplineSet
Validated: 33
EndChar

StartChar: Tbar
Encoding: 358 358 296
Width: 1224
GlyphClass: 1
Flags: W
LayerCount: 2
Fore
SplineSet
953 847 m 1,0,-1
 704 847 l 1,1,-1
 577 0 l 1,2,-1
 523 0 l 1,3,-1
 650 847 l 1,4,-1
 366 847 l 1,5,-1
 374 901 l 1,6,-1
 658 901 l 1,7,-1
 733 1402 l 1,8,-1
 187 1402 l 1,9,-1
 195 1456 l 1,10,-1
 1305 1456 l 1,11,-1
 1297 1402 l 1,12,-1
 787 1402 l 1,13,-1
 712 901 l 1,14,-1
 961 901 l 1,15,-1
 953 847 l 1,0,-1
EndSplineSet
Validated: 1
Substitution2: "'smcp' Lowercase to Small Capitals lookup 0 subtable" Tbar.smcp
EndChar

StartChar: tbar
Encoding: 359 359 297
Width: 633
GlyphClass: 1
Flags: W
LayerCount: 2
Fore
SplineSet
410 1374 m 1,0,-1
 366 1082 l 1,1,-1
 632 1082 l 1,2,-1
 624 1027 l 1,3,-1
 358 1027 l 1,4,-1
 307 688 l 1,5,-1
 642 688 l 1,6,-1
 634 634 l 1,7,-1
 299 634 l 1,8,-1
 246 279 l 2,9,10
 225 141 225 141 261.5 87 c 128,-1,11
 298 33 298 33 373 33 c 0,12,13
 399 33 399 33 422 35 c 128,-1,14
 445 37 445 37 480 42 c 1,15,-1
 483 -7 l 1,16,17
 456 -15 456 -15 429 -18 c 128,-1,18
 402 -21 402 -21 368 -21 c 0,19,20
 263 -21 263 -21 215 51 c 128,-1,21
 167 123 167 123 191 279 c 2,22,-1
 244 634 l 1,23,-1
 47 634 l 1,24,-1
 55 688 l 1,25,-1
 252 688 l 1,26,-1
 303 1027 l 1,27,-1
 103 1027 l 1,28,-1
 111 1082 l 1,29,-1
 311 1082 l 1,30,-1
 355 1374 l 1,31,-1
 410 1374 l 1,0,-1
EndSplineSet
Validated: 33
Substitution2: "'smcp' Lowercase to Small Capitals lookup 0 subtable" Tbar.smcp
EndChar

StartChar: longs
Encoding: 383 383 321
Width: 422
GlyphClass: 1
Flags: W
LayerCount: 2
Fore
SplineSet
94 0 m 1,0,-1
 283 1260 l 2,1,2
 307 1419 307 1419 392.5 1500 c 128,-1,3
 478 1581 478 1581 613 1581 c 0,4,5
 646 1581 646 1581 678.5 1577 c 128,-1,6
 711 1573 711 1573 739 1564 c 1,7,-1
 723 1512 l 1,8,9
 693 1520 693 1520 668.5 1523.5 c 128,-1,10
 644 1527 644 1527 606 1527 c 0,11,12
 502 1527 502 1527 428.5 1455.5 c 128,-1,13
 355 1384 355 1384 337 1260 c 2,14,-1
 148 0 l 1,15,-1
 94 0 l 1,0,-1
EndSplineSet
Validated: 1
EndChar

StartChar: florin
Encoding: 402 402 322
Width: 644
GlyphClass: 1
Flags: W
LayerCount: 2
Fore
SplineSet
662 1027 m 1,0,-1
 376 1027 l 1,1,-1
 220 -89 l 2,2,3
 195 -262 195 -262 108.5 -349.5 c 128,-1,4
 22 -437 22 -437 -114 -437 c 0,5,6
 -142 -437 -142 -437 -168 -432 c 128,-1,7
 -194 -427 -194 -427 -223 -417 c 1,8,-1
 -203 -365 l 1,9,10
 -185 -371 -185 -371 -158.5 -377 c 128,-1,11
 -132 -383 -132 -383 -107 -383 c 0,12,13
 0 -383 0 -383 72.5 -305.5 c 128,-1,14
 145 -228 145 -228 166 -89 c 2,15,-1
 322 1027 l 1,16,-1
 134 1027 l 1,17,-1
 141 1082 l 1,18,-1
 329 1082 l 1,19,-1
 354 1260 l 2,20,21
 376 1419 376 1419 461.5 1500 c 128,-1,22
 547 1581 547 1581 682 1581 c 0,23,24
 714 1581 714 1581 747 1577 c 128,-1,25
 780 1573 780 1573 808 1564 c 1,26,-1
 793 1512 l 1,27,28
 762 1520 762 1520 738 1523.5 c 128,-1,29
 714 1527 714 1527 676 1527 c 0,30,31
 572 1527 572 1527 498.5 1455.5 c 128,-1,32
 425 1384 425 1384 408 1260 c 2,33,-1
 383 1082 l 1,34,-1
 669 1082 l 1,35,-1
 662 1027 l 1,0,-1
EndSplineSet
Validated: 1
EndChar

StartChar: Ohorn
Encoding: 416 416 323
Width: 1451
GlyphClass: 1
Flags: W
LayerCount: 2
Fore
SplineSet
1275 619 m 2,0,1
 1229 313 1229 313 1059.5 146 c 128,-1,2
 890 -21 890 -21 631 -21 c 0,3,4
 384 -21 384 -21 258.5 153.5 c 128,-1,5
 133 328 133 328 177 619 c 2,6,-1
 210 837 l 2,7,8
 255 1142 255 1142 424.5 1309.5 c 128,-1,9
 594 1477 594 1477 854 1477 c 0,10,11
 997 1477 997 1477 1102.5 1414.5 c 128,-1,12
 1208 1352 1208 1352 1264 1238 c 1,13,14
 1414 1241 1414 1241 1511 1335 c 128,-1,15
 1608 1429 1608 1429 1635 1601 c 1,16,-1
 1681 1601 l 1,17,-1
 1684 1595 l 1,18,19
 1657 1401 1657 1401 1554 1298.5 c 128,-1,20
 1451 1196 1451 1196 1285 1185 c 1,21,22
 1310 1112 1310 1112 1316 1024 c 128,-1,23
 1322 936 1322 936 1308 837 c 2,24,-1
 1275 619 l 2,0,1
1254 839 m 2,25,26
 1295 1118 1295 1118 1190.5 1270.5 c 128,-1,27
 1086 1423 1086 1423 845 1423 c 0,28,29
 617 1423 617 1423 461 1263.5 c 128,-1,30
 305 1104 305 1104 265 839 c 2,31,-1
 232 619 l 2,32,33
 189 338 189 338 294 185.5 c 128,-1,34
 399 33 399 33 639 33 c 0,35,36
 868 33 868 33 1024 192.5 c 128,-1,37
 1180 352 1180 352 1221 619 c 2,38,-1
 1254 839 l 2,25,26
EndSplineSet
Validated: 33
EndChar

StartChar: ohorn
Encoding: 417 417 324
Width: 1122
GlyphClass: 1
Flags: W
LayerCount: 2
Fore
SplineSet
91 562 m 2,0,1
 128 809 128 809 280 955.5 c 128,-1,2
 432 1102 432 1102 645 1102 c 0,3,4
 743 1102 743 1102 824 1063 c 128,-1,5
 905 1024 905 1024 959 953 c 1,6,7
 1094 953 1094 953 1181.5 1032 c 128,-1,8
 1269 1111 1269 1111 1291 1256 c 1,9,-1
 1338 1256 l 1,10,-1
 1340 1250 l 1,11,12
 1319 1086 1319 1086 1228.5 998 c 128,-1,13
 1138 910 1138 910 992 900 c 1,14,15
 1028 830 1028 830 1040 744 c 128,-1,16
 1052 658 1052 658 1038 562 c 2,17,-1
 1032 520 l 2,18,19
 994 272 994 272 842.5 125.5 c 128,-1,20
 691 -21 691 -21 479 -21 c 0,21,22
 276 -21 276 -21 162.5 131.5 c 128,-1,23
 49 284 49 284 85 520 c 2,24,-1
 91 562 l 2,0,1
139 520 m 2,25,26
 107 309 107 309 199.5 171 c 128,-1,27
 292 33 292 33 487 33 c 0,28,29
 669 33 669 33 808 176 c 128,-1,30
 947 319 947 319 978 520 c 2,31,-1
 984 562 l 2,32,33
 1015 768 1015 768 922 908 c 128,-1,34
 829 1048 829 1048 637 1048 c 0,35,36
 454 1048 454 1048 314 903 c 128,-1,37
 174 758 174 758 145 562 c 2,38,-1
 139 520 l 2,25,26
EndSplineSet
Validated: 33
EndChar

StartChar: Uhorn
Encoding: 431 431 325
Width: 1365
GlyphClass: 1
Flags: W
LayerCount: 2
Fore
SplineSet
1743 1621 m 1,0,-1
 1745 1615 l 1,1,2
 1717 1409 1717 1409 1599 1307 c 128,-1,3
 1481 1205 1481 1205 1292 1210 c 1,4,-1
 1286 1213 l 1,5,-1
 1293 1258 l 1,6,7
 1458 1258 1458 1258 1564 1352 c 128,-1,8
 1670 1446 1670 1446 1697 1621 c 1,9,-1
 1743 1621 l 1,0,-1
1318 1456 m 1,10,-1
 1173 489 l 2,11,12
 1136 240 1136 240 979 109.5 c 128,-1,13
 822 -21 822 -21 600 -21 c 0,14,15
 388 -21 388 -21 265 115.5 c 128,-1,16
 142 252 142 252 178 489 c 2,17,-1
 323 1456 l 1,18,-1
 377 1456 l 1,19,-1
 232 489 l 2,20,21
 199 274 199 274 305.5 153.5 c 128,-1,22
 412 33 412 33 608 33 c 0,23,24
 793 33 793 33 940.5 158.5 c 128,-1,25
 1088 284 1088 284 1119 489 c 2,26,-1
 1264 1456 l 1,27,-1
 1318 1456 l 1,10,-1
EndSplineSet
Validated: 33
EndChar

StartChar: uhorn
Encoding: 432 432 326
Width: 1121
GlyphClass: 1
Flags: W
LayerCount: 2
Fore
SplineSet
1380 1270 m 1,0,-1
 1382 1264 l 1,1,2
 1359 1089 1359 1089 1260.5 995.5 c 128,-1,3
 1162 902 1162 902 1003 893 c 1,4,-1
 936 445 l 1,5,-1
 939 445 l 1,6,7
 942 461 942 461 936 427 c 128,-1,8
 930 393 930 393 927 381 c 2,9,-1
 870 0 l 1,10,-1
 825 0 l 1,11,-1
 845 185 l 1,12,13
 779 85 779 85 677.5 32 c 128,-1,14
 576 -21 576 -21 441 -21 c 0,15,16
 280 -21 280 -21 200 99 c 128,-1,17
 120 219 120 219 158 465 c 2,18,-1
 250 1082 l 1,19,-1
 304 1082 l 1,20,-1
 211 463 l 2,21,22
 176 234 176 234 241 133.5 c 128,-1,23
 306 33 306 33 447 33 c 0,24,25
 608 33 608 33 713 116.5 c 128,-1,26
 818 200 818 200 865 335 c 1,27,-1
 977 1082 l 1,28,-1
 1032 1082 l 1,29,-1
 1012 957 l 1,30,-1
 1018 954 l 1,31,32
 1143 959 1143 959 1226.5 1041.5 c 128,-1,33
 1310 1124 1310 1124 1333 1270 c 1,34,-1
 1380 1270 l 1,0,-1
EndSplineSet
Validated: 33
EndChar

StartChar: uni0237
Encoding: 567 567 336
Width: 422
GlyphClass: 1
Flags: W
LayerCount: 2
Fore
SplineSet
322 1082 m 1,0,-1
 147 -89 l 2,1,2
 120 -262 120 -262 33 -349.5 c 128,-1,3
 -54 -437 -54 -437 -191 -437 c 0,4,5
 -219 -437 -219 -437 -245 -432 c 128,-1,6
 -271 -427 -271 -427 -300 -417 c 1,7,-1
 -279 -365 l 1,8,9
 -261 -371 -261 -371 -234 -377 c 128,-1,10
 -207 -383 -207 -383 -182 -383 c 0,11,12
 -75 -383 -75 -383 -2 -305.5 c 128,-1,13
 71 -228 71 -228 93 -89 c 2,14,-1
 268 1082 l 1,15,-1
 322 1082 l 1,0,-1
EndSplineSet
Validated: 1
EndChar

StartChar: circumflex
Encoding: 710 710 338
Width: 796
GlyphClass: 1
Flags: W
LayerCount: 2
Fore
SplineSet
766 1265 m 1,0,-1
 764 1252 l 1,1,-1
 694 1252 l 1,2,-1
 537 1438 l 1,3,-1
 326 1252 l 1,4,-1
 260 1252 l 1,5,-1
 262 1269 l 1,6,-1
 503 1475 l 1,7,-1
 583 1475 l 1,8,-1
 766 1265 l 1,0,-1
EndSplineSet
Validated: 1
EndChar

StartChar: caron
Encoding: 711 711 339
Width: 764
GlyphClass: 1
Flags: W
LayerCount: 2
Fore
SplineSet
499 1288 m 1,0,-1
 711 1475 l 1,1,-1
 778 1475 l 1,2,-1
 776 1459 l 1,3,-1
 533 1252 l 1,4,-1
 454 1252 l 1,5,-1
 271 1461 l 1,6,-1
 273 1475 l 1,7,-1
 344 1475 l 1,8,-1
 499 1288 l 1,0,-1
EndSplineSet
Validated: 1
EndChar

StartChar: breve
Encoding: 728 728 340
Width: 857
GlyphClass: 1
Flags: W
LayerCount: 2
Fore
SplineSet
824 1456 m 1,0,-1
 826 1450 l 1,1,2
 814 1339 814 1339 731.5 1273.5 c 128,-1,3
 649 1208 649 1208 520 1208 c 0,4,5
 396 1208 396 1208 328.5 1276 c 128,-1,6
 261 1344 261 1344 281 1450 c 1,7,-1
 284 1456 l 1,8,-1
 330 1456 l 1,9,10
 317 1367 317 1367 363.5 1315.5 c 128,-1,11
 410 1264 410 1264 528 1264 c 0,12,13
 635 1264 635 1264 701 1318.5 c 128,-1,14
 767 1373 767 1373 779 1456 c 1,15,-1
 824 1456 l 1,0,-1
EndSplineSet
Validated: 33
EndChar

StartChar: dotaccent
Encoding: 729 729 341
Width: 429
GlyphClass: 1
Flags: W
LayerCount: 2
Fore
SplineSet
368 1318 m 1,0,-1
 273 1318 l 1,1,-1
 293 1456 l 1,2,-1
 388 1456 l 1,3,-1
 368 1318 l 1,0,-1
EndSplineSet
Validated: 1
EndChar

StartChar: ring
Encoding: 730 730 342
Width: 660
GlyphClass: 1
Flags: W
LayerCount: 2
Fore
SplineSet
325 1338 m 0,0,1
 333 1397 333 1397 379 1437 c 128,-1,2
 425 1477 425 1477 482 1477 c 0,3,4
 534 1477 534 1477 568 1435.5 c 128,-1,5
 602 1394 602 1394 594 1338 c 0,6,7
 585 1279 585 1279 540 1241 c 128,-1,8
 495 1203 495 1203 440 1203 c 0,9,10
 386 1203 386 1203 351 1242.5 c 128,-1,11
 316 1282 316 1282 325 1338 c 0,0,1
382 1338 m 0,12,13
 376 1302 376 1302 395.5 1280.5 c 128,-1,14
 415 1259 415 1259 449 1259 c 0,15,16
 480 1259 480 1259 505.5 1281.5 c 128,-1,17
 531 1304 531 1304 537 1338 c 0,18,19
 542 1374 542 1374 523.5 1397 c 128,-1,20
 505 1420 505 1420 473 1420 c 256,21,22
 441 1420 441 1420 414 1396.5 c 128,-1,23
 387 1373 387 1373 382 1338 c 0,12,13
EndSplineSet
Validated: 33
EndChar

StartChar: ogonek
Encoding: 731 731 343
Width: 471
GlyphClass: 1
Flags: W
LayerCount: 2
Fore
SplineSet
233 0 m 1,0,1
 147 -69 147 -69 103.5 -116.5 c 128,-1,2
 60 -164 60 -164 52 -223 c 0,3,4
 47 -244 47 -244 59.5 -273.5 c 128,-1,5
 72 -303 72 -303 124 -303 c 0,6,7
 157 -303 157 -303 185 -292 c 128,-1,8
 213 -281 213 -281 239 -265 c 1,9,-1
 248 -313 l 1,10,11
 221 -331 221 -331 188.5 -344 c 128,-1,12
 156 -357 156 -357 115 -357 c 0,13,14
 56 -357 56 -357 22 -321.5 c 128,-1,15
 -12 -286 -12 -286 -2 -223 c 0,16,17
 6 -160 6 -160 57 -99 c 128,-1,18
 108 -38 108 -38 184 20 c 1,19,-1
 233 0 l 1,0,1
EndSplineSet
Validated: 33
EndChar

StartChar: tilde
Encoding: 732 732 344
Width: 818
GlyphClass: 1
Flags: W
LayerCount: 2
Fore
SplineSet
845 1472 m 1,0,1
 833 1386 833 1386 775.5 1336 c 128,-1,2
 718 1286 718 1286 643 1286 c 0,3,4
 572 1286 572 1286 501 1348.5 c 128,-1,5
 430 1411 430 1411 374 1411 c 0,6,7
 323 1411 323 1411 282 1373.5 c 128,-1,8
 241 1336 241 1336 234 1276 c 1,9,-1
 180 1286 l 1,10,11
 191 1370 191 1370 247 1417.5 c 128,-1,12
 303 1465 303 1465 381 1465 c 0,13,14
 449 1465 449 1465 523 1403 c 128,-1,15
 597 1341 597 1341 651 1341 c 0,16,17
 699 1341 699 1341 740.5 1380.5 c 128,-1,18
 782 1420 782 1420 791 1482 c 1,19,-1
 845 1472 l 1,0,1
EndSplineSet
Validated: 1
EndChar

StartChar: hungarumlaut
Encoding: 733 733 345
Width: 783
GlyphClass: 1
Flags: W
LayerCount: 2
Fore
SplineSet
820 1518 m 1,0,-1
 891 1518 l 1,1,-1
 893 1512 l 1,2,-1
 562 1252 l 1,3,-1
 498 1252 l 1,4,-1
 496 1258 l 1,5,-1
 820 1518 l 1,0,-1
550 1518 m 1,6,-1
 618 1518 l 1,7,-1
 620 1512 l 1,8,-1
 333 1252 l 1,9,-1
 272 1252 l 1,10,-1
 270 1258 l 1,11,-1
 550 1518 l 1,6,-1
EndSplineSet
Validated: 1
EndChar

StartChar: uni02F3
Encoding: 755 755 346
Width: 642
GlyphClass: 1
Flags: W
LayerCount: 2
Fore
SplineSet
73 -219 m 0,0,1
 80 -168 80 -168 125.5 -133.5 c 128,-1,2
 171 -99 171 -99 228 -99 c 0,3,4
 280 -99 280 -99 315 -134.5 c 128,-1,5
 350 -170 350 -170 343 -219 c 0,6,7
 335 -269 335 -269 291.5 -302 c 128,-1,8
 248 -335 248 -335 193 -335 c 0,9,10
 139 -335 139 -335 102 -300.5 c 128,-1,11
 65 -266 65 -266 73 -219 c 0,0,1
131 -219 m 256,12,13
 127 -246 127 -246 147 -262.5 c 128,-1,14
 167 -279 167 -279 201 -279 c 0,15,16
 232 -279 232 -279 257 -261.5 c 128,-1,17
 282 -244 282 -244 286 -219 c 0,18,19
 290 -191 290 -191 270.5 -174 c 128,-1,20
 251 -157 251 -157 219 -157 c 256,21,22
 187 -157 187 -157 161 -174.5 c 128,-1,23
 135 -192 135 -192 131 -219 c 256,12,13
EndSplineSet
Validated: 33
EndChar

StartChar: hook
Encoding: 777 777 350
Width: 0
GlyphClass: 1
Flags: W
LayerCount: 2
Fore
SplineSet
-494 1227 m 1,0,-1
 -479 1326 l 1,1,2
 -375 1334 -375 1334 -328 1358.5 c 128,-1,3
 -281 1383 -281 1383 -273 1440 c 0,4,5
 -264 1497 -264 1497 -332 1523.5 c 128,-1,6
 -400 1550 -400 1550 -493 1550 c 1,7,-1
 -478 1599 l 1,8,9
 -349 1599 -349 1599 -277 1557.5 c 128,-1,10
 -205 1516 -205 1516 -217 1440 c 0,11,12
 -228 1364 -228 1364 -288 1325.5 c 128,-1,13
 -348 1287 -348 1287 -438 1281 c 1,14,-1
 -446 1227 l 1,15,-1
 -494 1227 l 1,0,-1
EndSplineSet
Validated: 33
EndChar

StartChar: uni030F
Encoding: 783 783 351
Width: 0
GlyphClass: 1
Flags: W
LayerCount: 2
Fore
SplineSet
-495 1258 m 1,0,-1
 -498 1252 l 1,1,-1
 -563 1252 l 1,2,-1
 -816 1512 l 1,3,-1
 -813 1518 l 1,4,-1
 -741 1518 l 1,5,-1
 -495 1258 l 1,0,-1
-265 1252 m 1,6,-1
 -334 1252 l 1,7,-1
 -543 1513 l 1,8,-1
 -540 1518 l 1,9,-1
 -471 1518 l 1,10,-1
 -265 1252 l 1,6,-1
EndSplineSet
Validated: 1
EndChar

StartChar: dotbelow
Encoding: 803 803 352
Width: 0
GlyphClass: 1
Flags: W
LayerCount: 2
Fore
SplineSet
-655 -295 m 1,0,-1
 -750 -295 l 1,1,-1
 -730 -157 l 1,2,-1
 -635 -157 l 1,3,-1
 -655 -295 l 1,0,-1
EndSplineSet
Validated: 1
EndChar

StartChar: tonos
Encoding: 900 900 353
Width: 514
GlyphClass: 1
Flags: W
LayerCount: 2
Fore
SplineSet
409 1516 m 1,0,-1
 515 1516 l 1,1,-1
 382 1335 l 1,2,-1
 349 1335 l 1,3,-1
 409 1516 l 1,0,-1
EndSplineSet
Validated: 1
EndChar

StartChar: dieresistonos
Encoding: 901 901 354
Width: 928
GlyphClass: 1
Flags: W
LayerCount: 2
Fore
SplineSet
893 1348 m 1,0,-1
 767 1348 l 1,1,-1
 783 1456 l 1,2,-1
 909 1456 l 1,3,-1
 893 1348 l 1,0,-1
414 1348 m 1,4,-1
 287 1348 l 1,5,-1
 303 1456 l 1,6,-1
 430 1456 l 1,7,-1
 414 1348 l 1,4,-1
635 1657 m 1,8,-1
 765 1657 l 1,9,-1
 768 1652 l 1,10,-1
 627 1477 l 1,11,-1
 585 1477 l 1,12,-1
 635 1657 l 1,8,-1
EndSplineSet
Validated: 1
EndChar

StartChar: Gamma
Encoding: 915 915 366
Width: 1122
GlyphClass: 1
Flags: W
LayerCount: 2
Fore
SplineSet
1185 1402 m 1,0,-1
 377 1402 l 1,1,-1
 167 0 l 1,2,-1
 113 0 l 1,3,-1
 331 1456 l 1,4,-1
 1193 1456 l 1,5,-1
 1185 1402 l 1,0,-1
EndSplineSet
Validated: 1
EndChar

StartChar: Delta
Encoding: 916 916 367
AltUni2: 002206.ffffffff.0 002206.ffffffff.0
Width: 1411
GlyphClass: 1
Flags: W
LayerCount: 2
Fore
SplineSet
877 1456 m 1,0,-1
 1276 0 l 1,1,-1
 -22 0 l 1,2,-1
 812 1456 l 1,3,-1
 877 1456 l 1,0,-1
68 54 m 1,4,-1
 1201 54 l 1,5,-1
 855 1325 l 1,6,-1
 838 1397 l 1,7,-1
 832 1397 l 1,8,-1
 795 1325 l 1,9,-1
 68 54 l 1,4,-1
EndSplineSet
Validated: 1
EndChar

StartChar: Theta
Encoding: 920 920 371
Width: 1364
GlyphClass: 1
Flags: W
LayerCount: 2
Fore
SplineSet
995 691 m 1,0,-1
 404 691 l 1,1,-1
 412 744 l 1,2,-1
 1003 744 l 1,3,-1
 995 691 l 1,0,-1
1244 619 m 2,4,5
 1198 313 1198 313 1028.5 146 c 128,-1,6
 859 -21 859 -21 600 -21 c 0,7,8
 353 -21 353 -21 227.5 153.5 c 128,-1,9
 102 328 102 328 146 619 c 2,10,-1
 179 837 l 2,11,12
 224 1142 224 1142 393.5 1309.5 c 128,-1,13
 563 1477 563 1477 823 1477 c 0,14,15
 1070 1477 1070 1477 1195 1302.5 c 128,-1,16
 1320 1128 1320 1128 1277 837 c 2,17,-1
 1244 619 l 2,4,5
1223 839 m 2,18,19
 1264 1118 1264 1118 1159.5 1270.5 c 128,-1,20
 1055 1423 1055 1423 814 1423 c 0,21,22
 586 1423 586 1423 430 1263.5 c 128,-1,23
 274 1104 274 1104 234 839 c 2,24,-1
 201 619 l 2,25,26
 158 338 158 338 263 185.5 c 128,-1,27
 368 33 368 33 608 33 c 0,28,29
 837 33 837 33 993 192.5 c 128,-1,30
 1149 352 1149 352 1190 619 c 2,31,-1
 1223 839 l 2,18,19
EndSplineSet
Validated: 33
EndChar

StartChar: Lambda
Encoding: 923 923 374
Width: 1313
GlyphClass: 1
Flags: W
LayerCount: 2
Fore
SplineSet
66 0 m 1,0,-1
 7 0 l 1,1,-1
 759 1456 l 1,2,-1
 824 1456 l 1,3,-1
 1141 0 l 1,4,-1
 1082 0 l 1,5,-1
 799 1304 l 1,6,-1
 784 1387 l 1,7,-1
 778 1388 l 1,8,-1
 739 1304 l 1,9,-1
 66 0 l 1,0,-1
EndSplineSet
Validated: 1
EndChar

StartChar: Xi
Encoding: 926 926 377
Width: 1121
GlyphClass: 1
Flags: W
LayerCount: 2
Fore
SplineSet
40 54 m 1,0,-1
 945 54 l 1,1,-1
 937 0 l 1,2,-1
 32 0 l 1,3,-1
 40 54 l 1,0,-1
251 741 m 1,4,-1
 932 741 l 1,5,-1
 924 687 l 1,6,-1
 243 687 l 1,7,-1
 251 741 l 1,4,-1
271 1456 m 1,8,-1
 1116 1456 l 1,9,-1
 1108 1403 l 1,10,-1
 263 1403 l 1,11,-1
 271 1456 l 1,8,-1
EndSplineSet
Validated: 1
EndChar

StartChar: Pi
Encoding: 928 928 379
Width: 1438
GlyphClass: 1
Flags: W
LayerCount: 2
Fore
SplineSet
1158 0 m 1,0,-1
 1104 0 l 1,1,-1
 1314 1402 l 1,2,-1
 384 1402 l 1,3,-1
 174 0 l 1,4,-1
 120 0 l 1,5,-1
 338 1456 l 1,6,-1
 1376 1456 l 1,7,-1
 1158 0 l 1,0,-1
EndSplineSet
Validated: 1
EndChar

StartChar: Sigma
Encoding: 931 931 381
Width: 1121
GlyphClass: 1
Flags: W
LayerCount: 2
Fore
SplineSet
691 768 m 1,0,-1
 66 59 l 1,1,-1
 68 54 l 1,2,-1
 977 54 l 1,3,-1
 969 0 l 1,4,-1
 -23 0 l 1,5,-1
 -16 44 l 1,6,-1
 642 787 l 1,7,-1
 189 1412 l 1,8,-1
 195 1456 l 1,9,-1
 232 1456 l 1,10,-1
 233 1453 l 1,11,-1
 234 1456 l 1,12,-1
 1127 1456 l 1,13,-1
 1119 1403 l 1,14,-1
 270 1403 l 1,15,-1
 698 815 l 1,16,-1
 691 768 l 1,0,-1
EndSplineSet
Validated: 1
EndChar

StartChar: Phi
Encoding: 934 934 384
Width: 1428
GlyphClass: 1
Flags: W
LayerCount: 2
Fore
SplineSet
844 1225 m 1,0,1
 1091 1218 1091 1218 1228 1072.5 c 128,-1,2
 1365 927 1365 927 1334 719 c 0,3,4
 1301 498 1301 498 1126.5 356.5 c 128,-1,5
 952 215 952 215 692 209 c 1,6,-1
 661 0 l 1,7,-1
 606 0 l 1,8,-1
 637 209 l 1,9,10
 390 217 390 217 255 362 c 128,-1,11
 120 507 120 507 152 717 c 0,12,13
 184 935 184 935 356.5 1076 c 128,-1,14
 529 1217 529 1217 789 1225 c 1,15,-1
 824 1456 l 1,16,-1
 879 1456 l 1,17,-1
 844 1225 l 1,0,1
1279 719 m 0,18,19
 1308 918 1308 918 1189.5 1041.5 c 128,-1,20
 1071 1165 1071 1165 836 1171 c 1,21,-1
 701 271 l 1,22,-1
 706 268 l 1,23,24
 928 270 928 270 1089 398.5 c 128,-1,25
 1250 527 1250 527 1279 719 c 0,18,19
207 717 m 0,26,27
 176 516 176 516 293 392.5 c 128,-1,28
 410 269 410 269 645 263 c 1,29,-1
 780 1163 l 1,30,-1
 775 1166 l 1,31,32
 555 1162 555 1162 395 1033.5 c 128,-1,33
 235 905 235 905 207 717 c 0,26,27
EndSplineSet
Validated: 33
EndChar

StartChar: Psi
Encoding: 936 936 386
Width: 1428
GlyphClass: 1
Flags: W
LayerCount: 2
Fore
SplineSet
726 440 m 1,0,-1
 732 437 l 1,1,2
 932 437 932 437 1087.5 566 c 128,-1,3
 1243 695 1243 695 1276 906 c 2,4,-1
 1358 1456 l 1,5,-1
 1412 1456 l 1,6,-1
 1330 906 l 2,7,8
 1292 651 1292 651 1125.5 515.5 c 128,-1,9
 959 380 959 380 717 376 c 1,10,-1
 661 0 l 1,11,-1
 606 0 l 1,12,-1
 662 376 l 1,13,14
 433 383 433 383 304 524 c 128,-1,15
 175 665 175 665 212 906 c 2,16,-1
 294 1456 l 1,17,-1
 349 1456 l 1,18,-1
 267 906 l 2,19,20
 234 686 234 686 345 562 c 128,-1,21
 456 438 456 438 665 437 c 1,22,-1
 671 438 l 1,23,-1
 824 1456 l 1,24,-1
 879 1456 l 1,25,-1
 726 440 l 1,0,-1
EndSplineSet
Validated: 33
EndChar

StartChar: Omega
Encoding: 937 937 387
AltUni2: 002126.ffffffff.0 002126.ffffffff.0
Width: 1321
GlyphClass: 1
Flags: W
LayerCount: 2
Fore
SplineSet
689 54 m 1,0,-1
 693 78 l 1,1,2
 858 155 858 155 983.5 308 c 128,-1,3
 1109 461 1109 461 1150 732 c 2,4,-1
 1168 851 l 2,5,6
 1205 1105 1205 1105 1102 1264 c 128,-1,7
 999 1423 999 1423 788 1423 c 0,8,9
 587 1423 587 1423 431.5 1258 c 128,-1,10
 276 1093 276 1093 240 851 c 2,11,-1
 222 732 l 2,12,13
 179 449 179 449 260 303 c 128,-1,14
 341 157 341 157 489 78 c 1,15,-1
 480 19 l 1,16,-1
 477 0 l 1,17,-1
 42 0 l 1,18,-1
 50 54 l 1,19,-1
 417 54 l 1,20,21
 278 141 278 141 203 306.5 c 128,-1,22
 128 472 128 472 168 732 c 2,23,-1
 185 849 l 2,24,25
 229 1142 229 1142 395.5 1309.5 c 128,-1,26
 562 1477 562 1477 797 1477 c 0,27,28
 1019 1477 1019 1477 1141 1302.5 c 128,-1,29
 1263 1128 1263 1128 1221 849 c 2,30,-1
 1204 732 l 2,31,32
 1163 462 1163 462 1042 301.5 c 128,-1,33
 921 141 921 141 757 54 c 1,34,-1
 1123 54 l 1,35,-1
 1115 0 l 1,36,-1
 681 0 l 1,37,-1
 689 54 l 1,0,-1
EndSplineSet
Validated: 33
EndChar

StartChar: alpha
Encoding: 945 945 395
Width: 1149
GlyphClass: 1
Flags: W
LayerCount: 2
Fore
SplineSet
1032 1081 m 1,0,-1
 982 751 l 2,1,2
 982 750 982 750 982.5 748 c 128,-1,3
 983 746 983 746 983 745 c 2,4,-1
 917 304 l 1,5,-1
 914 295 l 1,6,-1
 905 235 l 2,7,8
 888 119 888 119 913 75.5 c 128,-1,9
 938 32 938 32 998 32 c 0,10,11
 1013 32 1013 32 1026.5 34 c 128,-1,12
 1040 36 1040 36 1064 42 c 1,13,-1
 1068 -7 l 1,14,15
 1050 -15 1050 -15 1032 -18 c 128,-1,16
 1014 -21 1014 -21 993 -21 c 0,17,18
 914 -21 914 -21 876.5 24.5 c 128,-1,19
 839 70 839 70 844 171 c 1,20,21
 776 83 776 83 674 31 c 128,-1,22
 572 -21 572 -21 445 -21 c 0,23,24
 262 -21 262 -21 172.5 126.5 c 128,-1,25
 83 274 83 274 120 521 c 2,26,-1
 123 542 l 2,27,28
 163 809 163 809 292 955.5 c 128,-1,29
 421 1102 421 1102 615 1102 c 0,30,31
 738 1102 738 1102 823.5 1043 c 128,-1,32
 909 984 909 984 951 883 c 1,33,-1
 997 1081 l 1,34,-1
 1032 1081 l 1,0,-1
176 521 m 2,35,36
 141 289 141 289 209.5 161 c 128,-1,37
 278 33 278 33 452 33 c 0,38,39
 587 33 587 33 692 97 c 128,-1,40
 797 161 797 161 856 267 c 1,41,-1
 932 777 l 1,42,43
 910 892 910 892 835 970 c 128,-1,44
 760 1048 760 1048 606 1048 c 0,45,46
 441 1048 441 1048 326.5 906 c 128,-1,47
 212 764 212 764 179 542 c 2,48,-1
 176 521 l 2,35,36
EndSplineSet
Validated: 33
EndChar

StartChar: beta
Encoding: 946 946 396
Width: 1213
GlyphClass: 1
Flags: W
LayerCount: 2
Fore
SplineSet
725 1477 m 0,0,1
 894 1477 894 1477 988.5 1371.5 c 128,-1,2
 1083 1266 1083 1266 1059 1103 c 0,3,4
 1041 986 1041 986 973 898 c 128,-1,5
 905 810 905 810 796 769 c 1,6,7
 942 735 942 735 1009.5 631 c 128,-1,8
 1077 527 1077 527 1057 385 c 0,9,10
 1027 187 1027 187 891 83 c 128,-1,11
 755 -21 755 -21 551 -21 c 0,12,13
 446 -21 446 -21 342.5 23.5 c 128,-1,14
 239 68 239 68 191 150 c 1,15,-1
 107 -413 l 1,16,-1
 53 -413 l 1,17,-1
 158 289 l 2,18,19
 158 290 158 290 158.5 301 c 128,-1,20
 159 312 159 312 161 318 c 1,21,-1
 163 319 l 1,22,-1
 273 1054 l 2,23,24
 301 1243 301 1243 431 1360 c 128,-1,25
 561 1477 561 1477 725 1477 c 0,0,1
515 791 m 1,26,-1
 618 791 l 2,27,28
 786 791 786 791 884.5 874.5 c 128,-1,29
 983 958 983 958 1006 1108 c 0,30,31
 1026 1241 1026 1241 953.5 1332 c 128,-1,32
 881 1423 881 1423 716 1423 c 0,33,34
 580 1423 580 1423 465 1317 c 128,-1,35
 350 1211 350 1211 327 1054 c 2,36,-1
 205 242 l 1,37,38
 229 145 229 145 327 89 c 128,-1,39
 425 33 425 33 559 33 c 0,40,41
 741 33 741 33 859 125.5 c 128,-1,42
 977 218 977 218 1001 381 c 0,43,44
 1027 553 1027 553 936.5 644 c 128,-1,45
 846 735 846 735 649 735 c 2,46,-1
 506 735 l 1,47,-1
 513 779 l 1,48,-1
 514 784 l 1,49,-1
 515 791 l 1,26,-1
EndSplineSet
Validated: 33
EndChar

StartChar: gamma
Encoding: 947 947 397
Width: 978
GlyphClass: 1
Flags: W
LayerCount: 2
Fore
SplineSet
959 1082 m 1,0,-1
 1017 1082 l 1,1,-1
 436 5 l 1,2,-1
 374 -415 l 1,3,-1
 320 -415 l 1,4,-1
 382 3 l 1,5,-1
 125 1082 l 1,6,-1
 183 1082 l 1,7,-1
 389 229 l 1,8,-1
 418 83 l 1,9,-1
 424 82 l 1,10,-1
 498 229 l 1,11,-1
 959 1082 l 1,0,-1
EndSplineSet
Validated: 1
EndChar

StartChar: delta
Encoding: 948 948 398
Width: 1121
GlyphClass: 1
Flags: W
LayerCount: 2
Fore
SplineSet
1086 1456 m 1,0,-1
 1078 1403 l 1,1,-1
 411 1403 l 1,2,-1
 409 1397 l 1,3,-1
 903 1023 l 2,4,5
 985 960 985 960 1022 832 c 128,-1,6
 1059 704 1059 704 1038 562 c 2,7,-1
 1032 520 l 2,8,9
 994 272 994 272 842.5 125.5 c 128,-1,10
 691 -21 691 -21 479 -21 c 0,11,12
 276 -21 276 -21 162.5 131.5 c 128,-1,13
 49 284 49 284 85 520 c 2,14,-1
 91 562 l 2,15,16
 128 809 128 809 280 955.5 c 128,-1,17
 432 1102 432 1102 645 1102 c 0,18,19
 660 1102 660 1102 674 1101 c 128,-1,20
 688 1100 688 1100 696 1099 c 1,21,-1
 698 1104 l 1,22,-1
 315 1402 l 1,23,-1
 323 1456 l 1,24,-1
 1086 1456 l 1,0,-1
637 1048 m 0,25,26
 454 1048 454 1048 314 903 c 128,-1,27
 174 758 174 758 145 562 c 2,28,-1
 139 520 l 2,29,30
 107 309 107 309 199.5 171 c 128,-1,31
 292 33 292 33 487 33 c 0,32,33
 669 33 669 33 808 176 c 128,-1,34
 947 319 947 319 978 520 c 2,35,-1
 984 562 l 2,36,37
 1015 768 1015 768 922 908 c 128,-1,38
 829 1048 829 1048 637 1048 c 0,25,26
EndSplineSet
Validated: 33
EndChar

StartChar: epsilon
Encoding: 949 949 399
Width: 1122
GlyphClass: 1
Flags: W
LayerCount: 2
Fore
SplineSet
717 525 m 1,0,-1
 552 525 l 2,1,2
 368 525 368 525 259.5 467 c 128,-1,3
 151 409 151 409 133 287 c 256,4,5
 115 165 115 165 203.5 101.5 c 128,-1,6
 292 38 292 38 476 38 c 0,7,8
 643 38 643 38 766 112.5 c 128,-1,9
 889 187 889 187 907 301 c 1,10,-1
 951 301 l 1,11,-1
 953 295 l 1,12,13
 935 139 935 139 793 61 c 128,-1,14
 651 -17 651 -17 467 -17 c 0,15,16
 281 -17 281 -17 169.5 65.5 c 128,-1,17
 58 148 58 148 80 290 c 0,18,19
 95 397 95 397 167 463.5 c 128,-1,20
 239 530 239 530 369 556 c 1,21,22
 266 588 266 588 214 653.5 c 128,-1,23
 162 719 162 719 175 802 c 0,24,25
 197 950 197 950 318 1024 c 128,-1,26
 439 1098 439 1098 635 1098 c 0,27,28
 808 1098 808 1098 922.5 1016 c 128,-1,29
 1037 934 1037 934 1012 805 c 1,30,-1
 1010 799 l 1,31,-1
 965 799 l 1,32,33
 982 914 982 914 885.5 979 c 128,-1,34
 789 1044 789 1044 627 1044 c 0,35,36
 454 1044 454 1044 350.5 977.5 c 128,-1,37
 247 911 247 911 232 805 c 0,38,39
 215 693 215 693 293 636.5 c 128,-1,40
 371 580 371 580 560 580 c 2,41,-1
 725 580 l 1,42,-1
 724 572 l 1,43,-1
 718 531 l 1,44,-1
 717 525 l 1,0,-1
EndSplineSet
Validated: 33
EndChar

StartChar: zeta
Encoding: 950 950 400
Width: 977
GlyphClass: 1
Flags: W
LayerCount: 2
Fore
SplineSet
1025 1456 m 1,0,-1
 1020 1419 l 1,1,-1
 491 840 l 2,2,3
 344 682 344 682 278 563 c 128,-1,4
 212 444 212 444 197 341 c 0,5,6
 178 220 178 220 254.5 136.5 c 128,-1,7
 331 53 331 53 505 53 c 2,8,-1
 608 53 l 2,9,10
 710 53 710 53 754 5 c 128,-1,11
 798 -43 798 -43 787 -122 c 0,12,13
 773 -212 773 -212 691.5 -283.5 c 128,-1,14
 610 -355 610 -355 530 -379 c 1,15,-1
 524 -327 l 1,16,17
 588 -306 588 -306 655.5 -247 c 128,-1,18
 723 -188 723 -188 734 -121 c 0,19,20
 743 -59 743 -59 712 -29.5 c 128,-1,21
 681 0 681 0 601 0 c 2,22,-1
 497 0 l 2,23,24
 308 0 308 0 215.5 102 c 128,-1,25
 123 204 123 204 144 341 c 0,26,27
 161 458 161 458 231 583 c 128,-1,28
 301 708 301 708 460 879 c 2,29,-1
 932 1398 l 1,30,-1
 930 1403 l 1,31,-1
 168 1403 l 1,32,-1
 176 1456 l 1,33,-1
 1025 1456 l 1,0,-1
EndSplineSet
Validated: 33
EndChar

StartChar: eta
Encoding: 951 951 401
Width: 1121
GlyphClass: 1
Flags: W
LayerCount: 2
Fore
SplineSet
276 870 m 1,0,1
 341 982 341 982 443.5 1042 c 128,-1,2
 546 1102 546 1102 685 1102 c 0,3,4
 855 1102 855 1102 930 989 c 128,-1,5
 1005 876 1005 876 970 637 c 2,6,-1
 812 -416 l 1,7,-1
 758 -416 l 1,8,-1
 916 639 l 2,9,10
 951 874 951 874 885.5 961 c 128,-1,11
 820 1048 820 1048 678 1048 c 0,12,13
 514 1048 514 1048 407 946 c 128,-1,14
 300 844 300 844 249 687 c 1,15,-1
 146 0 l 1,16,-1
 92 0 l 1,17,-1
 175 554 l 1,18,-1
 173 554 l 1,19,20
 175 569 175 569 177.5 584.5 c 128,-1,21
 180 600 180 600 184 619 c 2,22,-1
 254 1082 l 1,23,-1
 300 1082 l 1,24,-1
 276 870 l 1,0,1
EndSplineSet
Validated: 33
EndChar

StartChar: theta
Encoding: 952 952 402
Width: 1181
GlyphClass: 1
Flags: W
LayerCount: 2
Fore
SplineSet
1031 514 m 2,0,1
 992 253 992 253 856.5 116 c 128,-1,2
 721 -21 721 -21 509 -21 c 0,3,4
 308 -21 308 -21 207 123 c 128,-1,5
 106 267 106 267 144 514 c 2,6,-1
 208 942 l 2,7,8
 247 1201 247 1201 383.5 1339 c 128,-1,9
 520 1477 520 1477 732 1477 c 0,10,11
 933 1477 933 1477 1032.5 1333 c 128,-1,12
 1132 1189 1132 1189 1095 942 c 2,13,-1
 1031 514 l 2,0,1
233 749 m 1,14,-1
 1012 749 l 1,15,-1
 1041 942 l 2,16,17
 1075 1170 1075 1170 994 1296.5 c 128,-1,18
 913 1423 913 1423 723 1423 c 0,19,20
 542 1423 542 1423 418 1291 c 128,-1,21
 294 1159 294 1159 262 942 c 2,22,-1
 233 749 l 1,14,-1
1004 695 m 1,23,-1
 225 695 l 1,24,-1
 198 516 l 2,25,26
 164 291 164 291 245.5 162 c 128,-1,27
 327 33 327 33 517 33 c 0,28,29
 697 33 697 33 820.5 167 c 128,-1,30
 944 301 944 301 977 516 c 2,31,-1
 1004 695 l 1,23,-1
EndSplineSet
Validated: 33
EndChar

StartChar: iota
Encoding: 953 953 403
Width: 565
GlyphClass: 1
Flags: W
LayerCount: 2
Fore
SplineSet
307 1081 m 1,0,-1
 187 279 l 2,1,2
 165 139 165 139 204.5 86 c 128,-1,3
 244 33 244 33 335 33 c 0,4,5
 361 33 361 33 384 35 c 128,-1,6
 407 37 407 37 443 42 c 1,7,-1
 445 -8 l 1,8,9
 419 -15 419 -15 390.5 -18 c 128,-1,10
 362 -21 362 -21 330 -21 c 0,11,12
 209 -21 209 -21 158 49.5 c 128,-1,13
 107 120 107 120 132 279 c 2,14,-1
 252 1081 l 1,15,-1
 307 1081 l 1,0,-1
EndSplineSet
Validated: 33
EndChar

StartChar: lambda
Encoding: 955 955 405
Width: 1121
GlyphClass: 1
Flags: W
LayerCount: 2
Fore
SplineSet
32 0 m 1,0,-1
 -27 0 l 1,1,-1
 565 1076 l 1,2,-1
 527 1252 l 1,3,4
 510 1358 510 1358 476.5 1411 c 128,-1,5
 443 1464 443 1464 366 1464 c 0,6,7
 355 1464 355 1464 331 1461.5 c 128,-1,8
 307 1459 307 1459 297 1457 c 1,9,-1
 295 1508 l 1,10,11
 306 1512 306 1512 330.5 1515 c 128,-1,12
 355 1518 355 1518 373 1518 c 0,13,14
 478 1518 478 1518 520.5 1443.5 c 128,-1,15
 563 1369 563 1369 582 1260 c 1,16,-1
 796 278 l 2,17,18
 818 169 818 169 849.5 108.5 c 128,-1,19
 881 48 881 48 938 48 c 0,20,21
 949 48 949 48 972.5 50 c 128,-1,22
 996 52 996 52 1007 55 c 1,23,-1
 1009 4 l 1,24,25
 997 0 997 0 972.5 -3 c 128,-1,26
 948 -6 948 -6 930 -6 c 0,27,28
 841 -6 841 -6 803.5 67 c 128,-1,29
 766 140 766 140 742 252 c 2,30,-1
 587 978 l 1,31,-1
 584 993 l 1,32,-1
 578 993 l 1,33,-1
 520 887 l 1,34,-1
 32 0 l 1,0,-1
EndSplineSet
Validated: 1
EndChar

StartChar: xi
Encoding: 958 958 408
Width: 1049
GlyphClass: 1
Flags: W
LayerCount: 2
Fore
SplineSet
832 1456 m 1,0,-1
 1036 1456 l 1,1,-1
 1028 1402 l 1,2,-1
 801 1402 l 1,3,4
 609 1397 609 1397 494.5 1322 c 128,-1,5
 380 1247 380 1247 363 1128 c 0,6,7
 343 999 343 999 430 935 c 128,-1,8
 517 871 517 871 728 871 c 2,9,-1
 850 871 l 1,10,-1
 849 864 l 1,11,-1
 848 859 l 1,12,-1
 842 818 l 1,13,-1
 841 818 l 1,14,-1
 841 815 l 1,15,-1
 719 815 l 2,16,17
 515 815 515 815 359.5 716.5 c 128,-1,18
 204 618 204 618 175 422 c 0,19,20
 148 246 148 246 272 150 c 128,-1,21
 396 54 396 54 632 54 c 2,22,-1
 675 54 l 2,23,24
 796 54 796 54 850 0 c 128,-1,25
 904 -54 904 -54 892 -142 c 0,26,27
 879 -225 879 -225 798 -291 c 128,-1,28
 717 -357 717 -357 638 -378 c 1,29,-1
 631 -326 l 1,30,31
 695 -308 695 -308 762.5 -254.5 c 128,-1,32
 830 -201 830 -201 839 -141 c 0,33,34
 849 -68 849 -68 809.5 -33.5 c 128,-1,35
 770 1 770 1 667 1 c 2,36,-1
 624 1 l 2,37,38
 382 0 382 0 236.5 114.5 c 128,-1,39
 91 229 91 229 121 426 c 0,40,41
 145 593 145 593 252.5 698.5 c 128,-1,42
 360 804 360 804 527 843 c 1,43,44
 409 877 409 877 350.5 953 c 128,-1,45
 292 1029 292 1029 308 1124 c 0,46,47
 321 1221 321 1221 375 1290.5 c 128,-1,48
 429 1360 429 1360 519 1402 c 1,49,-1
 241 1402 l 1,50,-1
 249 1456 l 1,51,-1
 739 1456 l 2,52,53
 768 1457 768 1457 789 1458.5 c 128,-1,54
 810 1460 810 1460 833 1460 c 1,55,-1
 832 1456 l 1,0,-1
EndSplineSet
Validated: 33
EndChar

StartChar: pi
Encoding: 960 960 410
Width: 1183
GlyphClass: 1
Flags: W
LayerCount: 2
Fore
SplineSet
1184 1027 m 1,0,-1
 999 1027 l 1,1,-1
 887 279 l 2,2,3
 865 139 865 139 904.5 86 c 128,-1,4
 944 33 944 33 1035 33 c 0,5,6
 1061 33 1061 33 1084 35 c 128,-1,7
 1107 37 1107 37 1143 42 c 1,8,-1
 1145 -8 l 1,9,10
 1119 -15 1119 -15 1090.5 -18 c 128,-1,11
 1062 -21 1062 -21 1030 -21 c 0,12,13
 909 -21 909 -21 858 49.5 c 128,-1,14
 807 120 807 120 832 279 c 2,15,-1
 944 1027 l 1,16,-1
 375 1027 l 1,17,-1
 221 0 l 1,18,-1
 167 0 l 1,19,-1
 321 1027 l 1,20,-1
 156 1027 l 1,21,-1
 164 1082 l 1,22,-1
 1192 1082 l 1,23,-1
 1184 1027 l 1,0,-1
EndSplineSet
Validated: 33
EndChar

StartChar: rho
Encoding: 961 961 411
Width: 1121
GlyphClass: 1
Flags: W
LayerCount: 2
Fore
SplineSet
997 521 m 2,0,1
 958 262 958 262 830 120.5 c 128,-1,2
 702 -21 702 -21 510 -21 c 0,3,4
 388 -21 388 -21 301 31 c 128,-1,5
 214 83 214 83 171 170 c 1,6,-1
 84 -416 l 1,7,-1
 30 -416 l 1,8,-1
 137 301 l 1,9,-1
 137 305 l 1,10,-1
 187 636 l 2,11,12
 222 866 222 866 355.5 984 c 128,-1,13
 489 1102 489 1102 677 1102 c 0,14,15
 860 1102 860 1102 949 949 c 128,-1,16
 1038 796 1038 796 1000 542 c 2,17,-1
 997 521 l 2,0,1
945 542 m 2,18,19
 979 775 979 775 910.5 911.5 c 128,-1,20
 842 1048 842 1048 669 1048 c 0,21,22
 489 1048 489 1048 376.5 918 c 128,-1,23
 264 788 264 788 238 615 c 2,24,-1
 185 265 l 1,25,26
 210 159 210 159 293.5 96 c 128,-1,27
 377 33 377 33 519 33 c 0,28,29
 683 33 683 33 796 166.5 c 128,-1,30
 909 300 909 300 942 521 c 2,31,-1
 945 542 l 2,18,19
EndSplineSet
Validated: 33
EndChar

StartChar: sigma1
Encoding: 962 962 412
Width: 1089
GlyphClass: 1
Flags: W
LayerCount: 2
Fore
SplineSet
658 1102 m 0,0,1
 819 1102 819 1102 919.5 1002.5 c 128,-1,2
 1020 903 1020 903 989 725 c 1,3,-1
 987 720 l 1,4,-1
 940 720 l 1,5,6
 964 886 964 886 880 967 c 128,-1,7
 796 1048 796 1048 650 1048 c 0,8,9
 467 1048 467 1048 340 909.5 c 128,-1,10
 213 771 213 771 182 562 c 2,11,-1
 176 520 l 2,12,13
 143 303 143 303 234 175.5 c 128,-1,14
 325 48 325 48 533 32 c 0,15,16
 660 21 660 21 710.5 -27.5 c 128,-1,17
 761 -76 761 -76 749 -163 c 0,18,19
 736 -247 736 -247 655 -312 c 128,-1,20
 574 -377 574 -377 494 -399 c 1,21,-1
 487 -347 l 1,22,23
 551 -328 551 -328 618 -275.5 c 128,-1,24
 685 -223 685 -223 695 -163 c 0,25,26
 705 -93 705 -93 665.5 -61.5 c 128,-1,27
 626 -30 626 -30 521 -22 c 0,28,29
 298 -5 298 -5 191 138.5 c 128,-1,30
 84 282 84 282 120 520 c 2,31,-1
 126 562 l 2,32,33
 163 811 163 811 306 956.5 c 128,-1,34
 449 1102 449 1102 658 1102 c 0,0,1
EndSplineSet
Validated: 33
EndChar

StartChar: sigma
Encoding: 963 963 413
Width: 1121
GlyphClass: 1
Flags: W
LayerCount: 2
Fore
SplineSet
1191 1027 m 1,0,-1
 847 1027 l 1,1,2
 960 964 960 964 1011 843 c 128,-1,3
 1062 722 1062 722 1039 564 c 2,4,-1
 1032 521 l 2,5,6
 994 272 994 272 842.5 125.5 c 128,-1,7
 691 -21 691 -21 479 -21 c 0,8,9
 276 -21 276 -21 162.5 131.5 c 128,-1,10
 49 284 49 284 85 520 c 2,11,-1
 91 562 l 2,12,13
 126 798 126 798 277.5 939.5 c 128,-1,14
 429 1081 429 1081 641 1082 c 2,15,-1
 642 1082 l 1,16,-1
 652 1082 l 1,17,-1
 1199 1082 l 1,18,-1
 1191 1027 l 1,0,-1
139 520 m 2,19,20
 107 309 107 309 199.5 171 c 128,-1,21
 292 33 292 33 487 33 c 0,22,23
 669 33 669 33 808 176 c 128,-1,24
 947 319 947 319 978 520 c 2,25,-1
 984 562 l 2,26,27
 1014 760 1014 760 920 893.5 c 128,-1,28
 826 1027 826 1027 634 1027 c 0,29,30
 451 1027 451 1027 312 888.5 c 128,-1,31
 173 750 173 750 145 562 c 2,32,-1
 139 520 l 2,19,20
EndSplineSet
Validated: 33
EndChar

StartChar: tau
Encoding: 964 964 414
Width: 1027
GlyphClass: 1
Flags: W
LayerCount: 2
Fore
SplineSet
1028 1027 m 1,0,-1
 604 1027 l 1,1,-1
 450 0 l 1,2,-1
 396 0 l 1,3,-1
 550 1027 l 1,4,-1
 147 1027 l 1,5,-1
 155 1082 l 1,6,-1
 1036 1082 l 1,7,-1
 1028 1027 l 1,0,-1
EndSplineSet
Validated: 1
EndChar

StartChar: upsilon
Encoding: 965 965 415
Width: 1121
GlyphClass: 1
Flags: W
LayerCount: 2
Fore
SplineSet
304 1082 m 1,0,-1
 215 485 l 2,1,2
 178 244 178 244 252.5 138.5 c 128,-1,3
 327 33 327 33 487 33 c 0,4,5
 669 33 669 33 774.5 166.5 c 128,-1,6
 880 300 880 300 911 500 c 0,7,8
 936 665 936 665 927 805 c 128,-1,9
 918 945 918 945 886 1082 c 1,10,-1
 952 1082 l 1,11,12
 978 935 978 935 985 812 c 128,-1,13
 992 689 992 689 964 503 c 0,14,15
 927 253 927 253 808.5 116 c 128,-1,16
 690 -21 690 -21 481 -21 c 0,17,18
 302 -21 302 -21 212 104.5 c 128,-1,19
 122 230 122 230 161 487 c 2,20,-1
 250 1082 l 1,21,-1
 304 1082 l 1,0,-1
EndSplineSet
Validated: 33
EndChar

StartChar: phi
Encoding: 966 966 416
Width: 1365
GlyphClass: 1
Flags: W
LayerCount: 2
Fore
SplineSet
789 1082 m 2,0,1
 1012 1082 1012 1082 1140 925 c 128,-1,2
 1268 768 1268 768 1232 526 c 0,3,4
 1197 293 1197 293 1036.5 140 c 128,-1,5
 876 -13 876 -13 623 -20 c 1,6,-1
 555 -479 l 1,7,-1
 501 -479 l 1,8,-1
 570 -20 l 1,9,10
 319 -9 319 -9 211 144 c 128,-1,11
 103 297 103 297 142 546 c 0,12,13
 169 725 169 725 224 832.5 c 128,-1,14
 279 940 279 940 382 1082 c 1,15,-1
 448 1082 l 1,16,17
 350 959 350 959 283 824.5 c 128,-1,18
 216 690 216 690 195 544 c 0,19,20
 161 321 161 321 244 183 c 128,-1,21
 327 45 327 45 573 40 c 1,22,-1
 579 42 l 1,23,-1
 735 1082 l 1,24,-1
 789 1082 l 2,0,1
1179 524 m 0,25,26
 1210 737 1210 737 1100 881.5 c 128,-1,27
 990 1026 990 1026 786 1022 c 1,28,-1
 780 1021 l 1,29,-1
 632 42 l 1,30,-1
 638 39 l 1,31,32
 851 41 851 41 999.5 184.5 c 128,-1,33
 1148 328 1148 328 1179 524 c 0,25,26
EndSplineSet
Validated: 33
EndChar

StartChar: chi
Encoding: 967 967 417
Width: 1121
GlyphClass: 1
Flags: W
LayerCount: 2
Fore
SplineSet
206 1090 m 0,0,1
 296 1090 296 1090 335 1028 c 128,-1,2
 374 966 374 966 417 848 c 1,3,-1
 545 422 l 1,4,-1
 1006 1082 l 1,5,-1
 1069 1082 l 1,6,-1
 564 361 l 1,7,-1
 714 -136 l 1,8,9
 769 -295 769 -295 785.5 -330.5 c 128,-1,10
 802 -366 802 -366 855 -366 c 0,11,12
 866 -366 866 -366 889.5 -363.5 c 128,-1,13
 913 -361 913 -361 925 -359 c 1,14,-1
 927 -409 l 1,15,16
 914 -413 914 -413 889.5 -416 c 128,-1,17
 865 -419 865 -419 847 -419 c 0,18,19
 778 -419 778 -419 743.5 -364.5 c 128,-1,20
 709 -310 709 -310 660 -162 c 1,21,-1
 522 301 l 1,22,-1
 21 -414 l 1,23,-1
 -38 -414 l 1,24,-1
 503 362 l 1,25,-1
 361 838 l 1,26,27
 317 961 317 961 294 998.5 c 128,-1,28
 271 1036 271 1036 198 1036 c 0,29,30
 186 1036 186 1036 163 1033.5 c 128,-1,31
 140 1031 140 1031 129 1028 c 1,32,-1
 128 1080 l 1,33,34
 139 1084 139 1084 163.5 1087 c 128,-1,35
 188 1090 188 1090 206 1090 c 0,0,1
EndSplineSet
Validated: 1
EndChar

StartChar: psi
Encoding: 968 968 418
Width: 1366
GlyphClass: 1
Flags: W
LayerCount: 2
Fore
SplineSet
789 1081 m 1,0,-1
 633 42 l 1,1,-1
 639 40 l 1,2,3
 881 42 881 42 1017 198.5 c 128,-1,4
 1153 355 1153 355 1188 588 c 0,5,6
 1208 728 1208 728 1186 848 c 128,-1,7
 1164 968 1164 968 1110 1082 c 1,8,-1
 1177 1082 l 1,9,10
 1226 956 1226 956 1246 851.5 c 128,-1,11
 1266 747 1266 747 1243 590 c 0,12,13
 1199 303 1199 303 1047.5 144.5 c 128,-1,14
 896 -14 896 -14 624 -20 c 1,15,-1
 565 -415 l 1,16,-1
 511 -415 l 1,17,-1
 570 -20 l 1,18,19
 342 -9 342 -9 226.5 141.5 c 128,-1,20
 111 292 111 292 157 590 c 2,21,-1
 230 1082 l 1,22,-1
 284 1082 l 1,23,-1
 210 588 l 2,24,25
 167 304 167 304 266 173.5 c 128,-1,26
 365 43 365 43 573 41 c 1,27,-1
 579 42 l 1,28,-1
 735 1081 l 1,29,-1
 789 1081 l 1,0,-1
EndSplineSet
Validated: 33
EndChar

StartChar: omega
Encoding: 969 969 419
Width: 1772
GlyphClass: 1
Flags: W
LayerCount: 2
Fore
SplineSet
439 1082 m 1,0,1
 348 947 348 947 285.5 803 c 128,-1,2
 223 659 223 659 200 500 c 0,3,4
 169 298 169 298 233.5 165.5 c 128,-1,5
 298 33 298 33 464 33 c 0,6,7
 601 33 601 33 704 136 c 128,-1,8
 807 239 807 239 846 453 c 1,9,-1
 851 487 l 1,10,-1
 894 770 l 1,11,-1
 950 770 l 1,12,-1
 907 487 l 2,13,14
 905 477 905 477 903.5 470 c 128,-1,15
 902 463 902 463 902 457 c 0,16,17
 872 231 872 231 942 132 c 128,-1,18
 1012 33 1012 33 1158 33 c 0,19,20
 1315 33 1315 33 1424 171 c 128,-1,21
 1533 309 1533 309 1562 500 c 0,22,23
 1586 664 1586 664 1567 803.5 c 128,-1,24
 1548 943 1548 943 1497 1082 c 1,25,-1
 1563 1082 l 1,26,27
 1609 932 1609 932 1626 810 c 128,-1,28
 1643 688 1643 688 1615 503 c 0,29,30
 1579 260 1579 260 1457 119.5 c 128,-1,31
 1335 -21 1335 -21 1151 -21 c 0,32,33
 1026 -21 1026 -21 946 46.5 c 128,-1,34
 866 114 866 114 846 253 c 1,35,36
 786 109 786 109 686.5 44 c 128,-1,37
 587 -21 587 -21 454 -21 c 0,38,39
 278 -21 278 -21 195 125.5 c 128,-1,40
 112 272 112 272 147 503 c 0,41,42
 176 697 176 697 227.5 813 c 128,-1,43
 279 929 279 929 373 1082 c 1,44,-1
 439 1082 l 1,0,1
EndSplineSet
Validated: 33
EndChar

StartChar: uni03D1
Encoding: 977 977 425
Width: 1254
GlyphClass: 2
Flags: W
LayerCount: 2
Fore
SplineSet
633 1036 m 1,0,-1
 643 1098 l 2,1,2
 668 1268 668 1268 763.5 1372.5 c 128,-1,3
 859 1477 859 1477 977 1477 c 0,4,5
 1109 1477 1109 1477 1167.5 1379.5 c 128,-1,6
 1226 1282 1226 1282 1199 1098 c 2,7,-1
 1111 511 l 2,8,9
 1073 258 1073 258 914.5 118.5 c 128,-1,10
 756 -21 756 -21 538 -21 c 0,11,12
 322 -21 322 -21 215 118.5 c 128,-1,13
 108 258 108 258 147 511 c 2,14,-1
 258 1252 l 1,15,-1
 312 1254 l 1,16,-1
 201 511 l 2,17,18
 167 291 167 291 263.5 162 c 128,-1,19
 360 33 360 33 546 33 c 0,20,21
 760 33 760 33 890 149.5 c 128,-1,22
 1020 266 1020 266 1057 511 c 2,23,-1
 1068 585 l 1,24,25
 840 593 840 593 721.5 714.5 c 128,-1,26
 603 836 603 836 633 1036 c 1,27,-1
 633 1036 l 1,0,-1
1145 1098 m 2,28,29
 1168 1255 1168 1255 1121 1339 c 128,-1,30
 1074 1423 1074 1423 968 1423 c 0,31,32
 864 1423 864 1423 793 1344 c 128,-1,33
 722 1265 722 1265 697 1098 c 2,34,-1
 687 1034 l 2,35,36
 662 871 662 871 768 759.5 c 128,-1,37
 874 648 874 648 1076 640 c 1,38,-1
 1145 1098 l 2,28,29
EndSplineSet
Validated: 37
EndChar

StartChar: uni03D2
Encoding: 978 978 426
Width: 1106
GlyphClass: 1
Flags: W
LayerCount: 2
Fore
SplineSet
918 1239 m 2,0,1
 989 1363 989 1363 1056.5 1415 c 128,-1,2
 1124 1467 1124 1467 1215 1467 c 0,3,4
 1243 1467 1243 1467 1269.5 1458.5 c 128,-1,5
 1296 1450 1296 1450 1313 1439 c 1,6,-1
 1284 1398 l 1,7,8
 1271 1406 1271 1406 1250.5 1413 c 128,-1,9
 1230 1420 1230 1420 1204 1420 c 0,10,11
 1145 1420 1145 1420 1088 1380 c 128,-1,12
 1031 1340 1031 1340 958 1215 c 2,13,-1
 603 618 l 1,14,-1
 510 0 l 1,15,-1
 455 0 l 1,16,-1
 548 622 l 1,17,-1
 366 1215 l 2,18,19
 328 1341 328 1341 285 1380.5 c 128,-1,20
 242 1420 242 1420 183 1420 c 0,21,22
 157 1420 157 1420 133 1412.5 c 128,-1,23
 109 1405 109 1405 96 1398 c 1,24,-1
 79 1439 l 1,25,26
 100 1450 100 1450 128 1458.5 c 128,-1,27
 156 1467 156 1467 186 1467 c 0,28,29
 273 1467 273 1467 327 1414 c 128,-1,30
 381 1361 381 1361 414 1239 c 2,31,-1
 546 796 l 1,32,-1
 578 673 l 1,33,-1
 584 672 l 1,34,-1
 653 796 l 1,35,-1
 918 1239 l 2,0,1
EndSplineSet
Validated: 1
EndChar

StartChar: uni03D6
Encoding: 982 982 427
Width: 1612
GlyphClass: 1
Flags: W
LayerCount: 2
Fore
SplineSet
1658 1028 m 1,0,-1
 1460 1028 l 1,1,2
 1495 909 1495 909 1507.5 789 c 128,-1,3
 1520 669 1520 669 1495 503 c 0,4,5
 1459 260 1459 260 1343 119.5 c 128,-1,6
 1227 -21 1227 -21 1052 -21 c 0,7,8
 935 -21 935 -21 859 45 c 128,-1,9
 783 111 783 111 765 248 c 1,10,11
 707 106 707 106 613 42.5 c 128,-1,12
 519 -21 519 -21 394 -21 c 0,13,14
 228 -21 228 -21 150 125.5 c 128,-1,15
 72 272 72 272 107 503 c 0,16,17
 133 676 133 676 180 792.5 c 128,-1,18
 227 909 227 909 300 1028 c 1,19,-1
 113 1028 l 1,20,-1
 121 1083 l 1,21,-1
 1666 1083 l 1,22,-1
 1658 1028 l 1,0,-1
1442 500 m 0,23,24
 1464 649 1464 649 1450.5 777 c 128,-1,25
 1437 905 1437 905 1396 1028 c 1,26,-1
 364 1028 l 1,27,28
 286 904 286 904 233.5 773 c 128,-1,29
 181 642 181 642 160 500 c 0,30,31
 129 298 129 298 188.5 165.5 c 128,-1,32
 248 33 248 33 404 33 c 0,33,34
 535 33 535 33 634 142 c 128,-1,35
 733 251 733 251 769 477 c 1,36,-1
 771 487 l 1,37,-1
 814 772 l 1,38,-1
 870 772 l 1,39,-1
 827 487 l 2,40,41
 825 477 825 477 823.5 470 c 128,-1,42
 822 463 822 463 822 457 c 0,43,44
 792 231 792 231 857 132 c 128,-1,45
 922 33 922 33 1058 33 c 0,46,47
 1206 33 1206 33 1309.5 171 c 128,-1,48
 1413 309 1413 309 1442 500 c 0,23,24
EndSplineSet
Validated: 33
EndChar

StartChar: uni0402
Encoding: 1026 1026 430
Width: 1577
GlyphClass: 1
Flags: W
LayerCount: 2
Fore
SplineSet
1277 1402 m 1,0,-1
 767 1402 l 1,1,-1
 557 0 l 1,2,-1
 503 0 l 1,3,-1
 713 1402 l 1,4,-1
 167 1402 l 1,5,-1
 175 1456 l 1,6,-1
 1285 1456 l 1,7,-1
 1277 1402 l 1,0,-1
719 840 m 1,8,-1
 968 840 l 2,9,10
 1197 840 1197 840 1326 732.5 c 128,-1,11
 1455 625 1455 625 1421 395 c 0,12,13
 1405 268 1405 268 1300 142 c 128,-1,14
 1195 16 1195 16 995 -21 c 1,15,-1
 985 21 l 1,16,17
 1163 55 1163 55 1253.5 162 c 128,-1,18
 1344 269 1344 269 1367 395 c 0,19,20
 1403 594 1403 594 1287.5 690.5 c 128,-1,21
 1172 787 1172 787 960 787 c 2,22,-1
 711 787 l 1,23,-1
 719 840 l 1,8,-1
EndSplineSet
Validated: 33
EndChar

StartChar: uni0404
Encoding: 1028 1028 432
Width: 1325
GlyphClass: 1
Flags: W
LayerCount: 2
Fore
SplineSet
1158 447 m 1,0,-1
 1160 441 l 1,1,2
 1129 208 1129 208 974.5 94 c 128,-1,3
 820 -20 820 -20 588 -20 c 0,4,5
 358 -20 358 -20 236 158 c 128,-1,6
 114 336 114 336 157 620 c 2,7,-1
 190 838 l 2,8,9
 234 1135 234 1135 402.5 1306.5 c 128,-1,10
 571 1478 571 1478 813 1478 c 0,11,12
 1032 1478 1032 1478 1158 1358 c 128,-1,13
 1284 1238 1284 1238 1247 1019 c 1,14,-1
 1244 1013 l 1,15,-1
 1198 1013 l 1,16,17
 1228 1217 1228 1217 1123 1320.5 c 128,-1,18
 1018 1424 1018 1424 805 1424 c 0,19,20
 600 1424 600 1424 441.5 1261.5 c 128,-1,21
 283 1099 283 1099 244 840 c 2,22,-1
 233 766 l 1,23,-1
 817 766 l 1,24,-1
 809 712 l 1,25,-1
 225 712 l 1,26,-1
 211 620 l 2,27,28
 169 345 169 345 274.5 189.5 c 128,-1,29
 380 34 380 34 596 34 c 0,30,31
 799 34 799 34 940.5 138 c 128,-1,32
 1082 242 1082 242 1113 447 c 1,33,-1
 1158 447 l 1,0,-1
EndSplineSet
Validated: 33
EndChar

StartChar: uni0405
Encoding: 1029 1029 433
Width: 1223
GlyphClass: 1
Flags: W
LayerCount: 2
Fore
SplineSet
1031 343 m 0,0,1
 1050 473 1050 473 961.5 546.5 c 128,-1,2
 873 620 873 620 633 702 c 1,3,4
 399 777 399 777 295 861 c 128,-1,5
 191 945 191 945 216 1110 c 0,6,7
 240 1280 240 1280 390.5 1378.5 c 128,-1,8
 541 1477 541 1477 754 1477 c 0,9,10
 964 1477 964 1477 1083.5 1364 c 128,-1,11
 1203 1251 1203 1251 1169 1052 c 1,12,-1
 1166 1046 l 1,13,-1
 1120 1046 l 1,14,15
 1145 1215 1145 1215 1042 1319 c 128,-1,16
 939 1423 939 1423 745 1423 c 0,17,18
 556 1423 556 1423 422 1329.5 c 128,-1,19
 288 1236 288 1236 270 1112 c 0,20,21
 250 982 250 982 331 906 c 128,-1,22
 412 830 412 830 658 754 c 1,23,24
 894 675 894 675 1002.5 591.5 c 128,-1,25
 1111 508 1111 508 1087 345 c 0,26,27
 1060 173 1060 173 904.5 76 c 128,-1,28
 749 -21 749 -21 536 -21 c 0,29,30
 324 -21 324 -21 178 82 c 128,-1,31
 32 185 32 185 70 404 c 1,32,-1
 72 410 l 1,33,-1
 118 410 l 1,34,35
 86 203 86 203 217 118 c 128,-1,36
 348 33 348 33 544 33 c 0,37,38
 727 33 727 33 869 122 c 128,-1,39
 1011 211 1011 211 1031 343 c 0,0,1
EndSplineSet
Validated: 33
EndChar

StartChar: uni0409
Encoding: 1033 1033 437
Width: 2209
GlyphClass: 1
Flags: W
LayerCount: 2
Fore
SplineSet
1371 1456 m 1,0,-1
 1274 808 l 1,1,-1
 1643 808 l 2,2,3
 1861 808 1861 808 1971 695 c 128,-1,4
 2081 582 2081 582 2055 404 c 0,5,6
 2026 216 2026 216 1888.5 108 c 128,-1,7
 1751 0 1751 0 1522 0 c 2,8,-1
 1099 0 l 1,9,-1
 1309 1402 l 1,10,-1
 700 1402 l 1,11,-1
 575 822 l 2,12,13
 474 350 474 350 361.5 175 c 128,-1,14
 249 0 249 0 6 0 c 2,15,-1
 -26 0 l 1,16,-1
 -18 54 l 1,17,-1
 17 54 l 2,18,19
 208 54 208 54 315.5 210 c 128,-1,20
 423 366 423 366 521 822 c 2,21,-1
 658 1456 l 1,22,-1
 1371 1456 l 1,0,-1
1266 754 m 1,23,-1
 1161 54 l 1,24,-1
 1530 54 l 2,25,26
 1730 54 1730 54 1854 156 c 128,-1,27
 1978 258 1978 258 2001 406 c 0,28,29
 2023 556 2023 556 1933.5 655 c 128,-1,30
 1844 754 1844 754 1635 754 c 2,31,-1
 1266 754 l 1,23,-1
EndSplineSet
Validated: 33
EndChar

StartChar: uni040A
Encoding: 1034 1034 438
Width: 2209
GlyphClass: 1
Flags: W
LayerCount: 2
Fore
SplineSet
281 748 m 1,0,-1
 1211 748 l 1,1,-1
 1317 1456 l 1,2,-1
 1371 1456 l 1,3,-1
 1274 810 l 1,4,-1
 1644 810 l 2,5,6
 1862 810 1862 810 1971.5 696.5 c 128,-1,7
 2081 583 2081 583 2055 405 c 0,8,9
 2026 217 2026 217 1888.5 108.5 c 128,-1,10
 1751 0 1751 0 1522 0 c 2,11,-1
 1099 0 l 1,12,-1
 1203 694 l 1,13,-1
 273 694 l 1,14,-1
 169 0 l 1,15,-1
 115 0 l 1,16,-1
 333 1456 l 1,17,-1
 387 1456 l 1,18,-1
 281 748 l 1,0,-1
1266 756 m 1,19,-1
 1161 53 l 1,20,-1
 1530 53 l 2,21,22
 1730 53 1730 53 1854 155.5 c 128,-1,23
 1978 258 1978 258 2001 407 c 0,24,25
 2023 557 2023 557 1933.5 656.5 c 128,-1,26
 1844 756 1844 756 1635 756 c 2,27,-1
 1266 756 l 1,19,-1
EndSplineSet
Validated: 33
EndChar

StartChar: uni040B
Encoding: 1035 1035 439
Width: 1606
GlyphClass: 1
Flags: W
LayerCount: 2
Fore
SplineSet
1270 1402 m 1,0,-1
 760 1402 l 1,1,-1
 687 920 l 1,2,-1
 1015 920 l 2,3,4
 1245 920 1245 920 1352.5 804.5 c 128,-1,5
 1460 689 1460 689 1422 432 c 2,6,-1
 1357 0 l 1,7,-1
 1303 0 l 1,8,-1
 1368 432 l 2,9,10
 1402 667 1402 667 1312 766 c 128,-1,11
 1222 865 1222 865 1007 865 c 2,12,-1
 679 865 l 1,13,-1
 550 0 l 1,14,-1
 496 0 l 1,15,-1
 706 1402 l 1,16,-1
 160 1402 l 1,17,-1
 168 1456 l 1,18,-1
 1278 1456 l 1,19,-1
 1270 1402 l 1,0,-1
EndSplineSet
Validated: 33
EndChar

StartChar: uni040F
Encoding: 1039 1039 443
Width: 1428
GlyphClass: 1
Flags: W
LayerCount: 2
Fore
SplineSet
333 1456 m 1,0,-1
 387 1456 l 1,1,-1
 177 54 l 1,2,-1
 1107 54 l 1,3,-1
 1317 1456 l 1,4,-1
 1371 1456 l 1,5,-1
 1153 0 l 1,6,-1
 665 0 l 1,7,-1
 613 -349 l 1,8,-1
 559 -349 l 1,9,-1
 611 0 l 1,10,-1
 115 0 l 1,11,-1
 333 1456 l 1,0,-1
EndSplineSet
Validated: 1
EndChar

StartChar: uni0411
Encoding: 1041 1041 445
Width: 1280
GlyphClass: 1
Flags: W
LayerCount: 2
Fore
SplineSet
1185 1402 m 1,0,-1
 377 1402 l 1,1,-1
 288 808 l 1,2,-1
 657 808 l 2,3,4
 874 808 874 808 984 695 c 128,-1,5
 1094 582 1094 582 1068 404 c 0,6,7
 1039 216 1039 216 901.5 108 c 128,-1,8
 764 0 764 0 536 0 c 2,9,-1
 113 0 l 1,10,-1
 331 1456 l 1,11,-1
 1193 1456 l 1,12,-1
 1185 1402 l 1,0,-1
280 754 m 1,13,-1
 175 54 l 1,14,-1
 544 54 l 2,15,16
 743 54 743 54 866.5 155.5 c 128,-1,17
 990 257 990 257 1013 406 c 0,18,19
 1035 556 1035 556 946.5 655 c 128,-1,20
 858 754 858 754 649 754 c 2,21,-1
 280 754 l 1,13,-1
EndSplineSet
Validated: 33
EndChar

StartChar: uni0414
Encoding: 1044 1044 448
Width: 1425
GlyphClass: 1
Flags: W
LayerCount: 2
Fore
SplineSet
1220 -349 m 1,0,-1
 1165 -349 l 1,1,-1
 1217 0 l 1,2,-1
 28 0 l 1,3,-1
 -24 -349 l 1,4,-1
 -78 -349 l 1,5,-1
 -26 0 l 1,6,-1
 -27 0 l 1,7,-1
 -19 54 l 1,8,-1
 16 54 l 2,9,10
 157 54 157 54 299.5 296.5 c 128,-1,11
 442 539 442 539 540 991 c 1,12,-1
 650 1456 l 1,13,-1
 1370 1456 l 1,14,-1
 1160 54 l 1,15,-1
 1280 54 l 1,16,-1
 1220 -349 l 1,0,-1
594 991 m 1,17,18
 516 633 516 633 406 390 c 128,-1,19
 296 147 296 147 163 54 c 1,20,-1
 1106 54 l 1,21,-1
 1308 1402 l 1,22,-1
 691 1402 l 1,23,-1
 594 991 l 1,17,18
EndSplineSet
Validated: 1
EndChar

StartChar: uni0416
Encoding: 1046 1046 450
Width: 1615
GlyphClass: 1
Flags: W
LayerCount: 2
Fore
SplineSet
964 720 m 1,0,-1
 863 720 l 1,1,-1
 755 0 l 1,2,-1
 701 0 l 1,3,-1
 809 720 l 1,4,-1
 706 720 l 1,5,-1
 21 0 l 1,6,-1
 -43 0 l 1,7,-1
 -46 6 l 1,8,-1
 652 737 l 1,9,-1
 202 1456 l 1,10,-1
 273 1456 l 1,11,-1
 700 774 l 1,12,-1
 817 774 l 1,13,-1
 919 1456 l 1,14,-1
 973 1456 l 1,15,-1
 871 774 l 1,16,-1
 987 774 l 1,17,-1
 1618 1456 l 1,18,-1
 1681 1456 l 1,19,-1
 1683 1451 l 1,20,-1
 1023 738 l 1,21,-1
 1506 0 l 1,22,-1
 1434 0 l 1,23,-1
 964 720 l 1,0,-1
EndSplineSet
Validated: 1
EndChar

StartChar: uni0417
Encoding: 1047 1047 451
Width: 1325
GlyphClass: 1
Flags: W
LayerCount: 2
Fore
SplineSet
507 771 m 1,0,-1
 691 771 l 2,1,2
 930 771 930 771 1064.5 854 c 128,-1,3
 1199 937 1199 937 1222 1087 c 0,4,5
 1246 1246 1246 1246 1140.5 1334.5 c 128,-1,6
 1035 1423 1035 1423 793 1423 c 0,7,8
 603 1423 603 1423 454.5 1327 c 128,-1,9
 306 1231 306 1231 283 1075 c 1,10,-1
 239 1075 l 1,11,-1
 237 1081 l 1,12,13
 259 1264 259 1264 421 1370.5 c 128,-1,14
 583 1477 583 1477 802 1477 c 0,15,16
 1040 1477 1040 1477 1171.5 1374 c 128,-1,17
 1303 1271 1303 1271 1275 1083 c 0,18,19
 1256 960 1256 960 1162 870.5 c 128,-1,20
 1068 781 1068 781 910 744 c 1,21,22
 1069 709 1069 709 1141.5 617.5 c 128,-1,23
 1214 526 1214 526 1194 386 c 0,24,25
 1164 188 1164 188 996 83.5 c 128,-1,26
 828 -21 828 -21 577 -21 c 0,27,28
 368 -21 368 -21 223.5 88.5 c 128,-1,29
 79 198 79 198 114 398 c 1,30,-1
 116 404 l 1,31,-1
 163 404 l 1,32,33
 137 234 137 234 252.5 133.5 c 128,-1,34
 368 33 368 33 585 33 c 0,35,36
 815 33 815 33 965 126.5 c 128,-1,37
 1115 220 1115 220 1139 382 c 0,38,39
 1166 563 1166 563 1052.5 639 c 128,-1,40
 939 715 939 715 682 715 c 2,41,-1
 498 715 l 1,42,-1
 504 756 l 1,43,-1
 506 764 l 1,44,-1
 507 771 l 1,0,-1
EndSplineSet
Validated: 33
EndChar

StartChar: uni0418
Encoding: 1048 1048 452
Width: 1449
GlyphClass: 1
Flags: W
LayerCount: 2
Fore
SplineSet
1333 1456 m 1,0,-1
 1387 1456 l 1,1,-1
 1169 0 l 1,2,-1
 1115 0 l 1,3,-1
 1317 1353 l 1,4,-1
 1312 1356 l 1,5,-1
 174 0 l 1,6,-1
 120 0 l 1,7,-1
 338 1456 l 1,8,-1
 392 1456 l 1,9,-1
 190 106 l 1,10,-1
 195 103 l 1,11,-1
 1333 1456 l 1,0,-1
EndSplineSet
Validated: 1
EndChar

StartChar: uni041B
Encoding: 1051 1051 455
Width: 1428
GlyphClass: 1
Flags: W
LayerCount: 2
Fore
SplineSet
1371 1456 m 1,0,-1
 1153 0 l 1,1,-1
 1099 0 l 1,2,-1
 1309 1402 l 1,3,-1
 600 1402 l 1,4,-1
 475 822 l 1,5,6
 381 351 381 351 283.5 175.5 c 128,-1,7
 186 0 186 0 -14 0 c 2,8,-1
 -46 0 l 1,9,-1
 -38 54 l 1,10,-1
 -3 54 l 2,11,12
 149 54 149 54 239 209.5 c 128,-1,13
 329 365 329 365 421 822 c 1,14,-1
 558 1456 l 1,15,-1
 1371 1456 l 1,0,-1
EndSplineSet
Validated: 1
EndChar

StartChar: uni0423
Encoding: 1059 1059 463
Width: 1347
GlyphClass: 1
Flags: W
LayerCount: 2
Fore
SplineSet
618 557 m 1,0,-1
 657 457 l 1,1,-1
 683 496 l 1,2,-1
 1333 1456 l 1,3,-1
 1399 1456 l 1,4,-1
 591 257 l 2,5,6
 515 142 515 142 421 60.5 c 128,-1,7
 327 -21 327 -21 186 -21 c 0,8,9
 137 -21 137 -21 74.5 -6 c 128,-1,10
 12 9 12 9 -13 32 c 1,11,-1
 9 83 l 1,12,13
 42 61 42 61 95 47 c 128,-1,14
 148 33 148 33 199 33 c 0,15,16
 296 33 296 33 380 97 c 128,-1,17
 464 161 464 161 533 266 c 2,18,-1
 617 395 l 1,19,-1
 181 1456 l 1,20,-1
 248 1456 l 1,21,-1
 618 557 l 1,0,-1
EndSplineSet
Validated: 1
EndChar

StartChar: uni0426
Encoding: 1062 1062 466
Width: 1426
GlyphClass: 1
Flags: W
LayerCount: 2
Fore
SplineSet
1152 -351 m 1,0,-1
 1098 -351 l 1,1,-1
 1164 85 l 1,2,-1
 1218 85 l 1,3,-1
 1152 -351 l 1,0,-1
322 1456 m 1,4,-1
 376 1456 l 1,5,-1
 166 54 l 1,6,-1
 1096 54 l 1,7,-1
 1306 1456 l 1,8,-1
 1360 1456 l 1,9,-1
 1142 0 l 1,10,-1
 104 0 l 1,11,-1
 322 1456 l 1,4,-1
EndSplineSet
Validated: 1
EndChar

StartChar: uni0427
Encoding: 1063 1063 467
Width: 1325
GlyphClass: 1
Flags: W
LayerCount: 2
Fore
SplineSet
1268 1456 m 1,0,-1
 1050 0 l 1,1,-1
 996 0 l 1,2,-1
 1103 719 l 1,3,4
 996 690 996 690 892.5 674 c 128,-1,5
 789 658 789 658 693 658 c 0,6,7
 462 658 462 658 353.5 764 c 128,-1,8
 245 870 245 870 281 1105 c 2,9,-1
 333 1456 l 1,10,-1
 387 1456 l 1,11,-1
 335 1105 l 2,12,13
 303 891 303 891 394.5 801.5 c 128,-1,14
 486 712 486 712 701 712 c 0,15,16
 796 712 796 712 900.5 727 c 128,-1,17
 1005 742 1005 742 1111 772 c 1,18,-1
 1214 1456 l 1,19,-1
 1268 1456 l 1,0,-1
EndSplineSet
Validated: 33
EndChar

StartChar: uni0428
Encoding: 1064 1064 468
Width: 2039
GlyphClass: 1
Flags: W
LayerCount: 2
Fore
SplineSet
381 1456 m 1,0,-1
 171 54 l 1,1,-1
 904 54 l 1,2,-1
 1114 1456 l 1,3,-1
 1169 1456 l 1,4,-1
 959 54 l 1,5,-1
 1692 54 l 1,6,-1
 1902 1456 l 1,7,-1
 1956 1456 l 1,8,-1
 1738 0 l 1,9,-1
 108 0 l 1,10,-1
 326 1456 l 1,11,-1
 381 1456 l 1,0,-1
EndSplineSet
Validated: 1
EndChar

StartChar: uni0429
Encoding: 1065 1065 469
Width: 2038
GlyphClass: 1
Flags: W
LayerCount: 2
Fore
SplineSet
381 1456 m 1,0,-1
 171 54 l 1,1,-1
 904 54 l 1,2,-1
 1114 1456 l 1,3,-1
 1169 1456 l 1,4,-1
 959 54 l 1,5,-1
 1692 54 l 1,6,-1
 1902 1456 l 1,7,-1
 1956 1456 l 1,8,-1
 1750 85 l 1,9,-1
 1804 85 l 1,10,-1
 1738 -351 l 1,11,-1
 1684 -351 l 1,12,-1
 1737 0 l 1,13,-1
 108 0 l 1,14,-1
 326 1456 l 1,15,-1
 381 1456 l 1,0,-1
EndSplineSet
Validated: 1
EndChar

StartChar: uni042A
Encoding: 1066 1066 470
Width: 1585
GlyphClass: 1
Flags: W
LayerCount: 2
Fore
SplineSet
109 1456 m 1,0,-1
 690 1456 l 1,1,-1
 593 808 l 1,2,-1
 962 808 l 2,3,4
 1179 808 1179 808 1289 695 c 128,-1,5
 1399 582 1399 582 1373 404 c 0,6,7
 1344 216 1344 216 1206.5 108 c 128,-1,8
 1069 0 1069 0 841 0 c 2,9,-1
 418 0 l 1,10,-1
 628 1402 l 1,11,-1
 101 1402 l 1,12,-1
 109 1456 l 1,0,-1
585 754 m 1,13,-1
 480 54 l 1,14,-1
 849 54 l 2,15,16
 1048 54 1048 54 1171.5 155.5 c 128,-1,17
 1295 257 1295 257 1318 406 c 0,18,19
 1340 556 1340 556 1251.5 655 c 128,-1,20
 1163 754 1163 754 954 754 c 2,21,-1
 585 754 l 1,13,-1
EndSplineSet
Validated: 33
EndChar

StartChar: uni042B
Encoding: 1067 1067 471
Width: 1648
GlyphClass: 1
Flags: W
LayerCount: 2
Fore
SplineSet
288 808 m 1,0,-1
 657 808 l 2,1,2
 874 808 874 808 984 695 c 128,-1,3
 1094 582 1094 582 1068 404 c 0,4,5
 1039 216 1039 216 901.5 108 c 128,-1,6
 764 0 764 0 536 0 c 2,7,-1
 113 0 l 1,8,-1
 331 1456 l 1,9,-1
 385 1456 l 1,10,-1
 288 808 l 1,0,-1
280 754 m 1,11,-1
 175 54 l 1,12,-1
 544 54 l 2,13,14
 743 54 743 54 866.5 155.5 c 128,-1,15
 990 257 990 257 1013 406 c 0,16,17
 1035 556 1035 556 946.5 655 c 128,-1,18
 858 754 858 754 649 754 c 2,19,-1
 280 754 l 1,11,-1
1367 0 m 1,20,-1
 1313 0 l 1,21,-1
 1531 1456 l 1,22,-1
 1585 1456 l 1,23,-1
 1367 0 l 1,20,-1
EndSplineSet
Validated: 33
EndChar

StartChar: uni042C
Encoding: 1068 1068 472
Width: 1223
GlyphClass: 1
Flags: W
LayerCount: 2
Fore
SplineSet
288 808 m 1,0,-1
 657 808 l 2,1,2
 874 808 874 808 984 695 c 128,-1,3
 1094 582 1094 582 1068 404 c 0,4,5
 1039 216 1039 216 901.5 108 c 128,-1,6
 764 0 764 0 536 0 c 2,7,-1
 113 0 l 1,8,-1
 331 1456 l 1,9,-1
 385 1456 l 1,10,-1
 288 808 l 1,0,-1
280 754 m 1,11,-1
 175 54 l 1,12,-1
 544 54 l 2,13,14
 743 54 743 54 866.5 155.5 c 128,-1,15
 990 257 990 257 1013 406 c 0,16,17
 1035 556 1035 556 946.5 655 c 128,-1,18
 858 754 858 754 649 754 c 2,19,-1
 280 754 l 1,11,-1
EndSplineSet
Validated: 33
EndChar

StartChar: uni042D
Encoding: 1069 1069 473
Width: 1325
GlyphClass: 1
Flags: W
LayerCount: 2
Fore
SplineSet
225 1011 m 1,0,-1
 223 1017 l 1,1,2
 253 1249 253 1249 407.5 1363.5 c 128,-1,3
 562 1478 562 1478 796 1478 c 0,4,5
 1025 1478 1025 1478 1147 1299 c 128,-1,6
 1269 1120 1269 1120 1227 838 c 2,7,-1
 1194 620 l 2,8,9
 1149 322 1149 322 980 151 c 128,-1,10
 811 -20 811 -20 571 -20 c 0,11,12
 350 -20 350 -20 224 99.5 c 128,-1,13
 98 219 98 219 136 439 c 1,14,-1
 139 445 l 1,15,-1
 185 445 l 1,16,17
 154 240 154 240 259.5 137 c 128,-1,18
 365 34 365 34 579 34 c 0,19,20
 783 34 783 34 941.5 196 c 128,-1,21
 1100 358 1100 358 1140 618 c 2,22,-1
 1157 730 l 1,23,-1
 575 730 l 1,24,-1
 583 784 l 1,25,-1
 1165 784 l 1,26,-1
 1173 838 l 2,27,28
 1213 1112 1213 1112 1108 1268 c 128,-1,29
 1003 1424 1003 1424 788 1424 c 0,30,31
 584 1424 584 1424 442 1319.5 c 128,-1,32
 300 1215 300 1215 270 1011 c 1,33,-1
 225 1011 l 1,0,-1
EndSplineSet
Validated: 33
EndChar

StartChar: uni042E
Encoding: 1070 1070 474
Width: 1896
GlyphClass: 1
Flags: W
LayerCount: 2
Fore
SplineSet
1748 619 m 2,0,1
 1702 313 1702 313 1532.5 146 c 128,-1,2
 1363 -21 1363 -21 1104 -21 c 0,3,4
 857 -21 857 -21 731.5 153.5 c 128,-1,5
 606 328 606 328 650 619 c 2,6,-1
 661 693 l 1,7,-1
 294 693 l 1,8,-1
 190 0 l 1,9,-1
 136 0 l 1,10,-1
 354 1456 l 1,11,-1
 408 1456 l 1,12,-1
 302 747 l 1,13,-1
 669 747 l 1,14,-1
 683 837 l 2,15,16
 728 1142 728 1142 897.5 1309.5 c 128,-1,17
 1067 1477 1067 1477 1327 1477 c 0,18,19
 1574 1477 1574 1477 1699 1302.5 c 128,-1,20
 1824 1128 1824 1128 1781 837 c 2,21,-1
 1748 619 l 2,0,1
1727 839 m 2,22,23
 1768 1118 1768 1118 1663.5 1270.5 c 128,-1,24
 1559 1423 1559 1423 1318 1423 c 0,25,26
 1090 1423 1090 1423 934 1263.5 c 128,-1,27
 778 1104 778 1104 738 839 c 2,28,-1
 705 619 l 2,29,30
 662 338 662 338 767 185.5 c 128,-1,31
 872 33 872 33 1112 33 c 0,32,33
 1341 33 1341 33 1497 192.5 c 128,-1,34
 1653 352 1653 352 1694 619 c 2,35,-1
 1727 839 l 2,22,23
EndSplineSet
Validated: 33
EndChar

StartChar: uni042F
Encoding: 1071 1071 475
Width: 1200
GlyphClass: 1
Flags: W
LayerCount: 2
Fore
SplineSet
77 0 m 1,0,-1
 15 0 l 1,1,-1
 465 675 l 1,2,-1
 460 684 l 1,3,4
 324 724 324 724 263.5 813 c 128,-1,5
 203 902 203 902 224 1038 c 0,6,7
 253 1234 253 1234 399.5 1345 c 128,-1,8
 546 1456 546 1456 760 1456 c 2,9,-1
 1186 1456 l 1,10,-1
 968 0 l 1,11,-1
 913 0 l 1,12,-1
 1011 659 l 1,13,-1
 511 659 l 1,14,-1
 77 0 l 1,0,-1
1123 1402 m 1,15,-1
 752 1402 l 2,16,17
 544 1402 544 1402 424.5 1310 c 128,-1,18
 305 1218 305 1218 278 1040 c 0,19,20
 256 895 256 895 342 804.5 c 128,-1,21
 428 714 428 714 587 714 c 2,22,-1
 1020 714 l 1,23,-1
 1123 1402 l 1,15,-1
EndSplineSet
Validated: 33
EndChar

StartChar: uni0431
Encoding: 1073 1073 477
Width: 1122
GlyphClass: 1
Flags: W
LayerCount: 2
Fore
SplineSet
655 1102 m 0,0,1
 858 1102 858 1102 971 949.5 c 128,-1,2
 1084 797 1084 797 1049 562 c 2,3,-1
 1043 520 l 2,4,5
 1005 272 1005 272 853 125.5 c 128,-1,6
 701 -21 701 -21 489 -21 c 0,7,8
 286 -21 286 -21 172.5 131.5 c 128,-1,9
 59 284 59 284 95 520 c 2,10,-1
 101 562 l 2,11,12
 101 569 101 569 102.5 576.5 c 128,-1,13
 104 584 104 584 106 595 c 2,14,-1
 151 892 l 2,15,16
 190 1157 190 1157 358.5 1284.5 c 128,-1,17
 527 1412 527 1412 808 1420 c 0,18,19
 962 1423 962 1423 1043.5 1454.5 c 128,-1,20
 1125 1486 1125 1486 1136 1553 c 1,21,-1
 1177 1553 l 1,22,-1
 1178 1547 l 1,23,24
 1170 1447 1170 1447 1079 1407.5 c 128,-1,25
 988 1368 988 1368 806 1366 c 0,26,27
 552 1362 552 1362 396 1242.5 c 128,-1,28
 240 1123 240 1123 205 892 c 2,29,-1
 197 838 l 1,30,31
 272 964 272 964 391.5 1033 c 128,-1,32
 511 1102 511 1102 655 1102 c 0,0,1
647 1048 m 0,33,34
 471 1048 471 1048 334 913 c 128,-1,35
 197 778 197 778 160 590 c 1,36,-1
 152 537 l 1,37,-1
 151 537 l 1,38,-1
 149 520 l 1,39,40
 117 309 117 309 209.5 171 c 128,-1,41
 302 33 302 33 497 33 c 0,42,43
 679 33 679 33 818 176 c 128,-1,44
 957 319 957 319 988 520 c 2,45,-1
 994 562 l 2,46,47
 1025 768 1025 768 932 908 c 128,-1,48
 839 1048 839 1048 647 1048 c 0,33,34
EndSplineSet
Validated: 33
EndChar

StartChar: uni0432
Encoding: 1074 1074 478
Width: 1121
GlyphClass: 1
Flags: W
LayerCount: 2
Fore
SplineSet
101 0 m 1,0,-1
 263 1082 l 1,1,-1
 635 1082 l 2,2,3
 821 1082 821 1082 920.5 1011.5 c 128,-1,4
 1020 941 1020 941 999 802 c 0,5,6
 984 707 984 707 918.5 641 c 128,-1,7
 853 575 853 575 748 555 c 1,8,-1
 749 555 l 1,9,10
 858 543 858 543 921.5 467.5 c 128,-1,11
 985 392 985 392 970 293 c 0,12,13
 947 145 947 145 833 72.5 c 128,-1,14
 719 0 719 0 542 0 c 2,15,-1
 101 0 l 1,0,-1
233 521 m 1,16,-1
 163 54 l 1,17,-1
 550 54 l 2,18,19
 699 54 699 54 799.5 116 c 128,-1,20
 900 178 900 178 917 292 c 0,21,22
 932 398 932 398 852.5 459.5 c 128,-1,23
 773 521 773 521 620 521 c 2,24,-1
 233 521 l 1,16,-1
241 575 m 1,25,-1
 579 575 l 2,26,27
 735 575 735 575 831.5 634 c 128,-1,28
 928 693 928 693 946 805 c 0,29,30
 963 923 963 923 884 975 c 128,-1,31
 805 1027 805 1027 627 1027 c 2,32,-1
 309 1027 l 1,33,-1
 241 575 l 1,25,-1
EndSplineSet
Validated: 33
EndChar

StartChar: uni0433
Encoding: 1075 1075 479
Width: 867
GlyphClass: 1
Flags: W
LayerCount: 2
Fore
SplineSet
896 1027 m 1,0,-1
 300 1027 l 1,1,-1
 146 0 l 1,2,-1
 92 0 l 1,3,-1
 254 1082 l 1,4,-1
 904 1082 l 1,5,-1
 896 1027 l 1,0,-1
EndSplineSet
Validated: 1
EndChar

StartChar: uni0434
Encoding: 1076 1076 480
Width: 1118
GlyphClass: 1
Flags: W
LayerCount: 2
Fore
SplineSet
65 54 m 2,0,1
 142 54 142 54 223.5 225.5 c 128,-1,2
 305 397 305 397 363 706 c 1,3,-1
 439 1082 l 1,4,-1
 1030 1082 l 1,5,-1
 876 54 l 1,6,-1
 942 54 l 1,7,-1
 882 -348 l 1,8,-1
 828 -348 l 1,9,-1
 880 0 l 1,10,-1
 19 0 l 1,11,-1
 -33 -348 l 1,12,-1
 -77 -348 l 1,13,-1
 -17 54 l 1,14,-1
 65 54 l 2,0,1
417 706 m 2,15,16
 371 465 371 465 308 296.5 c 128,-1,17
 245 128 245 128 169 54 c 1,18,-1
 822 54 l 1,19,-1
 968 1028 l 1,20,-1
 482 1028 l 1,21,-1
 417 706 l 2,15,16
EndSplineSet
Validated: 1
EndChar

StartChar: uni0436
Encoding: 1078 1078 482
Width: 1508
GlyphClass: 1
Flags: W
LayerCount: 2
Fore
SplineSet
895 528 m 1,0,-1
 778 528 l 1,1,-1
 699 0 l 1,2,-1
 645 0 l 1,3,-1
 724 528 l 1,4,-1
 609 528 l 1,5,-1
 32 0 l 1,6,-1
 -31 0 l 1,7,-1
 -33 6 l 1,8,-1
 555 552 l 1,9,-1
 186 1082 l 1,10,-1
 253 1082 l 1,11,-1
 608 582 l 1,12,-1
 732 582 l 1,13,-1
 807 1082 l 1,14,-1
 861 1082 l 1,15,-1
 786 582 l 1,16,-1
 913 582 l 1,17,-1
 1417 1082 l 1,18,-1
 1478 1082 l 1,19,-1
 1480 1076 l 1,20,-1
 956 552 l 1,21,-1
 1386 0 l 1,22,-1
 1315 0 l 1,23,-1
 895 528 l 1,0,-1
EndSplineSet
Validated: 1
EndChar

StartChar: uni0437
Encoding: 1079 1079 483
Width: 1122
GlyphClass: 1
Flags: W
LayerCount: 2
Fore
SplineSet
402 580 m 1,0,-1
 567 580 l 2,1,2
 745 580 745 580 846 639.5 c 128,-1,3
 947 699 947 699 964 805 c 0,4,5
 980 917 980 917 901 980.5 c 128,-1,6
 822 1044 822 1044 640 1044 c 0,7,8
 485 1044 485 1044 365 976 c 128,-1,9
 245 908 245 908 229 799 c 1,10,-1
 185 799 l 1,11,-1
 183 805 l 1,12,13
 197 940 197 940 330.5 1019 c 128,-1,14
 464 1098 464 1098 648 1098 c 0,15,16
 833 1098 833 1098 936 1020 c 128,-1,17
 1039 942 1039 942 1018 802 c 0,18,19
 1005 714 1005 714 935.5 648.5 c 128,-1,20
 866 583 866 583 751 553 c 1,21,22
 867 525 867 525 921 457.5 c 128,-1,23
 975 390 975 390 961 290 c 0,24,25
 938 141 938 141 806.5 62 c 128,-1,26
 675 -17 675 -17 480 -17 c 0,27,28
 305 -17 305 -17 182.5 65 c 128,-1,29
 60 147 60 147 88 295 c 1,30,-1
 90 301 l 1,31,-1
 136 301 l 1,32,33
 118 181 118 181 215 109.5 c 128,-1,34
 312 38 312 38 489 38 c 0,35,36
 663 38 663 38 775 104.5 c 128,-1,37
 887 171 887 171 905 287 c 0,38,39
 923 415 923 415 837 470 c 128,-1,40
 751 525 751 525 559 525 c 2,41,-1
 394 525 l 1,42,-1
 401 572 l 1,43,-1
 402 580 l 1,0,-1
EndSplineSet
Validated: 33
EndChar

StartChar: uni0438
Encoding: 1080 1080 484
Width: 1121
GlyphClass: 1
Flags: W
LayerCount: 2
Fore
SplineSet
977 1082 m 1,0,-1
 1032 1082 l 1,1,-1
 870 0 l 1,2,-1
 815 0 l 1,3,-1
 960 974 l 1,4,-1
 955 976 l 1,5,-1
 146 0 l 1,6,-1
 92 0 l 1,7,-1
 254 1082 l 1,8,-1
 308 1082 l 1,9,-1
 162 108 l 1,10,-1
 167 106 l 1,11,-1
 977 1082 l 1,0,-1
EndSplineSet
Validated: 1
EndChar

StartChar: uni043A
Encoding: 1082 1082 486
Width: 1046
GlyphClass: 1
Flags: W
LayerCount: 2
Fore
SplineSet
393 529 m 1,0,-1
 225 529 l 1,1,-1
 146 0 l 1,2,-1
 91 0 l 1,3,-1
 253 1082 l 1,4,-1
 308 1082 l 1,5,-1
 233 582 l 1,6,-1
 411 582 l 1,7,-1
 945 1082 l 1,8,-1
 1015 1082 l 1,9,-1
 1017 1076 l 1,10,-1
 456 553 l 1,11,-1
 919 5 l 1,12,-1
 917 0 l 1,13,-1
 843 0 l 1,14,-1
 393 529 l 1,0,-1
EndSplineSet
Validated: 1
EndChar

StartChar: uni043B
Encoding: 1083 1083 487
Width: 1122
GlyphClass: 1
Flags: W
LayerCount: 2
Fore
SplineSet
1032 1082 m 1,0,-1
 870 0 l 1,1,-1
 815 0 l 1,2,-1
 969 1027 l 1,3,-1
 433 1027 l 1,4,-1
 368 590 l 2,5,6
 318 261 318 261 234.5 130.5 c 128,-1,7
 151 0 151 0 -4 0 c 2,8,-1
 -36 0 l 1,9,-1
 -28 53 l 1,10,-1
 7 53 l 2,11,12
 117 53 117 53 192.5 171.5 c 128,-1,13
 268 290 268 290 314 590 c 2,14,-1
 387 1082 l 1,15,-1
 1032 1082 l 1,0,-1
EndSplineSet
Validated: 1
EndChar

StartChar: uni043C
Encoding: 1084 1084 488
Width: 1476
GlyphClass: 1
Flags: W
LayerCount: 2
Fore
SplineSet
679 82 m 1,0,-1
 1321 1082 l 1,1,-1
 1386 1082 l 1,2,-1
 1224 0 l 1,3,-1
 1169 0 l 1,4,-1
 1313 964 l 1,5,-1
 1307 966 l 1,6,-1
 688 0 l 1,7,-1
 646 0 l 1,8,-1
 309 990 l 1,9,-1
 303 989 l 1,10,-1
 155 0 l 1,11,-1
 101 0 l 1,12,-1
 263 1082 l 1,13,-1
 337 1082 l 1,14,-1
 679 82 l 1,0,-1
EndSplineSet
Validated: 1
EndChar

StartChar: uni043D
Encoding: 1085 1085 489
Width: 1121
GlyphClass: 1
Flags: W
LayerCount: 2
Fore
SplineSet
870 0 m 1,0,-1
 815 0 l 1,1,-1
 894 529 l 1,2,-1
 225 529 l 1,3,-1
 146 0 l 1,4,-1
 92 0 l 1,5,-1
 254 1082 l 1,6,-1
 308 1082 l 1,7,-1
 233 583 l 1,8,-1
 902 583 l 1,9,-1
 977 1082 l 1,10,-1
 1032 1082 l 1,11,-1
 870 0 l 1,0,-1
EndSplineSet
Validated: 1
EndChar

StartChar: uni043F
Encoding: 1087 1087 491
Width: 1121
GlyphClass: 1
Flags: W
LayerCount: 2
Fore
SplineSet
870 0 m 1,0,-1
 815 0 l 1,1,-1
 969 1027 l 1,2,-1
 300 1027 l 1,3,-1
 146 0 l 1,4,-1
 92 0 l 1,5,-1
 254 1082 l 1,6,-1
 1032 1082 l 1,7,-1
 870 0 l 1,0,-1
EndSplineSet
Validated: 1
EndChar

StartChar: uni0441
Encoding: 1089 1089 493
Width: 1039
GlyphClass: 1
Flags: W
LayerCount: 2
Fore
SplineSet
464 33 m 0,0,1
 597 33 597 33 715 108 c 128,-1,2
 833 183 833 183 856 333 c 1,3,-1
 901 333 l 1,4,-1
 903 327 l 1,5,6
 882 161 882 161 749.5 70 c 128,-1,7
 617 -21 617 -21 456 -21 c 0,8,9
 257 -21 257 -21 157.5 129.5 c 128,-1,10
 58 280 58 280 95 520 c 2,11,-1
 101 562 l 2,12,13
 138 813 138 813 276 957.5 c 128,-1,14
 414 1102 414 1102 622 1102 c 0,15,16
 785 1102 785 1102 889.5 1002.5 c 128,-1,17
 994 903 994 903 963 725 c 1,18,-1
 961 720 l 1,19,-1
 914 720 l 1,20,21
 938 885 938 885 849.5 966.5 c 128,-1,22
 761 1048 761 1048 614 1048 c 0,23,24
 431 1048 431 1048 309 910 c 128,-1,25
 187 772 187 772 155 562 c 2,26,-1
 149 520 l 2,27,28
 115 296 115 296 192.5 164.5 c 128,-1,29
 270 33 270 33 464 33 c 0,0,1
EndSplineSet
Validated: 33
EndChar

StartChar: uni0442
Encoding: 1090 1090 494
Width: 1028
GlyphClass: 1
Flags: W
LayerCount: 2
Fore
SplineSet
1029 1027 m 1,0,-1
 604 1027 l 1,1,-1
 450 0 l 1,2,-1
 396 0 l 1,3,-1
 550 1027 l 1,4,-1
 147 1027 l 1,5,-1
 155 1082 l 1,6,-1
 1037 1082 l 1,7,-1
 1029 1027 l 1,0,-1
EndSplineSet
Validated: 1
EndChar

StartChar: uni0444
Encoding: 1092 1092 496
Width: 1844
GlyphClass: 1
Flags: W
LayerCount: 2
Fore
SplineSet
123 542 m 2,0,1
 163 809 163 809 292 955.5 c 128,-1,2
 421 1102 421 1102 615 1102 c 0,3,4
 736 1102 736 1102 821 1044 c 128,-1,5
 906 986 906 986 949 886 c 1,6,-1
 1050 1560 l 1,7,-1
 1104 1560 l 1,8,-1
 1004 891 l 1,9,10
 1072 989 1072 989 1172.5 1045.5 c 128,-1,11
 1273 1102 1273 1102 1399 1102 c 0,12,13
 1582 1102 1582 1102 1671.5 949 c 128,-1,14
 1761 796 1761 796 1723 542 c 2,15,-1
 1720 521 l 2,16,17
 1681 262 1681 262 1553 120.5 c 128,-1,18
 1425 -21 1425 -21 1233 -21 c 0,19,20
 1112 -21 1112 -21 1025 30.5 c 128,-1,21
 938 82 938 82 895 169 c 1,22,-1
 808 -416 l 1,23,-1
 754 -416 l 1,24,-1
 841 167 l 1,25,26
 773 80 773 80 671.5 29.5 c 128,-1,27
 570 -21 570 -21 445 -21 c 0,28,29
 262 -21 262 -21 172.5 126.5 c 128,-1,30
 83 274 83 274 120 521 c 2,31,-1
 123 542 l 2,0,1
176 521 m 2,32,33
 141 289 141 289 209.5 161 c 128,-1,34
 278 33 278 33 452 33 c 0,35,36
 588 33 588 33 693.5 97.5 c 128,-1,37
 799 162 799 162 857 269 c 1,38,-1
 861 299 l 1,39,-1
 861 305 l 1,40,-1
 927 745 l 1,41,42
 927 745 927 745 927.5 746.5 c 128,-1,43
 928 748 928 748 929 749 c 2,44,-1
 933 776 l 1,45,46
 911 891 911 891 836 969.5 c 128,-1,47
 761 1048 761 1048 606 1048 c 0,48,49
 441 1048 441 1048 326.5 906 c 128,-1,50
 212 764 212 764 179 542 c 2,51,-1
 176 521 l 2,32,33
1669 542 m 2,52,53
 1703 775 1703 775 1634 911.5 c 128,-1,54
 1565 1048 1565 1048 1392 1048 c 0,55,56
 1245 1048 1245 1048 1144.5 970 c 128,-1,57
 1044 892 1044 892 987 780 c 1,58,-1
 982 749 l 2,59,60
 982 748 982 748 982.5 746.5 c 128,-1,61
 983 745 983 745 983 745 c 1,62,-1
 917 304 l 2,63,64
 916 302 916 302 915.5 300.5 c 128,-1,65
 915 299 915 299 915 299 c 1,66,-1
 910 264 l 1,67,68
 934 158 934 158 1017.5 95.5 c 128,-1,69
 1101 33 1101 33 1242 33 c 0,70,71
 1407 33 1407 33 1520 166.5 c 128,-1,72
 1633 300 1633 300 1666 521 c 2,73,-1
 1669 542 l 2,52,53
EndSplineSet
Validated: 33
EndChar

StartChar: uni0446
Encoding: 1094 1094 498
Width: 1120
GlyphClass: 1
Flags: W
LayerCount: 2
Fore
SplineSet
254 1082 m 1,0,-1
 308 1082 l 1,1,-1
 154 54 l 1,2,-1
 823 54 l 1,3,-1
 977 1082 l 1,4,-1
 1032 1082 l 1,5,-1
 870 0 l 1,6,-1
 92 0 l 1,7,-1
 254 1082 l 1,0,-1
873 -348 m 1,8,-1
 819 -348 l 1,9,-1
 879 54 l 1,10,-1
 933 54 l 1,11,-1
 873 -348 l 1,8,-1
EndSplineSet
Validated: 1
EndChar

StartChar: uni0447
Encoding: 1095 1095 499
Width: 1122
GlyphClass: 1
Flags: W
LayerCount: 2
Fore
SplineSet
870 0 m 1,0,-1
 816 0 l 1,1,-1
 894 522 l 1,2,3
 823 489 823 489 729.5 465.5 c 128,-1,4
 636 442 636 442 567 442 c 0,5,6
 353 442 353 442 268 528 c 128,-1,7
 183 614 183 614 219 848 c 2,8,-1
 254 1082 l 1,9,-1
 308 1082 l 1,10,-1
 273 848 l 2,11,12
 241 635 241 635 309 565.5 c 128,-1,13
 377 496 377 496 575 496 c 0,14,15
 655 499 655 499 749 522 c 128,-1,16
 843 545 843 545 902 573 c 1,17,-1
 978 1082 l 1,18,-1
 1032 1082 l 1,19,-1
 870 0 l 1,0,-1
EndSplineSet
Validated: 33
EndChar

StartChar: uni0448
Encoding: 1096 1096 500
Width: 1594
GlyphClass: 1
Flags: W
LayerCount: 2
Fore
SplineSet
308 1082 m 1,0,-1
 154 54 l 1,1,-1
 721 54 l 1,2,-1
 875 1082 l 1,3,-1
 930 1082 l 1,4,-1
 776 54 l 1,5,-1
 1334 54 l 1,6,-1
 1488 1082 l 1,7,-1
 1542 1082 l 1,8,-1
 1380 0 l 1,9,-1
 92 0 l 1,10,-1
 254 1082 l 1,11,-1
 308 1082 l 1,0,-1
EndSplineSet
Validated: 1
EndChar

StartChar: uni0449
Encoding: 1097 1097 501
Width: 1592
GlyphClass: 1
Flags: W
LayerCount: 2
Fore
SplineSet
308 1082 m 1,0,-1
 154 54 l 1,1,-1
 721 54 l 1,2,-1
 875 1082 l 1,3,-1
 930 1082 l 1,4,-1
 776 54 l 1,5,-1
 1334 54 l 1,6,-1
 1488 1082 l 1,7,-1
 1542 1082 l 1,8,-1
 1390 67 l 1,9,-1
 1450 67 l 1,10,-1
 1388 -350 l 1,11,-1
 1325 -350 l 1,12,-1
 1377 0 l 1,13,-1
 92 0 l 1,14,-1
 254 1082 l 1,15,-1
 308 1082 l 1,0,-1
EndSplineSet
Validated: 1
EndChar

StartChar: uni044A
Encoding: 1098 1098 502
Width: 1315
GlyphClass: 1
Flags: W
LayerCount: 2
Fore
SplineSet
108 1082 m 1,0,-1
 551 1082 l 1,1,-1
 483 630 l 1,2,-1
 829 630 l 2,3,4
 1004 630 1004 630 1096 541.5 c 128,-1,5
 1188 453 1188 453 1168 315 c 0,6,7
 1146 169 1146 169 1032 84.5 c 128,-1,8
 918 0 918 0 734 0 c 2,9,-1
 335 0 l 1,10,-1
 489 1028 l 1,11,-1
 100 1028 l 1,12,-1
 108 1082 l 1,0,-1
475 576 m 1,13,-1
 397 54 l 1,14,-1
 742 54 l 2,15,16
 901 54 901 54 999.5 130 c 128,-1,17
 1098 206 1098 206 1115 317 c 0,18,19
 1131 429 1131 429 1059 502.5 c 128,-1,20
 987 576 987 576 820 576 c 2,21,-1
 475 576 l 1,13,-1
EndSplineSet
Validated: 33
EndChar

StartChar: uni044B
Encoding: 1099 1099 503
Width: 1486
GlyphClass: 1
Flags: W
LayerCount: 2
Fore
SplineSet
249 630 m 1,0,-1
 595 630 l 2,1,2
 770 630 770 630 862 541.5 c 128,-1,3
 954 453 954 453 934 315 c 0,4,5
 912 169 912 169 798 84.5 c 128,-1,6
 684 0 684 0 500 0 c 2,7,-1
 101 0 l 1,8,-1
 263 1082 l 1,9,-1
 317 1082 l 1,10,-1
 249 630 l 1,0,-1
241 576 m 1,11,-1
 163 54 l 1,12,-1
 508 54 l 2,13,14
 667 54 667 54 765.5 130 c 128,-1,15
 864 206 864 206 881 317 c 0,16,17
 897 429 897 429 825 502.5 c 128,-1,18
 753 576 753 576 586 576 c 2,19,-1
 241 576 l 1,11,-1
1235 0 m 1,20,-1
 1181 0 l 1,21,-1
 1343 1082 l 1,22,-1
 1397 1082 l 1,23,-1
 1235 0 l 1,20,-1
EndSplineSet
Validated: 33
EndChar

StartChar: uni044C
Encoding: 1100 1100 504
Width: 1080
GlyphClass: 1
Flags: W
LayerCount: 2
Fore
SplineSet
249 630 m 1,0,-1
 595 630 l 2,1,2
 770 630 770 630 862 541.5 c 128,-1,3
 954 453 954 453 934 315 c 0,4,5
 912 169 912 169 798 84.5 c 128,-1,6
 684 0 684 0 500 0 c 2,7,-1
 101 0 l 1,8,-1
 263 1082 l 1,9,-1
 317 1082 l 1,10,-1
 249 630 l 1,0,-1
241 576 m 1,11,-1
 163 54 l 1,12,-1
 508 54 l 2,13,14
 667 54 667 54 765.5 130 c 128,-1,15
 864 206 864 206 881 317 c 0,16,17
 897 429 897 429 825 502.5 c 128,-1,18
 753 576 753 576 586 576 c 2,19,-1
 241 576 l 1,11,-1
EndSplineSet
Validated: 33
EndChar

StartChar: uni044D
Encoding: 1101 1101 505
Width: 1089
GlyphClass: 1
Flags: W
LayerCount: 2
Fore
SplineSet
591 1048 m 0,0,1
 459 1048 459 1048 345.5 973 c 128,-1,2
 232 898 232 898 210 749 c 1,3,-1
 163 749 l 1,4,-1
 161 755 l 1,5,6
 182 921 182 921 309.5 1011.5 c 128,-1,7
 437 1102 437 1102 599 1102 c 0,8,9
 799 1102 799 1102 902.5 951 c 128,-1,10
 1006 800 1006 800 970 562 c 2,11,-1
 964 520 l 2,12,13
 926 269 926 269 783.5 124 c 128,-1,14
 641 -21 641 -21 433 -21 c 0,15,16
 271 -21 271 -21 170.5 78 c 128,-1,17
 70 177 70 177 101 357 c 1,18,-1
 103 362 l 1,19,-1
 152 362 l 1,20,21
 127 195 127 195 210.5 114 c 128,-1,22
 294 33 294 33 441 33 c 0,23,24
 622 33 622 33 749 170 c 128,-1,25
 876 307 876 307 904 510 c 1,26,-1
 901 516 l 1,27,-1
 337 516 l 1,28,-1
 346 570 l 1,29,-1
 917 570 l 1,30,31
 948 787 948 787 865 917.5 c 128,-1,32
 782 1048 782 1048 591 1048 c 0,0,1
EndSplineSet
Validated: 33
EndChar

StartChar: uni044E
Encoding: 1102 1102 506
Width: 1659
GlyphClass: 1
Flags: W
LayerCount: 2
Fore
SplineSet
238 557 m 1,0,-1
 596 557 l 1,1,-1
 597 562 l 1,2,3
 634 809 634 809 786 955.5 c 128,-1,4
 938 1102 938 1102 1151 1102 c 0,5,6
 1354 1102 1354 1102 1466.5 949.5 c 128,-1,7
 1579 797 1579 797 1544 562 c 2,8,-1
 1538 520 l 2,9,10
 1500 272 1500 272 1348.5 125.5 c 128,-1,11
 1197 -21 1197 -21 985 -21 c 0,12,13
 786 -21 786 -21 672.5 126 c 128,-1,14
 559 273 559 273 589 503 c 1,15,-1
 230 503 l 1,16,-1
 155 0 l 1,17,-1
 101 0 l 1,18,-1
 263 1082 l 1,19,-1
 317 1082 l 1,20,-1
 238 557 l 1,0,-1
645 520 m 2,21,22
 613 309 613 309 705.5 171 c 128,-1,23
 798 33 798 33 993 33 c 0,24,25
 1175 33 1175 33 1314 176 c 128,-1,26
 1453 319 1453 319 1484 520 c 2,27,-1
 1490 562 l 2,28,29
 1521 768 1521 768 1428 908 c 128,-1,30
 1335 1048 1335 1048 1143 1048 c 0,31,32
 960 1048 960 1048 820 903 c 128,-1,33
 680 758 680 758 651 562 c 2,34,-1
 645 520 l 2,21,22
EndSplineSet
Validated: 33
EndChar

StartChar: uni044F
Encoding: 1103 1103 507
Width: 1101
GlyphClass: 1
Flags: W
LayerCount: 2
Fore
SplineSet
1006 1082 m 1,0,-1
 844 0 l 1,1,-1
 790 0 l 1,2,-1
 857 450 l 1,3,-1
 470 450 l 1,4,-1
 461 450 l 1,5,-1
 123 0 l 1,6,-1
 59 0 l 1,7,-1
 401 456 l 1,8,9
 286 476 286 476 230.5 560.5 c 128,-1,10
 175 645 175 645 194 766 c 0,11,12
 215 911 215 911 323 996.5 c 128,-1,13
 431 1082 431 1082 606 1082 c 2,14,-1
 1006 1082 l 1,0,-1
248 764 m 0,15,16
 230 651 230 651 286 578 c 128,-1,17
 342 505 342 505 478 505 c 2,18,-1
 865 505 l 1,19,-1
 944 1027 l 1,20,-1
 598 1027 l 2,21,22
 448 1027 448 1027 356 951.5 c 128,-1,23
 264 876 264 876 248 764 c 0,15,16
EndSplineSet
Validated: 33
EndChar

StartChar: uni0452
Encoding: 1106 1106 510
Width: 1121
GlyphClass: 1
Flags: W
LayerCount: 2
Fore
SplineSet
713 1283 m 1,0,-1
 338 1283 l 1,1,-1
 275 863 l 1,2,3
 343 979 343 979 448.5 1040.5 c 128,-1,4
 554 1102 554 1102 695 1102 c 0,5,6
 858 1102 858 1102 932.5 993.5 c 128,-1,7
 1007 885 1007 885 973 658 c 2,8,-1
 936 414 l 1,9,-1
 904 200 l 1,10,-1
 861 -89 l 2,11,12
 834 -262 834 -262 746.5 -349.5 c 128,-1,13
 659 -437 659 -437 522 -437 c 0,14,15
 488 -437 488 -437 457.5 -432 c 128,-1,16
 427 -427 427 -427 393 -417 c 1,17,-1
 414 -365 l 1,18,19
 433 -371 433 -371 466.5 -377 c 128,-1,20
 500 -383 500 -383 531 -383 c 0,21,22
 637 -383 637 -383 710.5 -305.5 c 128,-1,23
 784 -228 784 -228 806 -89 c 2,24,-1
 819 0 l 1,25,-1
 870 345 l 1,26,-1
 881 414 l 1,27,-1
 918 660 l 2,28,29
 951 882 951 882 886.5 965 c 128,-1,30
 822 1048 822 1048 688 1048 c 0,31,32
 522 1048 522 1048 410.5 944 c 128,-1,33
 299 840 299 840 248 681 c 1,34,-1
 146 0 l 1,35,-1
 92 0 l 1,36,-1
 175 554 l 1,37,-1
 173 554 l 1,38,39
 175 570 175 570 178 586.5 c 128,-1,40
 181 603 181 603 185 619 c 2,41,-1
 284 1283 l 1,42,-1
 123 1283 l 1,43,-1
 132 1337 l 1,44,-1
 292 1337 l 1,45,-1
 326 1560 l 1,46,-1
 380 1560 l 1,47,-1
 346 1337 l 1,48,-1
 722 1337 l 1,49,-1
 713 1283 l 1,0,-1
EndSplineSet
Validated: 33
EndChar

StartChar: uni0454
Encoding: 1108 1108 512
Width: 1089
GlyphClass: 1
Flags: W
LayerCount: 2
Fore
SplineSet
479 33 m 0,0,1
 612 33 612 33 730 108 c 128,-1,2
 848 183 848 183 871 333 c 1,3,-1
 916 333 l 1,4,-1
 918 327 l 1,5,6
 897 161 897 161 764.5 70 c 128,-1,7
 632 -21 632 -21 471 -21 c 0,8,9
 272 -21 272 -21 172.5 129.5 c 128,-1,10
 73 280 73 280 110 520 c 2,11,-1
 116 562 l 2,12,13
 153 813 153 813 291 957.5 c 128,-1,14
 429 1102 429 1102 637 1102 c 0,15,16
 800 1102 800 1102 904.5 1002.5 c 128,-1,17
 1009 903 1009 903 978 725 c 1,18,-1
 976 720 l 1,19,-1
 929 720 l 1,20,21
 953 885 953 885 864.5 966.5 c 128,-1,22
 776 1048 776 1048 629 1048 c 0,23,24
 448 1048 448 1048 326.5 913.5 c 128,-1,25
 205 779 205 779 176 576 c 1,26,-1
 179 570 l 1,27,-1
 753 570 l 1,28,-1
 744 516 l 1,29,-1
 163 516 l 1,30,31
 130 294 130 294 208 163.5 c 128,-1,32
 286 33 286 33 479 33 c 0,0,1
EndSplineSet
Validated: 33
EndChar

StartChar: uni0459
Encoding: 1113 1113 517
Width: 1764
GlyphClass: 1
Flags: W
LayerCount: 2
Fore
SplineSet
1032 1082 m 1,0,-1
 964 630 l 1,1,-1
 1310 630 l 2,2,3
 1485 630 1485 630 1577 541.5 c 128,-1,4
 1669 453 1669 453 1649 315 c 0,5,6
 1627 169 1627 169 1513 84.5 c 128,-1,7
 1399 0 1399 0 1215 0 c 2,8,-1
 815 0 l 1,9,-1
 969 1027 l 1,10,-1
 423 1027 l 1,11,-1
 358 590 l 2,12,13
 308 261 308 261 224.5 130.5 c 128,-1,14
 141 0 141 0 -14 0 c 2,15,-1
 -46 0 l 1,16,-1
 -38 54 l 1,17,-1
 -3 54 l 2,18,19
 107 54 107 54 182.5 172 c 128,-1,20
 258 290 258 290 304 590 c 2,21,-1
 377 1082 l 1,22,-1
 1032 1082 l 1,0,-1
956 576 m 1,23,-1
 878 54 l 1,24,-1
 1223 54 l 2,25,26
 1382 54 1382 54 1480.5 130 c 128,-1,27
 1579 206 1579 206 1596 317 c 0,28,29
 1612 429 1612 429 1540 502.5 c 128,-1,30
 1468 576 1468 576 1301 576 c 2,31,-1
 956 576 l 1,23,-1
EndSplineSet
Validated: 33
EndChar

StartChar: uni045A
Encoding: 1114 1114 518
Width: 1764
GlyphClass: 1
Flags: W
LayerCount: 2
Fore
SplineSet
240 632 m 1,0,-1
 909 632 l 1,1,-1
 977 1082 l 1,2,-1
 1032 1082 l 1,3,-1
 964 630 l 1,4,-1
 1310 630 l 2,5,6
 1485 630 1485 630 1577 541.5 c 128,-1,7
 1669 453 1669 453 1649 315 c 0,8,9
 1627 169 1627 169 1513 84.5 c 128,-1,10
 1399 0 1399 0 1215 0 c 2,11,-1
 815 0 l 1,12,-1
 901 578 l 1,13,-1
 232 578 l 1,14,-1
 146 0 l 1,15,-1
 92 0 l 1,16,-1
 254 1082 l 1,17,-1
 308 1082 l 1,18,-1
 240 632 l 1,0,-1
956 576 m 1,19,-1
 878 54 l 1,20,-1
 1223 54 l 2,21,22
 1382 54 1382 54 1480.5 130 c 128,-1,23
 1579 206 1579 206 1596 317 c 0,24,25
 1612 429 1612 429 1540 502.5 c 128,-1,26
 1468 576 1468 576 1301 576 c 2,27,-1
 956 576 l 1,19,-1
EndSplineSet
Validated: 33
EndChar

StartChar: uni045B
Encoding: 1115 1115 519
Width: 1121
GlyphClass: 1
Flags: W
LayerCount: 2
Fore
SplineSet
670 1280 m 1,0,-1
 338 1280 l 1,1,-1
 275 863 l 1,2,3
 343 979 343 979 448.5 1040.5 c 128,-1,4
 554 1102 554 1102 695 1102 c 0,5,6
 858 1102 858 1102 932.5 993.5 c 128,-1,7
 1007 885 1007 885 973 658 c 2,8,-1
 874 0 l 1,9,-1
 819 0 l 1,10,-1
 918 660 l 2,11,12
 951 882 951 882 886.5 965 c 128,-1,13
 822 1048 822 1048 688 1048 c 0,14,15
 522 1048 522 1048 410.5 944 c 128,-1,16
 299 840 299 840 248 681 c 1,17,-1
 146 0 l 1,18,-1
 92 0 l 1,19,-1
 175 554 l 1,20,-1
 173 554 l 1,21,22
 175 570 175 570 178 586.5 c 128,-1,23
 181 603 181 603 185 619 c 2,24,-1
 284 1280 l 1,25,-1
 83 1280 l 1,26,-1
 91 1334 l 1,27,-1
 292 1334 l 1,28,-1
 326 1560 l 1,29,-1
 380 1560 l 1,30,-1
 346 1334 l 1,31,-1
 678 1334 l 1,32,-1
 670 1280 l 1,0,-1
EndSplineSet
Validated: 33
EndChar

StartChar: uni045F
Encoding: 1119 1119 523
Width: 1121
GlyphClass: 1
Flags: W
LayerCount: 2
Fore
SplineSet
308 1082 m 1,0,-1
 154 54 l 1,1,-1
 823 54 l 1,2,-1
 977 1082 l 1,3,-1
 1032 1082 l 1,4,-1
 870 0 l 1,5,-1
 512 0 l 1,6,-1
 460 -350 l 1,7,-1
 406 -350 l 1,8,-1
 458 0 l 1,9,-1
 92 0 l 1,10,-1
 254 1082 l 1,11,-1
 308 1082 l 1,0,-1
EndSplineSet
Validated: 1
EndChar

StartChar: uni0460
Encoding: 1120 1120 524
Width: 1947
GlyphClass: 1
Flags: W
LayerCount: 2
Fore
SplineSet
1205 1419 m 1,0,1
 1271 1447 1271 1447 1353 1462 c 128,-1,2
 1435 1477 1435 1477 1528 1477 c 0,3,4
 1725 1477 1725 1477 1832 1303 c 128,-1,5
 1939 1129 1939 1129 1899 858 c 2,6,-1
 1863 620 l 2,7,8
 1818 324 1818 324 1659.5 151.5 c 128,-1,9
 1501 -21 1501 -21 1286 -21 c 0,10,11
 1155 -21 1155 -21 1059.5 21.5 c 128,-1,12
 964 64 964 64 917 121 c 1,13,14
 854 63 854 63 748.5 21 c 128,-1,15
 643 -21 643 -21 506 -21 c 0,16,17
 300 -21 300 -21 189 158.5 c 128,-1,18
 78 338 78 338 121 620 c 2,19,-1
 157 858 l 2,20,21
 199 1142 199 1142 352.5 1309.5 c 128,-1,22
 506 1477 506 1477 714 1477 c 0,23,24
 802 1477 802 1477 881 1461.5 c 128,-1,25
 960 1446 960 1446 1019 1419 c 1,26,-1
 996 1367 l 1,27,28
 942 1393 942 1393 869 1408 c 128,-1,29
 796 1423 796 1423 705 1423 c 0,30,31
 526 1423 526 1423 386.5 1264 c 128,-1,32
 247 1105 247 1105 211 860 c 2,33,-1
 175 620 l 2,34,35
 134 350 134 350 226 191.5 c 128,-1,36
 318 33 318 33 514 33 c 0,37,38
 650 33 650 33 753.5 78 c 128,-1,39
 857 123 857 123 898 180 c 1,40,-1
 926 363 l 1,41,-1
 967 635 l 1,42,-1
 662 635 l 1,43,-1
 671 690 l 1,44,-1
 1335 690 l 1,45,-1
 1326 635 l 1,46,-1
 1021 635 l 1,47,-1
 969 290 l 1,48,-1
 953 181 l 1,49,50
 977 123 977 123 1064 78 c 128,-1,51
 1151 33 1151 33 1294 33 c 0,52,53
 1479 33 1479 33 1624.5 198 c 128,-1,54
 1770 363 1770 363 1809 620 c 2,55,-1
 1845 860 l 2,56,57
 1883 1117 1883 1117 1794.5 1270 c 128,-1,58
 1706 1423 1706 1423 1519 1423 c 0,59,60
 1430 1423 1430 1423 1351 1408 c 128,-1,61
 1272 1393 1272 1393 1212 1367 c 1,62,-1
 1205 1419 l 1,0,1
EndSplineSet
Validated: 33
EndChar

StartChar: uni0461
Encoding: 1121 1121 525
Width: 1367
GlyphClass: 1
Flags: W
LayerCount: 2
Fore
SplineSet
389 229 m 1,0,-1
 418 83 l 1,1,-1
 424 82 l 1,2,-1
 498 229 l 1,3,-1
 729 633 l 1,4,-1
 731 633 l 1,5,-1
 645 1082 l 1,6,-1
 703 1082 l 1,7,-1
 785 633 l 1,8,-1
 787 633 l 1,9,-1
 785 630 l 1,10,-1
 859 229 l 1,11,-1
 891 68 l 1,12,-1
 897 67 l 1,13,-1
 951 148 l 2,14,15
 1081 347 1081 347 1179.5 580.5 c 128,-1,16
 1278 814 1278 814 1348 1082 c 1,17,-1
 1397 1082 l 1,18,19
 1326 790 1326 790 1204.5 515.5 c 128,-1,20
 1083 241 1083 241 905 1 c 1,21,-1
 905 0 l 1,22,-1
 853 0 l 1,23,-1
 747 550 l 1,24,-1
 741 551 l 1,25,-1
 434 1 l 1,26,-1
 435 0 l 1,27,-1
 383 0 l 1,28,-1
 125 1082 l 1,29,-1
 183 1082 l 1,30,-1
 389 229 l 1,0,-1
EndSplineSet
Validated: 1
EndChar

StartChar: uni0462
Encoding: 1122 1122 526
Width: 1223
GlyphClass: 1
Flags: W
LayerCount: 2
Fore
SplineSet
718 1151 m 1,0,-1
 339 1151 l 1,1,-1
 288 808 l 1,2,-1
 657 808 l 2,3,4
 874 808 874 808 984 695 c 128,-1,5
 1094 582 1094 582 1068 404 c 0,6,7
 1039 216 1039 216 901.5 108 c 128,-1,8
 764 0 764 0 536 0 c 2,9,-1
 113 0 l 1,10,-1
 285 1151 l 1,11,-1
 131 1151 l 1,12,-1
 139 1205 l 1,13,-1
 293 1205 l 1,14,-1
 331 1456 l 1,15,-1
 385 1456 l 1,16,-1
 347 1205 l 1,17,-1
 726 1205 l 1,18,-1
 718 1151 l 1,0,-1
280 754 m 1,19,-1
 175 54 l 1,20,-1
 544 54 l 2,21,22
 743 54 743 54 866.5 155.5 c 128,-1,23
 990 257 990 257 1013 406 c 0,24,25
 1035 556 1035 556 946.5 655 c 128,-1,26
 858 754 858 754 649 754 c 2,27,-1
 280 754 l 1,19,-1
EndSplineSet
Validated: 33
EndChar

StartChar: uni0463
Encoding: 1123 1123 527
Width: 1080
GlyphClass: 1
Flags: W
LayerCount: 2
Fore
SplineSet
653 1125 m 1,0,-1
 323 1125 l 1,1,-1
 249 630 l 1,2,-1
 595 630 l 2,3,4
 770 630 770 630 862 541.5 c 128,-1,5
 954 453 954 453 934 315 c 0,6,7
 912 169 912 169 798 84.5 c 128,-1,8
 684 0 684 0 500 0 c 2,9,-1
 101 0 l 1,10,-1
 269 1125 l 1,11,-1
 66 1125 l 1,12,-1
 74 1179 l 1,13,-1
 277 1179 l 1,14,-1
 335 1562 l 1,15,-1
 389 1562 l 1,16,-1
 331 1179 l 1,17,-1
 661 1179 l 1,18,-1
 653 1125 l 1,0,-1
241 576 m 1,19,-1
 163 54 l 1,20,-1
 508 54 l 2,21,22
 667 54 667 54 765.5 130 c 128,-1,23
 864 206 864 206 881 317 c 0,24,25
 897 429 897 429 825 502.5 c 128,-1,26
 753 576 753 576 586 576 c 2,27,-1
 241 576 l 1,19,-1
EndSplineSet
Validated: 33
EndChar

StartChar: uni0464
Encoding: 1124 1124 528
Width: 1825
GlyphClass: 1
Flags: W
LayerCount: 2
Fore
SplineSet
1213 685 m 1,0,-1
 687 685 l 1,1,-1
 678 620 l 2,2,3
 636 345 636 345 741.5 189.5 c 128,-1,4
 847 34 847 34 1063 34 c 0,5,6
 1266 34 1266 34 1407.5 138 c 128,-1,7
 1549 242 1549 242 1580 447 c 1,8,-1
 1625 447 l 1,9,-1
 1627 441 l 1,10,11
 1596 208 1596 208 1441.5 94 c 128,-1,12
 1287 -20 1287 -20 1055 -20 c 0,13,14
 825 -20 825 -20 703 158 c 128,-1,15
 581 336 581 336 624 620 c 2,16,-1
 634 685 l 1,17,-1
 313 685 l 1,18,-1
 211 0 l 1,19,-1
 157 0 l 1,20,-1
 375 1456 l 1,21,-1
 429 1456 l 1,22,-1
 321 739 l 1,23,-1
 642 739 l 1,24,-1
 657 838 l 2,25,26
 701 1135 701 1135 869.5 1306.5 c 128,-1,27
 1038 1478 1038 1478 1280 1478 c 0,28,29
 1499 1478 1499 1478 1625 1358 c 128,-1,30
 1751 1238 1751 1238 1714 1019 c 1,31,-1
 1711 1013 l 1,32,-1
 1665 1013 l 1,33,34
 1695 1217 1695 1217 1590 1320.5 c 128,-1,35
 1485 1424 1485 1424 1272 1424 c 0,36,37
 1067 1424 1067 1424 908.5 1261.5 c 128,-1,38
 750 1099 750 1099 711 840 c 2,39,-1
 695 739 l 1,40,-1
 1221 739 l 1,41,-1
 1213 685 l 1,0,-1
EndSplineSet
Validated: 33
EndChar

StartChar: uni0465
Encoding: 1125 1125 529
Width: 1518
GlyphClass: 1
Flags: W
LayerCount: 2
Fore
SplineSet
904 534 m 1,0,-1
 593 534 l 1,1,-1
 591 520 l 2,2,3
 557 296 557 296 634.5 164.5 c 128,-1,4
 712 33 712 33 906 33 c 0,5,6
 1039 33 1039 33 1157 108 c 128,-1,7
 1275 183 1275 183 1298 333 c 1,8,-1
 1343 333 l 1,9,-1
 1345 327 l 1,10,11
 1324 161 1324 161 1191.5 70 c 128,-1,12
 1059 -21 1059 -21 898 -21 c 0,13,14
 699 -21 699 -21 599.5 129.5 c 128,-1,15
 500 280 500 280 537 520 c 2,16,-1
 539 534 l 1,17,-1
 233 534 l 1,18,-1
 153 0 l 1,19,-1
 99 0 l 1,20,-1
 261 1082 l 1,21,-1
 315 1082 l 1,22,-1
 241 588 l 1,23,-1
 547 588 l 1,24,25
 589 827 589 827 725 964.5 c 128,-1,26
 861 1102 861 1102 1064 1102 c 0,27,28
 1227 1102 1227 1102 1331.5 1002.5 c 128,-1,29
 1436 903 1436 903 1405 725 c 1,30,-1
 1403 720 l 1,31,-1
 1356 720 l 1,32,33
 1380 885 1380 885 1291.5 966.5 c 128,-1,34
 1203 1048 1203 1048 1056 1048 c 0,35,36
 879 1048 879 1048 759 919 c 128,-1,37
 639 790 639 790 606 594 c 1,38,-1
 609 588 l 1,39,-1
 912 588 l 1,40,-1
 904 534 l 1,0,-1
EndSplineSet
Validated: 33
EndChar

StartChar: uni0466
Encoding: 1126 1126 530
Width: 1224
GlyphClass: 1
Flags: W
LayerCount: 2
Fore
SplineSet
936 508 m 1,0,-1
 628 508 l 1,1,-1
 552 0 l 1,2,-1
 498 0 l 1,3,-1
 574 508 l 1,4,-1
 279 508 l 1,5,-1
 13 0 l 1,6,-1
 -46 0 l 1,7,-1
 716 1456 l 1,8,-1
 782 1456 l 1,9,-1
 1109 0 l 1,10,-1
 1050 0 l 1,11,-1
 936 508 l 1,0,-1
308 562 m 1,12,-1
 924 562 l 1,13,-1
 758 1304 l 1,14,-1
 743 1388 l 1,15,-1
 737 1389 l 1,16,-1
 697 1304 l 1,17,-1
 308 562 l 1,12,-1
EndSplineSet
Validated: 1
EndChar

StartChar: uni0467
Encoding: 1127 1127 531
Width: 1067
GlyphClass: 1
Flags: W
LayerCount: 2
Fore
SplineSet
757 395 m 1,0,-1
 533 395 l 1,1,-1
 474 0 l 1,2,-1
 420 0 l 1,3,-1
 479 395 l 1,4,-1
 247 395 l 1,5,-1
 15 0 l 1,6,-1
 -44 0 l 1,7,-1
 579 1080 l 1,8,-1
 579 1082 l 1,9,-1
 631 1082 l 1,10,-1
 930 0 l 1,11,-1
 872 0 l 1,12,-1
 757 395 l 1,0,-1
278 449 m 1,13,-1
 742 449 l 1,14,-1
 625 853 l 1,15,-1
 596 999 l 1,16,-1
 590 1000 l 1,17,-1
 516 853 l 1,18,-1
 278 449 l 1,13,-1
EndSplineSet
Validated: 1
EndChar

StartChar: uni0468
Encoding: 1128 1128 532
Width: 1793
GlyphClass: 1
Flags: W
LayerCount: 2
Fore
SplineSet
313 562 m 1,0,-1
 777 562 l 1,1,-1
 1245 1456 l 1,2,-1
 1311 1456 l 1,3,-1
 1638 0 l 1,4,-1
 1579 0 l 1,5,-1
 1465 508 l 1,6,-1
 1157 508 l 1,7,-1
 1081 0 l 1,8,-1
 1027 0 l 1,9,-1
 1103 508 l 1,10,-1
 808 508 l 1,11,-1
 542 0 l 1,12,-1
 483 0 l 1,13,-1
 749 508 l 1,14,-1
 305 508 l 1,15,-1
 229 0 l 1,16,-1
 175 0 l 1,17,-1
 393 1456 l 1,18,-1
 447 1456 l 1,19,-1
 313 562 l 1,0,-1
837 562 m 1,20,-1
 1453 562 l 1,21,-1
 1287 1304 l 1,22,-1
 1272 1388 l 1,23,-1
 1266 1389 l 1,24,-1
 1226 1304 l 1,25,-1
 837 562 l 1,20,-1
EndSplineSet
Validated: 1
EndChar

StartChar: uni0469
Encoding: 1129 1129 533
Width: 1537
GlyphClass: 1
Flags: W
LayerCount: 2
Fore
SplineSet
1204 395 m 1,0,-1
 980 395 l 1,1,-1
 921 0 l 1,2,-1
 867 0 l 1,3,-1
 926 395 l 1,4,-1
 694 395 l 1,5,-1
 462 0 l 1,6,-1
 403 0 l 1,7,-1
 631 395 l 1,8,-1
 247 395 l 1,9,-1
 188 0 l 1,10,-1
 134 0 l 1,11,-1
 296 1082 l 1,12,-1
 350 1082 l 1,13,-1
 255 449 l 1,14,-1
 662 449 l 1,15,-1
 1026 1080 l 1,16,-1
 1026 1082 l 1,17,-1
 1078 1082 l 1,18,-1
 1377 0 l 1,19,-1
 1319 0 l 1,20,-1
 1204 395 l 1,0,-1
725 449 m 1,21,-1
 1189 449 l 1,22,-1
 1072 853 l 1,23,-1
 1043 999 l 1,24,-1
 1037 1000 l 1,25,-1
 963 853 l 1,26,-1
 725 449 l 1,21,-1
EndSplineSet
Validated: 1
EndChar

StartChar: uni046A
Encoding: 1130 1130 534
Width: 1593
GlyphClass: 1
Flags: W
LayerCount: 2
Fore
SplineSet
1410 1456 m 1,0,-1
 1459 1456 l 1,1,-1
 1462 1451 l 1,2,-1
 890 754 l 1,3,-1
 893 749 l 1,4,-1
 1051 749 l 2,5,6
 1242 749 1242 749 1336.5 662 c 128,-1,7
 1431 575 1431 575 1403 389 c 2,8,-1
 1345 0 l 1,9,-1
 1291 0 l 1,10,-1
 1349 389 l 2,11,12
 1375 561 1375 561 1302.5 628 c 128,-1,13
 1230 695 1230 695 1043 695 c 2,14,-1
 846 695 l 1,15,-1
 742 0 l 1,16,-1
 688 0 l 1,17,-1
 792 695 l 1,18,-1
 598 695 l 2,19,20
 420 695 420 695 322 624 c 128,-1,21
 224 553 224 553 200 389 c 2,22,-1
 142 0 l 1,23,-1
 87 0 l 1,24,-1
 145 389 l 2,25,26
 174 584 174 584 289.5 666.5 c 128,-1,27
 405 749 405 749 606 749 c 2,28,-1
 767 749 l 1,29,-1
 400 1456 l 1,30,-1
 453 1456 l 1,31,-1
 453 1457 l 1,32,-1
 1410 1457 l 1,33,-1
 1410 1456 l 1,0,-1
1353 1398 m 1,34,-1
 1350 1403 l 1,35,-1
 492 1403 l 1,36,-1
 805 783 l 1,37,-1
 821 749 l 1,38,-1
 832 749 l 1,39,-1
 858 783 l 1,40,-1
 1353 1398 l 1,34,-1
EndSplineSet
Validated: 33
EndChar

StartChar: uni046B
Encoding: 1131 1131 535
Width: 1389
GlyphClass: 1
Flags: W
LayerCount: 2
Fore
SplineSet
1162 1082 m 1,0,-1
 1216 1082 l 1,1,-1
 1218 1077 l 1,2,-1
 784 590 l 1,3,-1
 786 585 l 1,4,-1
 823 585 l 2,5,6
 1014 585 1014 585 1109 498 c 128,-1,7
 1204 411 1204 411 1176 225 c 2,8,-1
 1142 0 l 1,9,-1
 1088 0 l 1,10,-1
 1122 225 l 2,11,12
 1147 396 1147 396 1074.5 463 c 128,-1,13
 1002 530 1002 530 815 530 c 2,14,-1
 730 530 l 1,15,-1
 721 520 l 1,16,-1
 643 0 l 1,17,-1
 589 0 l 1,18,-1
 667 522 l 1,19,-1
 662 530 l 1,20,-1
 575 530 l 2,21,22
 397 530 397 530 298.5 459 c 128,-1,23
 200 388 200 388 176 225 c 2,24,-1
 142 0 l 1,25,-1
 87 0 l 1,26,-1
 121 225 l 2,27,28
 150 421 150 421 265.5 503 c 128,-1,29
 381 585 381 585 583 585 c 2,30,-1
 630 585 l 1,31,-1
 334 1082 l 1,32,-1
 398 1082 l 1,33,-1
 398 1083 l 1,34,-1
 1162 1083 l 1,35,-1
 1162 1082 l 1,0,-1
1104 1023 m 1,36,-1
 1102 1028 l 1,37,-1
 431 1028 l 1,38,-1
 689 596 l 1,39,-1
 693 585 l 1,40,-1
 715 585 l 1,41,-1
 723 597 l 1,42,-1
 1104 1023 l 1,36,-1
EndSplineSet
Validated: 33
EndChar

